<?xml version="1.0" encoding="utf-8"?>
<!-- Generator: Adobe Adobe Illustrator 24.2.0, SVG Export Plug-In . SVG Version: 6.00 Build 0)  -->
<svg version="1.1" id="Layer_2" xmlns="http://www.w3.org/2000/svg" xmlns:xlink="http://www.w3.org/1999/xlink" x="0px" y="0px"
	 width="1024px" height="1024px" viewBox="0 0 1024 1024" style="enable-background:new 0 0 1024 1024;" xml:space="preserve">
<style type="text/css">
	.st0{fill:none;stroke:#000000;stroke-width:16;stroke-miterlimit:10;}
</style>
<g>
	<path class="st0" d="M259.97,442.89l8.73-274.22c0.6-12.55,10.95-22.41,23.51-22.39l0,0c12.56-0.01,22.91,9.85,23.51,22.39
		l6.19,179.13c0.12,9.68,7.29,17.82,16.87,19.18c10.37,1.12,19.68-6.38,20.8-16.75c0.05-0.44,0.08-0.88,0.1-1.32l6.12-179.13
		c0.18-11.13,7.95-20.69,18.81-23.14c3.11-0.52,6.29-0.52,9.4,0c10.86,2.45,18.63,12.01,18.81,23.14l6.12,179.13
		c0.39,10.42,9.16,18.55,19.58,18.16c0.44-0.02,0.88-0.05,1.32-0.1c9.58-1.36,16.74-9.5,16.87-19.18l6.12-179.13
		c0.6-12.55,10.95-22.41,23.51-22.39l0,0c12.56-0.01,22.91,9.85,23.51,22.39l8.73,273.92c0.92,26.52-12.59,51.45-35.3,65.16
		l-43.36,26.65v317.51c0,14.26-11.56,25.82-25.82,25.82h-50.23c-14.26,0-25.82-11.56-25.82-25.82V533.88l-42.47-25.75
		C272.72,494.48,259.08,469.5,259.97,442.89z M602.26,614.56h59.71v237.35c0,14.26,11.56,25.83,25.82,25.83c0.08,0,0.15,0,0.22,0
		h50.23c14.26,0,25.82-11.57,25.82-50.53V164.49c-0.78-10.61-10-18.58-20.61-17.8c-3.12,0.23-6.14,1.21-8.8,2.87l0,0
		c-94.06,58.83-151.2,161.94-151.22,272.88v173.68c0,10.39,8.42,18.81,18.81,18.81l0,0V614.56z"/>
</g>
</svg>
