<?xml version="1.0" encoding="utf-8"?>
<!-- Generator: Adobe Adobe Illustrator 24.2.0, SVG Export Plug-In . SVG Version: 6.00 Build 0)  -->
<svg version="1.1" id="Layer_1" xmlns="http://www.w3.org/2000/svg" xmlns:xlink="http://www.w3.org/1999/xlink" x="0px" y="0px"
	 width="1024px" height="1024px" viewBox="0 0 1024 1024" style="enable-background:new 0 0 1024 1024;" xml:space="preserve">
<style type="text/css">
	.st0{fill:#7F4D39;stroke:#7F4D39;stroke-width:16;}
	.st1{fill:#7F4D39;stroke:#7F4D39;stroke-width:17;stroke-miterlimit:10;}
</style>
<g>
	<path class="st0" d="M711.5,523.2c31.7-3.2,68.3-4.1,91-28.8c27.2-31.2,25.2-77.4,9.8-113.3c-24.4-60-76.8-105-134-136.1
		c-50.8-26.9-108.6-41-166.7-40.3l0,0c-101.5,2.7-201.2,52.8-260.7,132.4c-27,37-44.7,85.1-30.9,130c7.5,22.6,25.8,40.7,49.8,46.3
		C411.8,530.9,570,537,711.5,523.2L711.5,523.2L711.5,523.2z M415.4,530.6c-20.4,69.8-36.7,118.1-33.9,191.6
		c2.3,29.7,10.3,65.2,38.3,79.3c33.3,17.3,72.3,12.2,108.5,13.4c33.9-0.5,69.1,1.1,101.4-10.7c27-13.9,41.5-45.9,41-76.3
		c6.6-73.6-13.4-124.9-33.2-194.7L415.4,530.6L415.4,530.6z"/>
	<path class="st1" d="M242.5,73.7H91.7c-17.8,0-32.3,18.4-32.3,41V279c0,7.5,4.8,13.7,10.7,13.7c5.9,0,10.7-6.2,10.7-13.7V114.9
		c0-7.5,4.8-13.7,10.7-13.7h150.8c5.9,0,10.7-6.2,10.7-13.7S248.4,73.7,242.5,73.7L242.5,73.7z M932.2,73.7H781.3
		c-5.9,0-10.7,6.2-10.7,13.7s4.8,13.7,10.7,13.7h150.8c5.9,0,10.7,6.2,10.7,13.7v164.3c0,7.5,4.8,13.7,10.7,13.7s10.7-6.2,10.7-13.7
		V114.9C964.6,92.1,950.1,73.7,932.2,73.7L932.2,73.7z M953.8,731.1c-5.9,0-10.7,6.2-10.7,13.7v164.3c0,7.5-4.8,13.7-10.7,13.7
		H781.5c-5.9,0-10.7,6.2-10.7,13.7c0,7.5,4.8,13.7,10.7,13.7h150.8c17.8,0,32.3-18.4,32.3-41V744.8
		C964.6,737.3,959.8,731.1,953.8,731.1L953.8,731.1z M70.1,731.1c-5.9,0-10.7,6.2-10.7,13.7v164.3c0,22.6,14.5,41,32.3,41h150.8
		c5.9,0,10.7-6.2,10.7-13.7c0-7.5-4.8-13.7-10.7-13.7H91.7c-5.9,0-10.7-6.2-10.7-13.7V744.8C80.8,737.3,76,731.1,70.1,731.1
		L70.1,731.1z"/>
</g>
</svg>
