<?xml version="1.0" encoding="UTF-8"?>
<svg id="Layer_3" data-name="Layer 3" xmlns="http://www.w3.org/2000/svg" viewBox="0 0 954.84 971.79">
  <defs>
    <style>
      .cls-1 {
        stroke-miterlimit: 10;
      }

      .cls-1, .cls-2 {
        fill: none;
        stroke: #000;
        stroke-width: 12px;
      }

      .cls-3 {
        stroke-width: 0px;
      }

      .cls-2 {
        stroke-linecap: round;
        stroke-linejoin: round;
      }
    </style>
  </defs>
  <g>
    <path class="cls-2" d="m351.11,690.47c16.91-4.4,35.9.29,47.84,11.78-.39-11.66,5.01-22.98,12.87-31.6,7.86-8.62,18.03-14.8,28.49-19.94"/>
    <path class="cls-2" d="m411.66,620.67c14.83-6.8,32.9-6.01,47.08,2.06,1.93-22.26,19.3-42.32,41.06-47.41"/>
  </g>
  <g>
    <path class="cls-3" d="m236.34,279.4c7.03,0,13.93.66,20.6,1.95-4.29,1.39-8.68,2.99-12.99,4.83-24.53,10.51-44.41,27.66-59,41.42-27.6,26.06-48.51,52.19-63.92,79.87-2.56,4.6-4.88,9.12-6.96,13.57-.31-17.77,2.11-35.16,7.27-51.35,5.44-17.07,14.34-33.31,25.74-46.97,11.66-13.97,25.99-25.25,41.42-32.61,14.71-7.01,31.25-10.72,47.83-10.72m0-12c-18.23,0-36.54,4.04-52.99,11.89-35.17,16.77-61.6,49.64-73.43,86.76-11.83,37.12-9.65,78.03,2.45,114.12-.91-23.46,7.75-46.34,19.16-66.86,16.05-28.84,37.66-54.32,61.67-76.98,16.54-15.62,34.57-30.16,55.48-39.12,20.91-8.96,45.13-11.89,46.73-13.75-17.69-10.83-38.33-16.06-59.07-16.06h0Z"/>
    <path class="cls-3" d="m152.41,197.67c2.2,0,4.43.07,6.61.22,32.84,2.16,60.07,18.58,77.13,31.96,11.47,9,22.56,19.8,33.8,33-10.57-1.58-21.26-2.09-30.68-2.09-4.82,0-9.79.13-14.77.4-48.55,2.57-90.77,13.48-125.52,32.43-20.05,10.94-37.71,24.71-52.48,40.92-.53.59-1.06,1.18-1.59,1.77,5.19-32.86,11.62-63.89,27.03-91.68,4.34-7.82,8.76-14.17,13.53-19.42,15.63-17.22,40.66-27.51,66.93-27.51m0-12c-28.26,0-56.88,10.57-75.82,31.44-5.93,6.54-10.85,13.95-15.14,21.67-26.31,47.44-27.9,104.05-38.2,156.88,13.72-39.47,44.8-71.52,81.49-91.53,36.69-20.01,78.67-28.77,120.4-30.98,4.66-.25,9.4-.38,14.14-.38,26.11,0,52.29,4.07,65.39,15.89-17.44-25.2-37-49.31-61.11-68.24-24.11-18.92-53.16-32.48-83.75-34.5-2.46-.16-4.93-.24-7.4-.24h0Z"/>
    <path class="cls-3" d="m156.75,49.08c5.33,0,10.57.53,15.57,1.59,23.59,4.96,46.09,22.49,61.73,48.1,6.71,10.98,12.44,23.57,17.51,38.49,4.92,14.46,8.69,29.59,11.73,42.47,2.13,9.05,4.19,18.2,6.16,27.44-6.55-9.32-13.62-18.31-21.22-26.95-25.2-28.67-54.97-52.19-88.49-69.92-14.52-7.68-26.9-12.74-38.97-15.91-10.73-2.82-21.89-4.26-33.18-4.26-5.91,0-11.81.39-17.64,1.17,8.9-8.7,18.66-16.91,29.38-23.79,18.51-11.88,38.9-18.42,57.41-18.42h0m0-12c-22.41,0-44.85,8.1-63.89,20.32-24.17,15.51-43.67,37.19-60.54,58.07,16.99-8.82,36.14-13.34,55.28-13.35,10.15,0,20.3,1.27,30.12,3.86,12.71,3.35,24.79,8.77,36.41,14.92,64.16,33.94,115.58,91.35,141.48,162-5.56-35.55-12.39-70.91-20.65-105.93-6.9-29.28-14.99-58.79-30.68-84.46-15.68-25.67-40.06-47.39-69.5-53.58-5.96-1.25-12-1.84-18.04-1.84h0Z"/>
    <path class="cls-3" d="m403,134.54h0c5,0,9.66.6,13.84,1.78,10.26,2.9,19.52,9.81,26.44,15.51,23,18.95,41.78,43.09,54.76,69.97-24.19-12.36-52.41-19.47-79.67-19.47-1.42,0-2.86.02-4.27.06-21.7.58-43.87,5.74-64.12,14.92-19.48,8.83-37.33,21.46-51.77,36.6,1.76-22.52,7.83-43.81,17.9-62.07,17.13-31.04,46.87-52.76,77.63-56.68,3.21-.41,6.32-.62,9.27-.62m0-12c-3.6,0-7.21.26-10.78.71-36.71,4.68-68.74,30.38-86.62,62.79-17.88,32.4-22.85,70.71-18.38,106.2,3.57-10.73,10.43-20.08,18.1-28.38,27.83-30.12,68.09-48.38,109.09-49.47,1.32-.04,2.64-.05,3.95-.05,39.67,0,79.05,15.8,104.16,38.54-11.88-42.91-37.25-81.99-71.61-110.3-9.22-7.6-19.31-14.55-30.8-17.8-5.56-1.57-11.32-2.23-17.1-2.23h0Z"/>
    <path class="cls-3" d="m337.12,264.83h0c5.14,0,10.07.68,14.65,2.03,14.21,4.18,27.16,15.26,36.46,31.2,9.21,15.78,13.85,33.96,17.5,51.24,3.92,18.61,6.89,37.43,8.88,56.36-14.88-36.93-33.55-74.33-62.97-103.81-13.57-13.59-26.9-22.67-40.76-27.76-1.63-.6-3.28-1.14-4.94-1.62,1.94-.93,3.89-1.8,5.85-2.57,8.4-3.32,17.16-5.07,25.33-5.07m0-12c-10.12,0-20.3,2.18-29.74,5.91-15.12,5.98-28.5,15.72-43.88,27.73,6.8-3.43,14.34-4.98,21.96-4.98,7.22,0,14.51,1.39,21.28,3.88,13.92,5.11,25.92,14.47,36.4,24.97,37.43,37.49,56.76,88.88,75.06,138.59,4.45,12.08,8.93,24.32,11.38,25.31.78-42.74-3.3-85.57-12.11-127.41-4-18.99-9.09-38.05-18.87-54.81-9.78-16.76-24.82-31.19-43.44-36.66-5.87-1.73-11.94-2.52-18.03-2.52h0Z"/>
    <path class="cls-2" d="m290.95,285.75s-.6-2.14.06-3.49c23.63,6.12,44.13,21.76,58.93,41.18s24.23,42.47,30.56,66.05c13.76,51.3,12.34,109.26-16.63,153.77"/>
    <path class="cls-2" d="m365.27,544.77c4.45-47.17,1.45-95.23-10.93-140.96-12.38-45.74-34.29-89.11-65.04-127.42-46.1,20.42-81.83,62.88-94.07,111.79-12.24,48.91-.71,103.2,30.34,142.92,9.52,12.17,21.32,23.37,33.04,26.45-43.58-72.57-44.48-168.78-2.27-242.16,8.61-14.97,19.39-29.49,34.63-37.63"/>
    <path class="cls-2" d="m260.98,135.78c5.11-33.18,29.97-60.27,58.09-78.62,16.83-10.98,35.48-19.71,55.36-22.64,19.88-2.93,41.11.34,57.75,11.61"/>
    <path class="cls-2" d="m358.36,128.98c-2.18-10.35.41-21.27,5.27-30.67s11.86-17.49,19.01-25.29c6.74-7.35,13.75-14.6,22.14-20s18.34-8.87,28.27-7.95"/>
    <path class="cls-2" d="m173,124.63c-19.08-12.55-44.82-13.72-67.79-9.02-44.15,9.04-82.44,39.03-99.21,83.46,9.15-17.82,30.39-28.96,51.92-30.73,21.53-1.77,43.09,4.77,61.65,14.85,4.5,2.44,9.43,6.12,8.81,10.85"/>
    <path class="cls-2" d="m395.34,296.24c45.03,15.58,81.28,54.46,93.68,100.47-.02-.72-.04-1.45-.06-2.17"/>
    <path class="cls-2" d="m387.47,212.42c37.36,7.22,66.35,38.69,80.98,73.81,14.64,35.13,17.34,73.9,19.87,111.87"/>
    <path class="cls-2" d="m204.31,965.79c-4.74-33.81-1.67-68.58,8.96-101.19"/>
    <path class="cls-2" d="m324.55,965.79c-11.9-31.72-20.05-64.64-24.28-98"/>
    <path class="cls-2" d="m300.48,726.6c1.7,42.54,8.01,84.89,18.8,126.07-8.03,1.16-17.72,6.92-27.98,10.56-19.01,6.74-39.76,6.12-59.86,4.49-13.85-1.12-29.29-3.57-37.97-11.67,1.65-44.2,9.03-88.18,21.89-130.49"/>
    <path class="cls-2" d="m299.02,614.89c-.5,33.3,3.91,66.68,13.05,98.71-9.92,12.45-27.25,14.14-42.56,14.66-12.72.43-25.53.73-38.09-1.33-12.56-2.06-24.97-6.64-35.15-11.3,6.46-40.45,16.62-80.3,30.32-118.9"/>
    <path class="cls-2" d="m317.3,488.99c-9.74,39.17-10.67,80.5-2.72,120.07-9.02,3.87-20.12,1.65-30.73-.58-27.67-5.81-56.64-12.25-77.9-26.83,1.84-17.78,6.09-35.3,12.59-51.95"/>
    <path class="cls-2" d="m316.7,390.97c-5.01,32.8-7.44,65.99-7.24,99.16-20.94-2.53-54.31-5.55-71.88-20.21,1.5-33.34,9.45-66.37,18.3-89.59,20.94,3.69,42.01,6.7,60.82,10.63Z"/>
    <path class="cls-2" d="m307.33,389.16c2.51-19.78,7.62-39.23,15.15-57.69"/>
    <path class="cls-2" d="m259.95,380.04c-.22-26.99,3.81-54.02,11.89-79.77"/>
  </g>
  <g>
    <path class="cls-2" d="m536.52,965.79c0-62.97,51.05-114.01,114.01-114.01s114.01,51.04,114.01,114.01"/>
    <line class="cls-2" x1="509.87" y1="942.85" x2="424.02" y2="923.03"/>
    <line class="cls-2" x1="538.65" y1="877.18" x2="478.56" y2="812.74"/>
    <line class="cls-2" x1="613.41" y1="831.61" x2="581.83" y2="749.36"/>
    <line class="cls-2" x1="798.44" y1="941.71" x2="884.29" y2="921.89"/>
    <line class="cls-2" x1="769.66" y1="876.04" x2="829.75" y2="811.6"/>
    <line class="cls-2" x1="694.91" y1="830.47" x2="726.48" y2="748.21"/>
  </g>
  <g>
    <path class="cls-1" d="m696.43,110.18l-18.77,18.77c-3.27,3.27-8.78,2.37-10.84-1.77l-5.27-10.55c-1.17-2.34-.88-5.15.73-7.2l13.37-17.02c5.67,7.21,12.73,13.27,20.78,17.77Z"/>
    <path class="cls-1" d="m947.5,35.86c-1.77-8.87-5.22-17.13-10.02-24.44h-116.28s.05-.08.08-.12c-4.63-3.34-10.3-5.3-16.44-5.3s-11.81,1.96-16.44,5.3c.03.04.06.08.08.12h-116.28c-4.8,7.31-8.25,15.57-10.02,24.44-.88,4.41-1.34,8.98-1.34,13.65,0,16.19,5.54,31.09,14.81,42.9,5.67,7.21,12.73,13.27,20.78,17.77,10.03,5.63,21.6,8.83,33.91,8.83,26.55,0,49.62-14.89,61.32-36.77,3.39-6.33,5.83-13.25,7.11-20.56.71-3.95,1.07-8.02,1.07-12.17,0-4.67-.46-9.24-1.34-13.65-.38-1.9-.84-3.78-1.37-5.62,2.45-.71,5.04-1.08,7.71-1.08s5.26.37,7.71,1.08c-.54,1.84-.99,3.72-1.37,5.62-.88,4.41-1.34,8.98-1.34,13.65,0,4.15.36,8.22,1.07,12.17,1.28,7.31,3.72,14.23,7.11,20.56,11.69,21.88,34.77,36.77,61.32,36.77,12.31,0,23.88-3.2,33.91-8.83,8.05-4.5,15.11-10.56,20.77-17.77,9.28-11.81,14.82-26.71,14.82-42.9,0-4.67-.46-9.24-1.34-13.65Zm-217.16,60.53c-24.97,0-45.2-20.23-45.2-45.19,0-5.38.94-10.55,2.67-15.34h85.05c1.73,4.79,2.67,9.96,2.67,15.34,0,24.96-20.23,45.19-45.19,45.19Zm103.8-45.19c0-5.38.94-10.55,2.67-15.34h85.05c1.73,4.79,2.67,9.96,2.67,15.34,0,24.96-20.23,45.19-45.19,45.19s-45.2-20.23-45.2-45.19Z"/>
    <path class="cls-1" d="m948.12,116.63l-5.26,10.55c-2.07,4.14-7.58,5.04-10.85,1.77l-18.76-18.77c8.05-4.5,15.11-10.56,20.77-17.77l13.37,17.02c1.62,2.05,1.9,4.86.73,7.2Z"/>
  </g>
  <g>
    <path class="cls-1" d="m883.5,229.72v100.06c0,7.01-5.95,12.55-12.94,12.05l-20.63-1.47v-121.22l20.63-1.47c6.99-.5,12.94,5.04,12.94,12.05Z"/>
    <path class="cls-1" d="m849.93,219.14v121.22l-207.21-14.81c-6.32-.45-11.22-5.71-11.22-12.05v-67.5c0-6.34,4.9-11.6,11.22-12.05l207.21-14.81Z"/>
    <path class="cls-1" d="m631.5,246.82v65.86c-.48.05-.96.07-1.45.07h-21.75c-8.77,0-15.87-7.11-15.87-15.88v-34.24c0-8.77,7.1-15.88,15.87-15.88h21.75c.49,0,.97.02,1.45.07Z"/>
    <path class="cls-1" d="m778.15,246.62c1.81,7.29-9.41,12.55-8.59,20.02.6,5.45,7.42,8.7,7.78,14.17.42,6.43-8.31,10.77-7.75,17.2.28,3.18,2.79,5.63,4.96,7.96s4.29,5.36,3.54,8.46"/>
    <path class="cls-1" d="m802.15,246.75c1.81,7.29-9.41,12.55-8.59,20.02.6,5.45,7.42,8.7,7.78,14.17.42,6.43-8.31,10.77-7.75,17.2.28,3.18,2.79,5.63,4.96,7.96s4.29,5.36,3.54,8.46"/>
    <path class="cls-1" d="m826.15,246.62c1.81,7.29-9.41,12.55-8.59,20.02.6,5.45,7.42,8.7,7.78,14.17.42,6.43-8.31,10.77-7.75,17.2.28,3.18,2.79,5.63,4.96,7.96s4.29,5.36,3.54,8.46"/>
  </g>
  <g>
    <path class="cls-1" d="m941.97,428.57c0,75.75-61.39,137.14-137.14,137.14s-137.14-61.39-137.14-137.14h274.28Z"/>
    <path class="cls-1" d="m741.4,451.26c-2.78,4.25-5.54,8.57-7.36,13.32-1.82,4.74-2.66,10-1.5,14.94.42,1.78,1.13,3.55,2.39,4.88,2.03,2.13,5.13,2.8,8.05,3.14,1.47.17,2.99.28,4.4-.15,1.06-.33,2.02-.95,2.86-1.67,4.27-3.67,5.62-9.9,4.65-15.44-.98-5.54-3.94-14.06-7.17-18.67-3.23-4.61-3.24-5.09-6.33-.35Z"/>
    <path class="cls-1" d="m803.14,476.22c-2.78,4.25-5.54,8.57-7.36,13.32-1.82,4.74-2.66,10-1.5,14.94.42,1.78,1.13,3.55,2.39,4.88,2.03,2.13,5.13,2.8,8.05,3.14,1.47.17,2.99.28,4.4-.15,1.06-.33,2.02-.95,2.86-1.67,4.27-3.67,5.62-9.9,4.65-15.44-.98-5.54-3.94-14.06-7.17-18.67-3.23-4.61-3.24-5.09-6.33-.35Z"/>
    <path class="cls-1" d="m864.87,451.26c-2.78,4.25-5.54,8.57-7.36,13.32-1.82,4.74-2.66,10-1.5,14.94.42,1.78,1.13,3.55,2.39,4.88,2.03,2.13,5.13,2.8,8.05,3.14,1.47.17,2.99.28,4.4-.15,1.06-.33,2.02-.95,2.86-1.67,4.27-3.67,5.62-9.9,4.65-15.44-.98-5.54-3.94-14.06-7.17-18.67-3.23-4.61-3.24-5.09-6.33-.35Z"/>
    <path class="cls-1" d="m915.72,428.57c0,61.24-49.65,110.89-110.89,110.89s-110.87-49.65-110.87-110.89h221.76Z"/>
  </g>
</svg>