<?xml version="1.0" encoding="utf-8"?>
<!-- Generator: Adobe Adobe Illustrator 24.2.0, SVG Export Plug-In . SVG Version: 6.00 Build 0)  -->
<svg version="1.1" id="Layer_3" xmlns="http://www.w3.org/2000/svg" xmlns:xlink="http://www.w3.org/1999/xlink" x="0px" y="0px"
	 width="1024px" height="1024px" viewBox="0 0 1024 1024" style="enable-background:new 0 0 1024 1024;" xml:space="preserve">
<style type="text/css">
	.st0{fill:none;stroke:#000000;stroke-width:16;stroke-linecap:round;stroke-linejoin:round;stroke-miterlimit:10;}
	.st1{fill:none;stroke:#000000;stroke-width:16;stroke-miterlimit:10;}
</style>
<g>
	<path class="st0" d="M366.61,742.03c16.91-4.4,35.9,0.29,47.84,11.78c-0.39-11.66,5.01-22.98,12.87-31.6s18.03-14.8,28.49-19.94"/>
	<path class="st0" d="M427.16,672.23c14.83-6.8,32.9-6.01,47.08,2.06c1.93-22.26,19.3-42.32,41.06-47.41"/>
</g>
<g>
	<g>
		<path d="M251.84,334.96c1.29,0,2.57,0.02,3.84,0.07c-24.09,10.81-43.58,27.64-57.97,41.23c-27.23,25.71-48.03,51.5-63.52,78.8
			c0.99-11.22,3.15-22.16,6.47-32.58c10.87-34.08,35.19-62.94,65.07-77.18C219.9,338.54,235.85,334.96,251.84,334.96 M251.84,318.96
			c-18.23,0-36.54,4.04-52.99,11.89c-35.17,16.77-61.6,49.64-73.43,86.76c-11.83,37.12-9.65,78.03,2.45,114.12
			c-0.91-23.46,7.75-46.34,19.16-66.86c16.05-28.84,37.66-54.32,61.67-76.98c16.54-15.62,34.57-30.16,55.48-39.12
			c20.91-8.96,45.13-11.89,46.73-13.75C293.22,324.2,272.58,318.96,251.84,318.96L251.84,318.96z"/>
	</g>
	<g>
		<path d="M167.91,253.23c2.11,0,4.25,0.07,6.35,0.21c31.82,2.1,58.31,18.08,74.92,31.12c8.9,6.99,17.59,15.1,26.31,24.61
			c-6.47-0.56-13.38-0.85-20.71-0.85c-4.89,0-9.93,0.14-14.98,0.4c-49.15,2.6-91.95,13.67-127.22,32.91
			c-17.18,9.37-32.64,20.79-46.08,34.01c4.85-27.74,11.36-53.94,24.45-77.55c4.18-7.54,8.43-13.65,12.99-18.67
			C118.83,263.03,142.75,253.23,167.91,253.23 M167.91,237.23c-28.26,0-56.88,10.57-75.82,31.44c-5.93,6.54-10.85,13.95-15.14,21.67
			c-26.31,47.44-27.9,104.05-38.2,156.88c13.72-39.47,44.8-71.52,81.49-91.53c36.69-20.01,78.67-28.77,120.4-30.98
			c4.66-0.25,9.4-0.38,14.14-0.38c26.11,0,52.29,4.07,65.39,15.89c-17.44-25.2-37-49.31-61.11-68.24
			c-24.11-18.92-53.16-32.48-83.75-34.5C172.86,237.31,170.39,237.23,167.91,237.23L167.91,237.23z"/>
	</g>
	<g>
		<path d="M172.25,104.64c5.05,0,10.01,0.5,14.75,1.5c22.51,4.73,44.07,21.6,59.14,46.27c14.94,24.46,22.68,54.01,28.76,79.79
			c0.73,3.08,1.44,6.16,2.15,9.26c-3.32-4.19-6.76-8.3-10.31-12.33c-25.52-29.03-55.68-52.86-89.62-70.82
			c-14.8-7.83-27.45-12.99-39.82-16.25c-11.06-2.91-22.56-4.39-34.2-4.39c-2.12,0-4.24,0.05-6.36,0.15
			c6.34-5.58,13.09-10.8,20.26-15.41C134.87,110.96,154.49,104.64,172.25,104.64 M172.25,88.64c-22.41,0-44.85,8.1-63.89,20.32
			c-24.17,15.51-43.67,37.19-60.54,58.07c16.99-8.82,36.14-13.34,55.28-13.35c10.15,0,20.3,1.27,30.12,3.86
			c12.71,3.35,24.79,8.77,36.41,14.92c64.16,33.94,115.58,91.35,141.48,162c-5.56-35.55-12.39-70.91-20.65-105.93
			c-6.9-29.28-14.99-58.79-30.68-84.46c-15.68-25.67-40.06-47.39-69.5-53.58C184.32,89.23,178.28,88.64,172.25,88.64L172.25,88.64z"
			/>
	</g>
	<g>
		<path d="M418.5,190.1L418.5,190.1c4.63,0,8.92,0.55,12.75,1.63c9.54,2.7,18.36,9.3,24.98,14.75
			c19.55,16.11,35.98,36.03,48.3,58.21c-2.45-1.06-4.95-2.06-7.47-3.02c-20.35-7.71-42.21-11.78-63.2-11.78c0,0,0,0,0,0
			c-1.46,0-2.93,0.02-4.38,0.06c-22.23,0.59-44.93,5.88-65.66,15.27c-16.44,7.46-31.75,17.55-44.91,29.56
			c2.59-17.87,8.05-34.69,16.2-49.46c16.52-29.94,45.12-50.88,74.63-54.65C412.78,190.29,415.73,190.1,418.5,190.1 M418.5,174.1
			c-3.6,0-7.21,0.26-10.78,0.71c-36.71,4.68-68.74,30.38-86.62,62.79c-17.88,32.4-22.85,70.71-18.38,106.2
			c3.57-10.73,10.43-20.08,18.1-28.38c27.83-30.12,68.09-48.38,109.09-49.47c1.32-0.04,2.64-0.05,3.95-0.05
			c39.67,0,79.05,15.8,104.16,38.54c-11.88-42.91-37.25-81.99-71.61-110.3c-9.22-7.6-19.31-14.55-30.8-17.8
			C430.05,174.76,424.28,174.1,418.5,174.1L418.5,174.1z"/>
	</g>
	<g>
		<path d="M352.62,320.39c4.76,0,9.3,0.63,13.52,1.87c13.04,3.84,25.48,14.54,34.13,29.38c8.92,15.29,13.46,33.09,17.04,50.05
			c1.92,9.13,3.62,18.31,5.08,27.54c-13.17-28.3-29.58-55.75-52.42-78.63c-12.44-12.46-24.73-21.26-37.44-26.77
			C339.28,321.57,346.16,320.39,352.62,320.39 M352.62,304.39c-10.12,0-20.3,2.18-29.74,5.91c-15.12,5.98-28.5,15.72-43.88,27.73
			c6.8-3.43,14.34-4.98,21.96-4.98c7.22,0,14.51,1.39,21.28,3.88c13.92,5.11,25.92,14.47,36.4,24.97
			c37.43,37.49,56.76,88.88,75.06,138.59c4.45,12.08,8.93,24.32,11.38,25.31c0.78-42.74-3.3-85.57-12.11-127.41
			c-4-18.99-9.09-38.05-18.87-54.81c-9.78-16.76-24.82-31.19-43.44-36.66C364.79,305.19,358.72,304.39,352.62,304.39L352.62,304.39z
			"/>
	</g>
	<path class="st0" d="M306.45,337.31c0,0-0.6-2.14,0.06-3.49c23.63,6.12,44.13,21.76,58.93,41.18
		c14.79,19.42,24.23,42.47,30.56,66.05c13.76,51.3,12.34,109.26-16.63,153.77"/>
	<path class="st0" d="M380.77,596.33c4.45-47.17,1.45-95.23-10.93-140.96c-12.38-45.74-34.29-89.11-65.04-127.42
		c-46.1,20.42-81.83,62.88-94.07,111.79c-12.24,48.91-0.71,103.2,30.34,142.92c9.52,12.17,21.32,23.37,33.04,26.45
		c-43.58-72.57-44.48-168.78-2.27-242.16c8.61-14.97,19.39-29.49,34.63-37.63"/>
	<path class="st0" d="M276.49,187.34c5.11-33.18,29.97-60.27,58.09-78.62c16.83-10.98,35.48-19.71,55.36-22.64
		c19.88-2.93,41.11,0.34,57.75,11.61"/>
	<path class="st0" d="M373.86,180.54c-2.18-10.35,0.41-21.27,5.27-30.67c4.86-9.4,11.86-17.49,19.01-25.29
		c6.74-7.35,13.75-14.6,22.14-20s18.34-8.87,28.27-7.95"/>
	<path class="st0" d="M188.5,176.19c-19.08-12.55-44.82-13.72-67.79-9.02c-44.15,9.04-82.44,39.03-99.21,83.46
		c9.15-17.82,30.39-28.96,51.92-30.73c21.53-1.77,43.09,4.77,61.65,14.85c4.5,2.44,9.43,6.12,8.81,10.85"/>
	<path class="st0" d="M410.85,347.8c45.03,15.58,81.28,54.46,93.68,100.47c-0.02-0.72-0.04-1.45-0.06-2.17"/>
	<path class="st0" d="M402.97,263.98c37.36,7.22,66.35,38.69,80.98,73.81c14.64,35.13,17.34,73.9,19.87,111.87"/>
	<path class="st0" d="M219.81,1017.35c-4.74-33.81-1.67-68.58,8.96-101.19"/>
	<path class="st0" d="M340.05,1017.35c-11.9-31.72-20.05-64.64-24.28-98"/>
	<path class="st0" d="M315.98,778.16c1.7,42.54,8.01,84.89,18.8,126.07c-8.03,1.16-17.72,6.92-27.98,10.56
		c-19.01,6.74-39.76,6.12-59.86,4.49c-13.85-1.12-29.29-3.57-37.97-11.67c1.65-44.2,9.03-88.18,21.89-130.49"/>
	<path class="st0" d="M314.52,666.45c-0.5,33.3,3.91,66.68,13.05,98.71c-9.92,12.45-27.25,14.14-42.56,14.66
		c-12.72,0.43-25.53,0.73-38.09-1.33c-12.56-2.06-24.97-6.64-35.15-11.3c6.46-40.45,16.62-80.3,30.32-118.9"/>
	<path class="st0" d="M332.8,540.55c-9.74,39.17-10.67,80.5-2.72,120.07c-9.02,3.87-20.12,1.65-30.73-0.58
		c-27.67-5.81-56.64-12.25-77.9-26.83c1.84-17.78,6.09-35.3,12.59-51.95"/>
	<path class="st0" d="M332.2,442.53c-5.01,32.8-7.44,65.99-7.24,99.16c-20.94-2.53-54.31-5.55-71.88-20.21
		c1.5-33.34,9.45-66.37,18.3-89.59C292.33,435.59,313.39,438.59,332.2,442.53z"/>
	<path class="st0" d="M322.83,440.72c2.51-19.78,7.62-39.23,15.15-57.69"/>
	<path class="st0" d="M275.45,431.6c-0.22-26.99,3.81-54.02,11.89-79.77"/>
</g>
<g>
	<path class="st0" d="M552.02,1017.35c0-62.97,51.05-114.01,114.01-114.01c62.97,0,114.01,51.04,114.01,114.01"/>
	<line class="st0" x1="525.37" y1="994.41" x2="439.52" y2="974.59"/>
	<line class="st0" x1="554.15" y1="928.74" x2="494.06" y2="864.3"/>
	<line class="st0" x1="628.91" y1="883.17" x2="597.33" y2="800.92"/>
	<line class="st0" x1="813.94" y1="993.27" x2="899.79" y2="973.45"/>
	<line class="st0" x1="785.16" y1="927.6" x2="845.25" y2="863.16"/>
	<line class="st0" x1="710.41" y1="882.03" x2="741.98" y2="799.77"/>
</g>
<g>
	<path class="st1" d="M669.02,168.83l-21.96,21.96c-3.83,3.83-10.27,2.77-12.68-2.07l-6.17-12.34c-1.37-2.74-1.03-6.03,0.85-8.42
		l15.64-19.91C651.34,156.48,659.6,163.57,669.02,168.83z"/>
	<path class="st1" d="M962.77,81.88c-2.07-10.38-6.11-20.04-11.72-28.59H815c0.02-0.05,0.06-0.09,0.09-0.14
		c-5.42-3.91-12.05-6.2-19.23-6.2s-13.82,2.29-19.23,6.2c0.04,0.05,0.07,0.09,0.09,0.14H640.67c-5.62,8.55-9.65,18.22-11.72,28.59
		c-1.03,5.16-1.57,10.51-1.57,15.97c0,18.94,6.48,36.37,17.33,50.19c6.63,8.44,14.89,15.53,24.31,20.79
		c11.73,6.59,25.27,10.33,39.67,10.33c31.06,0,58.05-17.42,71.74-43.02c3.97-7.41,6.82-15.5,8.32-24.05
		c0.83-4.62,1.25-9.38,1.25-14.24c0-5.46-0.54-10.81-1.57-15.97c-0.44-2.22-0.98-4.42-1.6-6.58c2.87-0.83,5.9-1.26,9.02-1.26
		c3.12,0,6.15,0.43,9.02,1.26c-0.63,2.15-1.16,4.35-1.6,6.58c-1.03,5.16-1.57,10.51-1.57,15.97c0,4.86,0.42,9.62,1.25,14.24
		c1.5,8.55,4.35,16.65,8.32,24.05c13.68,25.6,40.68,43.02,71.74,43.02c14.4,0,27.94-3.74,39.67-10.33
		c9.42-5.26,17.68-12.35,24.3-20.79c10.86-13.82,17.34-31.25,17.34-50.19C964.34,92.38,963.8,87.04,962.77,81.88z M708.7,152.7
		c-29.21,0-52.88-23.67-52.88-52.87c0-6.29,1.1-12.34,3.12-17.95h99.51c2.02,5.6,3.12,11.65,3.12,17.95
		C761.57,129.03,737.9,152.7,708.7,152.7z M830.14,99.83c0-6.29,1.1-12.34,3.12-17.95h99.51c2.02,5.6,3.12,11.65,3.12,17.95
		c0,29.2-23.67,52.87-52.87,52.87C853.81,152.7,830.14,129.03,830.14,99.83z"/>
	<path class="st1" d="M963.49,176.38l-6.15,12.34c-2.42,4.84-8.87,5.9-12.69,2.07l-21.95-21.96c9.42-5.26,17.68-12.35,24.3-20.79
		l15.64,19.91C964.54,170.35,964.86,173.64,963.49,176.38z"/>
</g>
<g>
	<path class="st1" d="M899,281.28v100.06c0,7.01-5.95,12.55-12.94,12.05l-20.63-1.47V270.7l20.63-1.47
		C893.05,268.73,899,274.27,899,281.28z"/>
	<path class="st1" d="M865.43,270.7v121.22l-207.21-14.81c-6.32-0.45-11.22-5.71-11.22-12.05v-67.5c0-6.34,4.9-11.6,11.22-12.05
		L865.43,270.7z"/>
	<path class="st1" d="M647,298.38v65.86c-0.48,0.05-0.96,0.07-1.45,0.07H623.8c-8.77,0-15.87-7.11-15.87-15.88v-34.24
		c0-8.77,7.1-15.88,15.87-15.88h21.75C646.04,298.31,646.52,298.33,647,298.38z"/>
	<path class="st1" d="M793.65,298.18c1.81,7.29-9.41,12.55-8.59,20.02c0.6,5.45,7.42,8.7,7.78,14.17c0.42,6.43-8.31,10.77-7.75,17.2
		c0.28,3.18,2.79,5.63,4.96,7.96c2.18,2.33,4.29,5.36,3.54,8.46"/>
	<path class="st1" d="M817.65,298.31c1.81,7.29-9.41,12.55-8.59,20.02c0.6,5.45,7.42,8.7,7.78,14.17c0.42,6.43-8.31,10.77-7.75,17.2
		c0.28,3.18,2.79,5.63,4.96,7.96s4.29,5.36,3.54,8.46"/>
	<path class="st1" d="M841.65,298.18c1.81,7.29-9.41,12.55-8.59,20.02c0.6,5.45,7.42,8.7,7.78,14.17c0.42,6.43-8.31,10.77-7.75,17.2
		c0.28,3.18,2.79,5.63,4.96,7.96c2.18,2.33,4.29,5.36,3.54,8.46"/>
</g>
<g>
	<path class="st1" d="M957.47,480.13c0,75.75-61.39,137.14-137.14,137.14c-75.73,0-137.14-61.39-137.14-137.14H957.47z"/>
	<path class="st1" d="M756.9,502.82c-2.78,4.25-5.54,8.57-7.36,13.32c-1.82,4.74-2.66,10-1.5,14.94c0.42,1.78,1.13,3.55,2.39,4.88
		c2.03,2.13,5.13,2.8,8.05,3.14c1.47,0.17,2.99,0.28,4.4-0.15c1.06-0.33,2.02-0.95,2.86-1.67c4.27-3.67,5.62-9.9,4.65-15.44
		c-0.98-5.54-3.94-14.06-7.17-18.67C760.01,498.56,760,498.07,756.9,502.82z"/>
	<path class="st1" d="M818.64,527.78c-2.78,4.25-5.54,8.57-7.36,13.32c-1.82,4.74-2.66,10-1.5,14.94c0.42,1.78,1.13,3.55,2.39,4.88
		c2.03,2.13,5.13,2.8,8.05,3.14c1.47,0.17,2.99,0.28,4.4-0.15c1.06-0.33,2.02-0.95,2.86-1.67c4.27-3.67,5.62-9.9,4.65-15.44
		c-0.98-5.54-3.94-14.06-7.17-18.67C821.75,523.52,821.74,523.04,818.64,527.78z"/>
	<path class="st1" d="M880.38,502.82c-2.78,4.25-5.54,8.57-7.36,13.32c-1.82,4.74-2.66,10-1.5,14.94c0.42,1.78,1.13,3.55,2.39,4.88
		c2.03,2.13,5.13,2.8,8.05,3.14c1.47,0.17,2.99,0.28,4.4-0.15c1.06-0.33,2.02-0.95,2.86-1.67c4.27-3.67,5.62-9.9,4.65-15.44
		c-0.98-5.54-3.94-14.06-7.17-18.67C883.48,498.56,883.47,498.07,880.38,502.82z"/>
	<path class="st1" d="M931.22,480.13c0,61.24-49.65,110.89-110.89,110.89s-110.87-49.65-110.87-110.89H931.22z"/>
</g>
</svg>
