<?xml version="1.0" encoding="utf-8"?>
<!-- Generator: Adobe Adobe Illustrator 24.2.0, SVG Export Plug-In . SVG Version: 6.00 Build 0)  -->
<svg version="1.1" id="Layer_3" xmlns="http://www.w3.org/2000/svg" xmlns:xlink="http://www.w3.org/1999/xlink" x="0px" y="0px"
	 width="1024px" height="1024px" viewBox="0 0 1024 1024" style="enable-background:new 0 0 1024 1024;" xml:space="preserve">
<style type="text/css">
	.st0{fill:none;stroke:#000000;stroke-width:16;stroke-miterlimit:10;}
</style>
<path class="st0" d="M844.96,567.7h46.28h44.5c7.6,0,14.47-3.08,19.45-8.05c4.97-4.98,8.05-11.85,8.05-19.45
	c0-15.19-12.31-27.5-27.5-27.5h-90.78"/>
<path class="st0" d="M844.96,565.2v2.5v43.5h30.02c8.98,0,16.26-7.28,16.26-16.26V567.7"/>
<path class="st0" d="M844.96,512.7v332.11c0,46.33-37.56,83.89-83.89,83.89H262.85c-46.33,0-83.89-37.56-83.89-83.89V512.7H844.96z"
	/>
<path class="st0" d="M178.96,512.7v55H88.26c-7.59,0-14.47-3.08-19.45-8.05c-4.97-4.98-8.05-11.85-8.05-19.45
	c0-15.19,12.31-27.5,27.5-27.5H178.96z"/>
<path class="st0" d="M132.75,567.7v27.24c0,8.98,7.28,16.26,16.26,16.26h29.95"/>
<path class="st0" d="M793.34,150.61L184.22,464.44c-25.8-50.08-6.12-111.59,43.96-137.39l134.04-69.06l159.69-82.28l134.04-69.06
	C706.03,80.85,767.54,100.53,793.34,150.61z"/>
<path class="st0" d="M521.91,175.71l-159.69,82.28l-21.02-40.8c-10.11-19.62-2.39-43.73,17.23-53.84l88.62-45.66
	c19.62-10.11,43.73-2.4,53.84,17.23L521.91,175.71z"/>
<path class="st0" d="M694.53,267.42c12.78,8.17,14.52,26.52,10.49,41.15s-12.31,27.98-14.92,42.93
	c-2.66,15.22,1.03,31.45,10.01,44.03"/>
<path class="st0" d="M751.86,241.42c18.25,11.67,20.73,37.86,14.98,58.74s-17.58,39.94-21.3,61.28c-3.8,21.73,1.47,44.9,14.28,62.85
	"/>
<path class="st0" d="M815.99,225.19c21.88,13.99,24.84,45.38,17.96,70.42s-21.07,47.87-25.54,73.45
	c-4.55,26.05,1.76,53.82,17.12,75.34"/>
</svg>
