<?xml version="1.0" encoding="utf-8"?>
<!-- Generator: Adobe Adobe Illustrator 24.2.0, SVG Export Plug-In . SVG Version: 6.00 Build 0)  -->
<svg version="1.1" id="Layer_1" xmlns="http://www.w3.org/2000/svg" xmlns:xlink="http://www.w3.org/1999/xlink" x="0px" y="0px"
	 width="1024px" height="1024px" viewBox="0 0 1024 1024" style="enable-background:new 0 0 1024 1024;" xml:space="preserve">
<style type="text/css">
	.st0{fill:#7F4D39;}
</style>
<g>
	<path class="st0" d="M752.8,930.2c6.2,20.2-2,42.5-18,57.7c-5.1,4.9-11.5,7.8-19.1,10.3c-5.8,1.8-11.7,3.2-17.4,4.4
		c-25.1,5.2-76.4,8.3-102,9c-71.5,2.2-178.9,4.7-231.7-18.9c-10.2-4.5-19.8-10.7-29.1-17.7c-0.1-0.1,0,0-0.1-0.1
		c-4.1-3.3-6.3-6.3-8.4-10.1c-2.8-5.1-4.4-10.7-5.6-16.3c-4.9-21.9-6-37.1-1-66.6c0-0.3,0.2-1,0.2-1h0c4.7-21.6,61-298.5,67.4-320.9
		c1.9-6.3,16.9-69.2,19.5-69.2c-89.3,0-180.2-5.6-269.2-15.5c-29-3.3-58.4-7.9-85.2-21.5c-1.6-0.8-3.2-1.7-4.8-2.5
		c-13.8-8-27-20.1-30.3-37.6c-3.5-17.1,3.3-34.6,11.2-49.5C56.7,311.7,136.8,243.5,175.4,203c29-30.2,113.6-94,133.6-109.3
		c48.4-37.1,134.4-80.2,199.5-82.5c109.7-4,304.5,120.8,418.2,230.2h0.1c65.9,63.3,80.2,121.5,80.2,159.1
		c0,25.5-17.9,47.7-43.5,53.9c-79.6,19.5-271.6,30-355.3,33.6C631.1,559.2,703.5,808.2,732,876"/>
</g>
</svg>
