<?xml version="1.0" encoding="utf-8"?>
<!-- Generator: Adobe Adobe Illustrator 24.2.0, SVG Export Plug-In . SVG Version: 6.00 Build 0)  -->
<svg version="1.1" id="Layer_2" xmlns="http://www.w3.org/2000/svg" xmlns:xlink="http://www.w3.org/1999/xlink" x="0px" y="0px"
	 width="1024px" height="1024px" viewBox="0 0 1024 1024" style="enable-background:new 0 0 1024 1024;" xml:space="preserve">
<style type="text/css">
	.st0{fill:none;stroke:#000000;stroke-width:16;stroke-miterlimit:10;}
</style>
<path class="st0" d="M743.72,452.2c-0.36,4.49-2.28,8.75-5.35,11.94c-4.85,9.04-11.16,17.15-18.59,23.98
	c-15.06,13.86-34.73,22.49-56.36,23.18c-0.91,0.03-1.85,0.05-2.77,0.05c-31.12,0-58.49-16.48-74.33-41.44
	c-15.83,24.95-43.21,41.44-74.33,41.44s-58.49-16.48-74.32-41.44c-15.84,24.95-43.23,41.44-74.35,41.44c-0.92,0-1.83-0.01-2.74-0.05
	c-21.62-0.67-41.3-9.32-56.36-23.18c-7.43-6.82-13.72-14.92-18.59-23.96c-3.08-3.19-4.99-7.44-5.35-11.95
	c-0.33-4.07,0.6-8.31,3.13-12.18l72.71-111.08l2.81-4.31c10.32,5.97,22.3,9.36,35.08,9.36c4.83,0,9.54-0.49,14.1-1.42
	c18.74-3.79,34.78-15.05,44.9-30.52c6.79,10.39,16.24,18.88,27.4,24.48c9.49,4.78,20.22,7.47,31.57,7.47
	c11.36,0,22.08-2.69,31.58-7.47c11.16-5.6,20.62-14.09,27.4-24.48c10.11,15.48,26.15,26.73,44.9,30.52
	c4.54,0.93,9.26,1.42,14.09,1.42c12.79,0,24.77-3.39,35.09-9.36l2.81,4.31l72.71,111.08C743.11,443.88,744.05,448.13,743.72,452.2z"
	/>
<path class="st0" d="M806.9,627.78c-0.46,5.6-2.9,10.91-6.81,14.9c-7.32,13.38-17.26,25.11-29.09,34.49
	c-19.21,15.27-43.45,24.37-69.81,24.37c-39.6,0-74.44-20.56-94.6-51.69c-20.15,31.13-55,51.69-94.6,51.69s-74.44-20.56-94.59-51.69
	c-20.16,31.13-55.02,51.69-94.62,51.69c-26.34,0-50.58-9.1-69.8-24.36c-11.82-9.39-21.74-21.12-29.08-34.49
	c-3.91-3.97-6.36-9.28-6.81-14.91c-0.42-5.06,0.76-10.36,3.98-15.18l83.16-124.49c15.06,13.86,34.74,22.51,56.36,23.18
	c0.91,0.03,1.82,0.05,2.74,0.05c31.12,0,58.51-16.48,74.35-41.44c15.83,24.95,43.2,41.44,74.32,41.44s58.5-16.48,74.33-41.44
	c15.84,24.95,43.21,41.44,74.33,41.44c0.92,0,1.86-0.01,2.77-0.05c21.63-0.68,41.3-9.32,56.36-23.18l83.16,124.49
	C806.14,617.42,807.33,622.72,806.9,627.78z"/>
<path class="st0" d="M695.88,288.41c-0.28,3.46-1.81,6.74-4.25,9.2c-6.22,11.25-15.43,20.63-26.57,27.03
	c-10.32,5.97-22.3,9.36-35.09,9.36c-4.83,0-9.54-0.49-14.09-1.42c-18.75-3.79-34.78-15.05-44.9-30.52
	c-6.79,10.39-16.24,18.87-27.4,24.48c-9.5,4.78-20.23,7.47-31.58,7.47c-11.36,0-22.08-2.69-31.57-7.47
	c-11.16-5.59-20.62-14.09-27.4-24.48c-10.11,15.48-26.16,26.73-44.9,30.52c-4.56,0.93-9.27,1.42-14.1,1.42
	c-12.78,0-24.76-3.39-35.08-9.36c-11.13-6.4-20.34-15.76-26.57-27.02c-2.44-2.46-3.96-5.74-4.25-9.21
	c-0.26-3.13,0.48-6.41,2.48-9.39l57.7-85.64l111.5-165.49c5.83-8.66,18.55-8.66,24.39,0l111.5,165.49l57.7,85.64
	C695.4,281.99,696.14,285.27,695.88,288.41z"/>
<path class="st0" d="M842.2,797.59c-0.5,6.46-3.25,12.57-7.62,17.16c-21.54,40.48-63.06,67.88-110.74,67.88
	c-44.34,0-83.35-23.71-105.92-59.59c-8.85,14.09-20.25,26.3-33.51,35.92c-20.51,14.92-45.48,23.67-72.41,23.67
	c-29.24,0-56.15-10.31-77.55-27.6c-11.07-8.95-20.67-19.76-28.36-31.99c-22.57,35.88-61.61,59.59-105.95,59.59
	c-47.65,0-89.16-27.38-110.72-67.86c-4.37-4.59-7.12-10.71-7.62-17.19c-0.48-5.84,0.85-11.97,4.45-17.51l66.73-102.9
	c19.21,15.26,43.45,24.36,69.8,24.36c39.6,0,74.47-20.56,94.62-51.69c20.15,31.13,54.99,51.69,94.59,51.69s74.45-20.56,94.6-51.69
	c20.16,31.13,55,51.69,94.6,51.69c26.36,0,50.59-9.1,69.81-24.37l66.74,102.92C841.35,785.62,842.68,791.75,842.2,797.59z"/>
<path class="st0" d="M580.34,1002.6H443.66c-15.27,0-26.95-13.61-24.62-28.7l17.46-117.24c21.4,17.29,49.14,25.97,78.38,25.97
	c26.94,0,50.95-10.18,71.47-25.1l18.63,116.36C607.29,988.99,595.61,1002.6,580.34,1002.6z"/>
</svg>
