<?xml version="1.0" encoding="utf-8"?>
<!-- Generator: Adobe Adobe Illustrator 24.2.0, SVG Export Plug-In . SVG Version: 6.00 Build 0)  -->
<svg version="1.1" id="Layer_3" xmlns="http://www.w3.org/2000/svg" xmlns:xlink="http://www.w3.org/1999/xlink" x="0px" y="0px"
	 width="1024px" height="1024px" viewBox="0 0 1024 1024" style="enable-background:new 0 0 1024 1024;" xml:space="preserve">
<style type="text/css">
	.st0{fill:none;stroke:#000000;stroke-width:16;stroke-miterlimit:10;}
</style>
<g id="Layer_2">
</g>
<path class="st0" d="M697.23,528.58l237.57,237.57c9.16,9.16,9.16,24,0,33.16L799.3,934.79c-9.16,9.16-24,9.16-33.16,0
	L528.58,697.23c-9.16-9.16-24-9.16-33.16,0L257.85,934.79c-9.16,9.16-24,9.16-33.16,0L89.21,799.3c-9.16-9.16-9.16-24,0-33.16
	l237.57-237.57c9.16-9.16,9.16-24,0-33.16L89.21,257.85c-9.16-9.16-9.16-24,0-33.16L224.7,89.21c9.16-9.16,24-9.16,33.16,0
	l237.57,237.57c9.16,9.16,24,9.16,33.16,0L766.15,89.21c9.16-9.16,24-9.16,33.16,0L934.79,224.7c9.16,9.16,9.16,24,0,33.16
	L697.23,495.42C688.07,504.58,688.07,519.42,697.23,528.58z"/>
</svg>
