<?xml version="1.0" encoding="UTF-8"?>
<svg id="Layer_3" data-name="Layer 3" xmlns="http://www.w3.org/2000/svg" viewBox="0 0 871.32 871.32">
  <defs>
    <style>
      .cls-1 {
        fill: none;
        stroke: #000;
        stroke-miterlimit: 10;
        stroke-width: 12px;
      }
    </style>
  </defs>
  <path class="cls-1" d="m620.89,452.24l237.57,237.57c9.16,9.16,9.16,24,0,33.16l-135.49,135.49c-9.16,9.16-24,9.16-33.16,0l-237.57-237.57c-9.16-9.16-24-9.16-33.16,0l-237.57,237.57c-9.16,9.16-24,9.16-33.16,0L12.87,722.97c-9.16-9.16-9.16-24,0-33.16l237.57-237.57c9.16-9.16,9.16-24,0-33.16L12.87,181.51c-9.16-9.16-9.16-24,0-33.16L148.36,12.87c9.16-9.16,24-9.16,33.16,0l237.57,237.57c9.16,9.16,24,9.16,33.16,0L689.81,12.87c9.16-9.16,24-9.16,33.16,0l135.49,135.49c9.16,9.16,9.16,24,0,33.16l-237.57,237.57c-9.16,9.16-9.16,24,0,33.16Z"/>
</svg>