<?xml version="1.0" encoding="utf-8"?>
<!-- Generator: Adobe Adobe Illustrator 24.2.0, SVG Export Plug-In . SVG Version: 6.00 Build 0)  -->
<svg version="1.1" id="Layer_1" xmlns="http://www.w3.org/2000/svg" xmlns:xlink="http://www.w3.org/1999/xlink" x="0px" y="0px"
	 width="3300px" height="2200px" viewBox="0 0 3300 2200" style="enable-background:new 0 0 3300 2200;" xml:space="preserve">
<style type="text/css">
	.st0{fill:#FFFFFF;}
	.st1{fill:none;stroke:#000000;stroke-width:0.5;}
	.st2{font-family:'Helvetica-Bold';}
	.st3{font-size:13px;}
	.st4{font-family:'Helvetica';}
	.st5{fill:none;stroke:#00AEEF;stroke-width:0.5;}
	.st6{fill:#27AAE1;}
	.st7{fill:none;stroke:#27AAE1;stroke-width:0.5;}
</style>
<g id="Notes">
	<rect id="artboard" x="-0.5" class="st0" width="3300" height="2200"/>
	<line class="st1" x1="262.5" y1="292" x2="3035.5" y2="292"/>
	<text transform="matrix(1 0 0 1 250.6189 338.4559)" class="st2 st3">Weight/Scale Variations</text>
	<text transform="matrix(1 0 0 1 521.6822 338.4559)" class="st4 st3">Ultralight</text>
	<text transform="matrix(1 0 0 1 831.3964 338.4559)" class="st4 st3">Thin</text>
	<text transform="matrix(1 0 0 1 1126.6539 338.4559)" class="st4 st3">Light</text>
	<text transform="matrix(1 0 0 1 1414.6962 338.4559)" class="st4 st3">Regular</text>
	<text transform="matrix(1 0 0 1 1711.0608 338.4559)" class="st4 st3">Medium</text>
	<text transform="matrix(1 0 0 1 2003.7908 338.4559)" class="st4 st3">Semibold</text>
	<text transform="matrix(1 0 0 1 2314.5894 338.4559)" class="st4 st3">Bold</text>
	<text transform="matrix(1 0 0 1 2605.8848 338.4559)" class="st4 st3">Heavy</text>
	<text transform="matrix(1 0 0 1 2905.1243 338.4559)" class="st4 st3">Black</text>
	<line class="st1" x1="262.5" y1="1903" x2="3035.5" y2="1903"/>
	<g transform="matrix(0.2 0 0 0.2 263 1933)">
		<path d="M43.7,4.2c21.5,0,39.5-17.9,39.5-39.4s-18-39.4-39.5-39.4S4.3-56.7,4.3-35.2S22.3,4.2,43.7,4.2L43.7,4.2z M43.7-3.3
			c-17.7,0-31.9-14.2-31.9-32s14.1-32,31.8-32c17.8,0,32,14.2,32,32S61.5-3.3,43.7-3.3L43.7-3.3z M25.8-35.3c0,2.1,1.5,3.6,3.8,3.6
			h10.5V-21c0,2.2,1.5,3.7,3.6,3.7c2.2,0,3.7-1.5,3.7-3.7v-10.6H58c2.2,0,3.7-1.5,3.7-3.6c0-2.2-1.5-3.7-3.7-3.7H47.4v-10.5
			c0-2.2-1.5-3.8-3.7-3.8c-2.1,0-3.6,1.5-3.6,3.8V-39H29.5C27.3-39,25.8-37.5,25.8-35.3z"/>
	</g>
	<g transform="matrix(0.2 0 0 0.2 281.506 1933)">
		<path d="M56,14.6c27.2,0,49.8-22.6,49.8-49.8S83.2-85,55.9-85C28.7-85,6.1-62.4,6.1-35.2C6.2-8.1,28.8,14.6,56,14.6z M56,6.3
			c-23,0-41.5-18.5-41.5-41.5s18.4-41.5,41.4-41.5s41.6,18.4,41.6,41.4S79.1,6.3,56,6.3L56,6.3z M33.4-35.3c0,2.4,1.7,4,4.2,4H52
			v14.4c0,2.4,1.7,4.2,4.1,4.2c2.4,0,4.2-1.7,4.2-4.2v-14.4h14.2c2.4,0,4.2-1.6,4.2-4s-1.7-4.2-4.2-4.2H60.1v-14.4
			c0-2.5-1.7-4.2-4.2-4.2c-2.4,0-4.1,1.7-4.1,4.2v14.4H37.5C35-39.4,33.4-37.7,33.4-35.3z"/>
	</g>
	<g transform="matrix(0.2 0 0 0.2 304.924 1933)">
		<path d="M72.4,28.3c34.8,0,63.6-28.8,63.6-63.6s-28.9-63.6-63.7-63.6S8.8-70.1,8.8-35.3S37.6,28.3,72.4,28.3L72.4,28.3z
			 M72.4,19.2C42.2,19.2,18-5.1,18-35.3s24.2-54.5,54.4-54.5s54.5,24.3,54.5,54.5C126.8-5.1,102.6,19.2,72.4,19.2L72.4,19.2z
			 M43.5-35.3c0,2.6,1.9,4.4,4.6,4.4h19.7v19.8c0,2.7,1.9,4.6,4.4,4.6c2.7,0,4.5-1.9,4.5-4.6v-19.8h19.8c2.7,0,4.6-1.8,4.6-4.4
			c0-2.7-1.9-4.6-4.6-4.6H76.8v-19.7c0-2.7-1.9-4.6-4.5-4.6s-4.4,1.9-4.4,4.6v19.7H48.1C45.4-39.8,43.5-38,43.5-35.3z"/>
	</g>
	<text transform="matrix(1 0 0 1 250.6189 1969.4561)" class="st2 st3">Design Variations</text>
	<text transform="matrix(1 0 0 1 250.6189 1987.4561)" class="st4 st3">Symbols are supported in up to nine weights and three scales.</text>
	<text transform="matrix(1 0 0 1 250.6189 2005.4561)" class="st4 st3">For optimal layout with text and other symbols, vertically align</text>
	<text transform="matrix(1 0 0 1 250.6189 2023.4561)" class="st4 st3">symbols with the adjacent text.</text>
	<line class="st5" x1="775.5" y1="1919" x2="775.5" y2="1933"/>
	<g transform="matrix(0.2 0 0 0.2 776 1933)">
		<path d="M14.1,0.8c2.6,0,3.9-1,4.8-3.7l6.3-17.2H54l6.3,17.2c0.9,2.7,2.2,3.7,4.7,3.7c2.6,0,4.2-1.6,4.2-4c0-0.8-0.1-1.6-0.5-2.6
			l-22.9-61c-1.1-3-3.1-4.5-6.2-4.5c-3,0-5.1,1.5-6.2,4.4L10.5-5.8C10.1-4.8,10-4,10-3.2C10-0.7,11.5,0.8,14.1,0.8z M27.5-27.6
			l11.9-32.9h0.2l11.9,32.9H27.5z"/>
	</g>
	<line class="st5" x1="792.3" y1="1919" x2="792.3" y2="1933"/>
	<text transform="matrix(1 0 0 1 763.6189 1969.4561)" class="st2 st3">Margins</text>
	<text transform="matrix(1 0 0 1 763.6189 1987.4561)" class="st4 st3">Leading and trailing margins on the left and right side of each symbol</text>
	<text transform="matrix(1 0 0 1 763.6189 2005.4561)" class="st4 st3">can be adjusted by modifying the x-location of the margin guidelines.</text>
	<text transform="matrix(1 0 0 1 763.6189 2023.4561)" class="st4 st3">Modifications are automatically applied proportionally to all</text>
	<text transform="matrix(1 0 0 1 763.6189 2041.4561)" class="st4 st3">scales and weights.</text>
	<g transform="matrix(0.2 0 0 0.2 1289 1933)">
		<path d="M11.7,9.3l8.5,8.5c4.3,4.3,9.2,4.1,13.9-1.1l53.4-58.8L82.7-47L29.6,11.4c-1.8,2-3.4,2.5-5.8,0.1l-5.9-5.8
			c-2.3-2.3-1.8-4,0.2-5.8l57.4-54l-4.9-4.8l-58,54.4C7.8,0.1,7.4,5,11.7,9.3L11.7,9.3z M43.8-81.6c-2.1,2.1-2.2,4.9-1.1,6.9
			c1.2,1.8,3.5,3,6.7,2.1c7.3-1.7,14.9-2,22.1,2.7l-3,7.3c-1.7,4.2-0.8,7.1,1.9,9.8l11.5,11.6c2.4,2.4,4.5,2.5,7.3,2.1l5.3-1
			l3.3,3.4l-0.2,2.8c-0.2,2.5,0.4,4.4,2.9,6.8l3.8,3.7c2.4,2.4,5.5,2.5,7.8,0.2l14.6-14.6c2.3-2.3,2.2-5.3-0.1-7.7l-3.9-3.8
			c-2.4-2.4-4.2-3.2-6.6-3l-2.9,0.2l-3.2-3.2l1.2-5.6c0.6-2.8-0.1-5-3.1-8l-11-10.9C80.4-96.5,58.2-96.1,43.8-81.6L43.8-81.6z
			 M51.3-79.8C63.5-88.7,79.9-87.2,91-76l12.2,12c1.2,1.2,1.4,2.1,1,3.8l-1.6,7.4l7.5,7.4l4.9-0.3c1.3,0,1.7,0,2.6,1l2.9,2.9
			l-12.2,12.2l-2.9-2.9c-1-1-1.1-1.4-1.1-2.7l0.3-4.9l-7.5-7.4l-7.6,1.3c-1.6,0.3-2.3,0.2-3.6-1l-10-10c-1.3-1.2-1.4-2-0.6-3.9
			l4.4-10.4c-7.8-7.3-18-10.4-28.1-7.4C50.9-78.6,50.6-79.2,51.3-79.8L51.3-79.8z"/>
	</g>
	<text transform="matrix(1 0 0 1 1276.6189 1969.4561)" class="st2 st3">Exporting</text>
	<text transform="matrix(1 0 0 1 1276.6189 1987.4561)" class="st4 st3">Symbols should be outlined when exporting to ensure the</text>
	<text transform="matrix(1 0 0 1 1276.6189 2005.4561)" class="st4 st3">design is preserved when submitting to Xcode.</text>
	<text id="template-version" transform="matrix(1 0 0 1 2940.033 1949.4561)" class="st4 st3">Template v.5.0</text>
	<text transform="matrix(1 0 0 1 2853.0764 1967.4561)" class="st4 st3">Requires Xcode 15 or greater</text>
	<text id="descriptive-name" transform="matrix(1 0 0 1 2898.6272 1985.4561)" class="st4 st3">Generated from circle</text>
	<text transform="matrix(1 0 0 1 2889.1882 2003.4561)" class="st4 st3">Typeset at 100.0 points</text>
	<text transform="matrix(1 0 0 1 250.6189 742.456)" class="st4 st3">Small</text>
	<text transform="matrix(1 0 0 1 250.6189 1172.4561)" class="st4 st3">Medium</text>
	<text transform="matrix(1 0 0 1 250.6189 1602.4559)" class="st4 st3">Large</text>
</g>
<g id="Guides">
	<g id="H-reference" transform="matrix(1 0 0 1 339 696)">
		<path class="st6" d="M1,0h2.6l25.7-67.1H30v-3.3h-1.9L1,0z M11.7-24.5H47l-0.8-2.2H12.4L11.7-24.5z M55.1,0h2.6L30.6-70.5h-1.2
			v3.3L55.1,0z"/>
	</g>
	<line id="Baseline-S" class="st7" x1="263" y1="696" x2="3036" y2="696"/>
	<line id="Capline-S" class="st7" x1="263" y1="625.5" x2="3036" y2="625.5"/>
	<g id="H-reference_00000124840260558566241990000017883549261666298033_" transform="matrix(1 0 0 1 339 1126)">
		<path class="st6" d="M1,0h2.6l25.7-67.1H30v-3.3h-1.9L1,0z M11.7-24.5H47l-0.8-2.2H12.4L11.7-24.5z M55.1,0h2.6L30.6-70.5h-1.2
			v3.3L55.1,0z"/>
	</g>
	<line id="Baseline-M" class="st7" x1="263" y1="1126" x2="3036" y2="1126"/>
	<line id="Capline-M" class="st7" x1="263" y1="1055.5" x2="3036" y2="1055.5"/>
	<g id="H-reference_00000137092774602797646200000003349162275951330231_" transform="matrix(1 0 0 1 339 1556)">
		<path class="st6" d="M1,0h2.6l25.7-67.1H30v-3.3h-1.9L1,0z M11.7-24.5H47l-0.8-2.2H12.4L11.7-24.5z M55.1,0h2.6L30.6-70.5h-1.2
			v3.3L55.1,0z"/>
	</g>
	<line id="Baseline-L" class="st7" x1="263" y1="1556" x2="3036" y2="1556"/>
	<line id="Capline-L" class="st7" x1="263" y1="1485.5" x2="3036" y2="1485.5"/>
	<line id="left-margin-Regular-M" class="st5" x1="1391.3" y1="1030.8" x2="1391.3" y2="1150.1"/>
	<line id="right-margin-Regular-M" class="st5" x1="1508.4" y1="1030.8" x2="1508.4" y2="1150.1"/>
</g>
<g id="Symbols">
	<g id="Regular-M" transform="matrix(1 0 0 1 1391.32 1126)">
		<path d="M120.3-78.9H92.6c-1,0-1.9-0.4-2.5-1.2l-9.8-11.2c-1.5-1.7-3.7-2.7-6-2.7H41.4c-2.3,0-4.5,1-6,2.7l-9.8,11.2
			c-0.6,0.7-1.6,1.2-2.5,1.2H-4.6c-7.5,0-13.5,6-13.5,13.5V10c0,7.5,6,13.5,13.5,13.5h124.9c7.5,0,13.5-6,13.5-13.5v-75.4
			C133.8-72.9,127.7-78.9,120.3-78.9z M57.8,7.2c-19.3,0-34.9-15.7-34.9-34.9c0-19.3,15.7-34.9,34.9-34.9S92.7-47,92.7-27.7
			C92.7-8.5,77.1,7.2,57.8,7.2z M102.9-50.1c-3.3,0-6-2.7-6-6c0-3.3,2.7-6,6-6c3.3,0,6,2.7,6,6C108.9-52.7,106.2-50.1,102.9-50.1z
			 M57.8-56c-15.6,0-28.3,12.7-28.3,28.3c0,15.6,12.7,28.3,28.3,28.3c15.6,0,28.3-12.7,28.3-28.3C86.1-43.4,73.5-56,57.8-56z
			 M72.8-28.2c-1.2,1.4-3.1,1.4-4.8,1.6c-1.2,0.2-2.6,0.2-3.8,0.3c1,4,2,7.5,1.6,11.5c0.1,1.8-0.8,3.6-2.2,4.3
			c-1.7,0.7-3.5,0.6-5.3,0.6c-2-0.1-4,0.2-5.8-0.8c-1.5-0.8-2-2.9-2.1-4.6c-0.2-4.1,0.7-7.5,1.7-11.3c-2.6-0.2-5-0.4-7.6-0.8
			c-1.3-0.3-2.3-1.4-2.7-2.7c-0.5-2.5,0.4-5.3,1.8-7.4c1.6-2.3,3.7-4.2,6-5.5c2.4-1.3,5.1-2.1,7.8-2.1c3.1,0,6.1,0.8,8.8,2.4
			c3.1,1.8,5.8,4.3,7.1,7.8C74.2-32.6,74.2-30,72.8-28.2z"/>
	</g>
</g>
</svg>
