<?xml version="1.0" encoding="utf-8"?>
<!-- Generator: Adobe Adobe Illustrator 24.2.0, SVG Export Plug-In . SVG Version: 6.00 Build 0)  -->
<svg version="1.1" id="Layer_1" xmlns="http://www.w3.org/2000/svg" xmlns:xlink="http://www.w3.org/1999/xlink" x="0px" y="0px"
	 width="1024px" height="1024px" viewBox="0 0 1024 1024" style="enable-background:new 0 0 1024 1024;" xml:space="preserve">
<style type="text/css">
	.st0{fill:none;stroke:#000000;stroke-width:16;stroke-miterlimit:10;}
</style>
<g>
	<g>
		<path class="st0" d="M298.25,593.07c-39.75,1-39.75,59.23,0,60.23C338,652.3,337.9,594.08,298.25,593.07z"/>
		<path class="st0" d="M298.25,703.5c-39.75,1-39.75,59.23,0,60.23C338,762.73,337.9,704.5,298.25,703.5z"/>
		<path class="st0" d="M298.25,813.92c-39.75,1-39.75,59.23,0,60.23C338,873.15,337.9,814.93,298.25,813.92z"/>
		<path d="M358.48,342.11c26.5-0.7,26.5-39.45,0-40.15C331.98,302.66,331.98,341.41,358.48,342.11z"/>
		<path d="M238.02,342.11c26.5-0.7,26.5-39.45,0-40.15C211.51,302.66,211.51,341.41,238.02,342.11z"/>
		<path d="M383.58,403.86c-4.92-1.76-10.94-0.28-13.45,3.17c-27.91,41.38-115.95,41.38-143.85,0c-6.02-8.23-23.69-2.11-17.97,6.26
			c35.44,51.79,144.36,51.79,179.79,0C390.6,409.84,388.49,405.62,383.58,403.86z"/>
		<path class="st0" d="M473.72,558.84c-4.62-4.92-9.44-9.64-14.36-14.15c11.85-9.64,9.44-28.21,9.54-41.96
			c0-16.56-13.55-30.12-30.12-30.12h-10.64c59.04-42.46,55.83-141.52,12.85-203.58c27.84-4.93,48.04-28.97,47.98-57.53
			c-0.01-5.5-4.54-9.93-10.04-9.93H417l-14.96-82.52c-2.91-16.26-17.97-26.9-34.33-24.39c-18.67,3.01-45.88,6.53-69.47,6.53
			c-22.19,0-47.88-6.53-65.55-12.05c-8.23-2.61-17.27-1.41-24.7,3.11c-7.43,4.62-12.45,12.15-13.95,20.68l-14.76,88.64h-61.74
			c-5.5,0-10.03,4.43-10.04,9.92c-0.05,28.46,20.14,52.51,47.98,57.54c-41.36,59.03-35.14,150.78,12.85,203.58h-20.68
			c-16.56,0-30.12,13.55-30.12,30.12c0.2,12.15-2.11,30.62,7.53,39.85l-10.34,11.85l-13.45,15.46l-33.53,38.55
			c-8.86,9.84,8.73,20.88,8.73,20.88C7.73,783.71,126.68,969.9,298.23,969.9c200.27,1,313.43-241.01,188.95-395.7L473.72,558.84z
			 M128.6,361.28c0-33.63,8.07-66.92,26.74-92.01c67.36,11.95,217.9,11.49,285.26-0.45c46.28,58.32,43.36,156.7-12.67,203.8H168.47
			c-29.81-27.51-39.96-67.66-39.96-111.33H128.6z M298.17,969.84c-152.29,3.11-299.52-187.92-220.13-341l36.21,33.4
			c4.22,3.61,10.54,3.21,14.15-1l39.35-45.27v117.65c0,5.52,4.52,10.04,10.04,10.04h60.23c5.52,0,10.04-4.52,10.04-10.04v-180.7
			l216.56-1.82C626.57,713.06,505.86,968.94,298.17,969.84z"/>
	</g>
	<path class="st0" d="M384.37,368.73l-95.79-25.85c-1.02-0.27-2.02,0.49-2.02,1.55l0,52.1c0,1.06,1,1.82,2.02,1.55l95.79-25.85
		C386.15,371.75,386.15,369.21,384.37,368.73z"/>
</g>
<g>
	<path class="st0" d="M723.62,264.61c1.49,2.58,3.95,4.47,6.83,5.24c2.88,0.77,5.95,0.37,8.54-1.12l20.38-11.76v23.53
		c0,2.99,1.19,5.85,3.3,7.96c2.11,2.11,4.97,3.3,7.96,3.3c2.99,0,5.85-1.19,7.96-3.3c2.11-2.11,3.3-4.98,3.3-7.96v-36.53
		l26.01-15.01l26,15.01v30.03l-31.64,18.26c-2.59,1.49-4.47,3.95-5.25,6.83c-0.77,2.88-0.37,5.96,1.12,8.54
		c1.49,2.59,3.95,4.47,6.84,5.25c2.88,0.77,5.96,0.37,8.54-1.12l20.38-11.76v23.53c0,2.99,1.19,5.85,3.3,7.96
		c2.11,2.11,4.97,3.3,7.96,3.3c2.99,0,5.85-1.19,7.96-3.3c2.11-2.11,3.3-4.98,3.3-7.96v-23.53l20.38,11.77
		c1.28,0.74,2.69,1.22,4.16,1.41c1.47,0.19,2.96,0.09,4.38-0.29c1.43-0.38,2.77-1.04,3.94-1.94c1.17-0.9,2.16-2.02,2.9-3.3
		c0.74-1.28,1.22-2.69,1.41-4.16c0.19-1.47,0.09-2.95-0.29-4.38c-0.38-1.43-1.04-2.77-1.94-3.94c-0.9-1.17-2.02-2.16-3.3-2.9
		L856.41,274v-30.03l26.01-15.01l26.01,15.01v36.53c0,2.99,1.19,5.85,3.3,7.96c2.11,2.11,4.97,3.3,7.96,3.3s5.85-1.19,7.96-3.3
		c2.11-2.11,3.3-4.98,3.3-7.96v-23.53l20.38,11.76c1.28,0.74,2.69,1.22,4.16,1.41c1.47,0.19,2.96,0.1,4.38-0.29
		c1.43-0.38,2.77-1.04,3.94-1.94c1.17-0.9,2.16-2.02,2.9-3.3c0.74-1.28,1.22-2.69,1.41-4.16c0.19-1.47,0.09-2.96-0.29-4.38
		c-0.38-1.43-1.04-2.77-1.94-3.94c-0.9-1.17-2.02-2.16-3.3-2.9l-20.37-11.76l20.37-11.76c1.28-0.74,2.4-1.72,3.3-2.9
		c0.9-1.17,1.56-2.51,1.94-3.94c0.38-1.43,0.48-2.92,0.29-4.38c-0.19-1.47-0.67-2.88-1.41-4.16c-0.74-1.28-1.72-2.4-2.9-3.3
		c-1.17-0.9-2.51-1.56-3.94-1.94c-1.43-0.38-2.92-0.48-4.38-0.29c-1.47,0.19-2.88,0.67-4.16,1.41l-31.64,18.26l-26-15.02v-30.02
		l26-15.01l31.64,18.26c1.28,0.74,2.69,1.22,4.16,1.41c1.47,0.19,2.96,0.1,4.38-0.29c1.43-0.38,2.77-1.04,3.94-1.94
		c1.17-0.9,2.16-2.02,2.9-3.3c0.74-1.28,1.22-2.69,1.41-4.16c0.19-1.47,0.09-2.96-0.29-4.38c-0.38-1.43-1.04-2.77-1.94-3.94
		c-0.9-1.17-2.02-2.16-3.3-2.9l-20.37-11.76l20.37-11.76c2.58-1.49,4.47-3.95,5.25-6.84c0.77-2.88,0.37-5.96-1.12-8.54
		c-1.49-2.59-3.95-4.47-6.84-5.25c-2.88-0.77-5.96-0.37-8.54,1.12l-20.38,11.76V108.4c0-2.99-1.19-5.85-3.3-7.96
		c-2.11-2.11-4.97-3.3-7.96-3.3s-5.85,1.19-7.96,3.3c-2.11,2.11-3.3,4.97-3.3,7.96v36.53l-26.01,15.01l-26-15.01V114.9l31.64-18.26
		c1.28-0.74,2.4-1.72,3.3-2.9c0.9-1.17,1.56-2.51,1.94-3.94c0.38-1.43,0.48-2.92,0.29-4.38c-0.19-1.47-0.67-2.88-1.41-4.16
		c-0.74-1.28-1.72-2.4-2.9-3.3c-1.17-0.9-2.51-1.56-3.94-1.94c-1.43-0.38-2.92-0.48-4.38-0.29c-1.47,0.19-2.88,0.67-4.16,1.41
		L856.41,88.9V65.37c0-2.99-1.19-5.85-3.3-7.96c-2.11-2.11-4.97-3.3-7.96-3.3c-2.99,0-5.85,1.19-7.96,3.3
		c-2.11,2.11-3.3,4.97-3.3,7.96V88.9l-20.38-11.77c-2.59-1.49-5.66-1.9-8.54-1.12c-2.88,0.77-5.34,2.66-6.84,5.25
		c-1.49,2.59-1.9,5.66-1.12,8.54c0.77,2.88,2.66,5.34,5.25,6.84l31.64,18.26v30.03l-26,15.01l-26.01-15.01V108.4
		c0-2.99-1.19-5.85-3.3-7.96c-2.11-2.11-4.97-3.3-7.96-3.3c-2.99,0-5.85,1.19-7.96,3.3c-2.11,2.11-3.3,4.97-3.3,7.96v23.53
		l-20.38-11.76c-1.28-0.74-2.69-1.22-4.16-1.41c-1.47-0.19-2.96-0.09-4.38,0.29c-1.43,0.38-2.77,1.04-3.94,1.94
		c-1.17,0.9-2.16,2.02-2.9,3.3c-1.49,2.59-1.9,5.66-1.12,8.54c0.77,2.88,2.66,5.34,5.25,6.84l20.37,11.76l-20.37,11.76
		c-2.59,1.49-4.47,3.95-5.25,6.84c-0.77,2.88-0.37,5.96,1.12,8.54c1.49,2.59,3.95,4.47,6.84,5.25c2.88,0.77,5.96,0.37,8.54-1.12
		l31.64-18.26l26,15.02v30.01l-26,15.02l-31.64-18.26c-2.59-1.49-5.66-1.9-8.54-1.12c-2.88,0.77-5.34,2.66-6.84,5.25
		c-1.49,2.59-1.9,5.66-1.12,8.54c0.77,2.88,2.66,5.34,5.25,6.84l20.37,11.76l-20.37,11.76c-1.28,0.74-2.4,1.72-3.3,2.9
		c-0.9,1.17-1.56,2.51-1.94,3.94c-0.38,1.43-0.48,2.92-0.28,4.38C722.4,261.92,722.88,263.33,723.62,264.61z M819.15,179.43
		l26.01-15.02l26.01,15.02v30.02l-26.01,15.02l-26.01-15.02V179.43z"/>
</g>
<g>
	<path class="st0" d="M568.57,551.26c1.49,2.58,3.95,4.47,6.83,5.24s5.95,0.37,8.54-1.12l20.38-11.76v23.53
		c0,2.99,1.19,5.85,3.3,7.96c2.11,2.11,4.97,3.3,7.96,3.3c2.99,0,5.85-1.19,7.96-3.3c2.11-2.11,3.3-4.98,3.3-7.96v-36.53
		l26.01-15.01l26,15.01v30.03l-31.64,18.26c-2.59,1.49-4.47,3.95-5.25,6.83c-0.77,2.88-0.37,5.96,1.12,8.54
		c1.49,2.59,3.95,4.47,6.84,5.25c2.88,0.77,5.96,0.37,8.54-1.12l20.38-11.76v23.53c0,2.99,1.19,5.85,3.3,7.96
		c2.11,2.11,4.97,3.3,7.96,3.3c2.99,0,5.85-1.19,7.96-3.3c2.11-2.11,3.3-4.98,3.3-7.96v-23.53l20.38,11.77
		c1.28,0.74,2.69,1.22,4.16,1.41c1.47,0.19,2.96,0.09,4.38-0.29c1.43-0.38,2.77-1.04,3.94-1.94c1.17-0.9,2.16-2.02,2.9-3.3
		s1.22-2.69,1.41-4.16c0.19-1.47,0.09-2.95-0.29-4.38c-0.38-1.43-1.04-2.77-1.94-3.94c-0.9-1.17-2.02-2.16-3.3-2.9l-31.64-18.26
		v-30.03l26.01-15.01l26.01,15.01v36.53c0,2.99,1.19,5.85,3.3,7.96c2.11,2.11,4.97,3.3,7.96,3.3s5.85-1.19,7.96-3.3
		c2.11-2.11,3.3-4.98,3.3-7.96v-23.53l20.38,11.76c1.28,0.74,2.69,1.22,4.16,1.41c1.47,0.19,2.96,0.1,4.38-0.29
		c1.43-0.38,2.77-1.04,3.94-1.94c1.17-0.9,2.16-2.02,2.9-3.3c0.74-1.28,1.22-2.69,1.41-4.16c0.19-1.47,0.09-2.96-0.29-4.38
		c-0.38-1.43-1.04-2.77-1.94-3.94c-0.9-1.17-2.02-2.16-3.3-2.9l-20.37-11.76l20.37-11.76c1.28-0.74,2.4-1.72,3.3-2.9
		c0.9-1.17,1.56-2.51,1.94-3.94c0.38-1.43,0.48-2.92,0.29-4.38c-0.19-1.47-0.67-2.88-1.41-4.16c-0.74-1.28-1.72-2.4-2.9-3.3
		c-1.17-0.9-2.51-1.56-3.94-1.94c-1.43-0.38-2.92-0.48-4.38-0.29c-1.47,0.19-2.88,0.67-4.16,1.41l-31.64,18.26l-26-15.02v-30.02
		l26-15.01l31.64,18.26c1.28,0.74,2.69,1.22,4.16,1.41c1.47,0.19,2.96,0.1,4.38-0.29c1.43-0.38,2.77-1.04,3.94-1.94
		c1.17-0.9,2.16-2.02,2.9-3.3c0.74-1.28,1.22-2.69,1.41-4.16c0.19-1.47,0.09-2.96-0.29-4.38c-0.38-1.43-1.04-2.77-1.94-3.94
		c-0.9-1.17-2.02-2.16-3.3-2.9l-20.37-11.76l20.37-11.76c2.58-1.49,4.47-3.95,5.25-6.84c0.77-2.88,0.37-5.96-1.12-8.54
		c-1.49-2.59-3.95-4.47-6.84-5.25c-2.88-0.77-5.96-0.37-8.54,1.12l-20.38,11.76v-23.54c0-2.99-1.19-5.85-3.3-7.96
		c-2.11-2.11-4.97-3.3-7.96-3.3s-5.85,1.19-7.96,3.3c-2.11,2.11-3.3,4.97-3.3,7.96v36.53l-26.01,15.01l-26-15.01v-30.03L733,383.3
		c1.28-0.74,2.4-1.72,3.3-2.9c0.9-1.17,1.56-2.51,1.94-3.94c0.38-1.43,0.48-2.92,0.29-4.38c-0.19-1.47-0.67-2.88-1.41-4.16
		c-0.74-1.28-1.72-2.4-2.9-3.3c-1.17-0.9-2.51-1.56-3.94-1.94c-1.43-0.38-2.92-0.48-4.38-0.29c-1.47,0.19-2.88,0.67-4.16,1.41
		l-20.38,11.76v-23.53c0-2.99-1.19-5.85-3.3-7.96c-2.11-2.11-4.97-3.3-7.96-3.3c-2.99,0-5.85,1.19-7.96,3.3
		c-2.11,2.11-3.3,4.97-3.3,7.96v23.53l-20.38-11.77c-2.59-1.49-5.66-1.9-8.54-1.12c-2.88,0.77-5.34,2.66-6.84,5.25
		c-1.49,2.59-1.9,5.66-1.12,8.54c0.77,2.88,2.66,5.34,5.25,6.84l31.64,18.26v30.03l-26,15.01l-26.01-15.01v-36.53
		c0-2.99-1.19-5.85-3.3-7.96c-2.11-2.11-4.97-3.3-7.96-3.3c-2.99,0-5.85,1.19-7.96,3.3c-2.11,2.11-3.3,4.97-3.3,7.96v23.53
		l-20.38-11.76c-1.28-0.74-2.69-1.22-4.16-1.41c-1.47-0.19-2.96-0.09-4.38,0.29c-1.43,0.38-2.77,1.04-3.94,1.94
		c-1.17,0.9-2.16,2.02-2.9,3.3c-1.49,2.59-1.9,5.66-1.12,8.54c0.77,2.88,2.66,5.34,5.25,6.84l20.37,11.76l-20.37,11.76
		c-2.59,1.49-4.47,3.95-5.25,6.84c-0.77,2.88-0.37,5.96,1.12,8.54c1.49,2.59,3.95,4.47,6.84,5.25c2.88,0.77,5.96,0.37,8.54-1.12
		l31.64-18.26l26,15.02v30.01l-26,15.02l-31.64-18.26c-2.59-1.49-5.66-1.9-8.54-1.12c-2.88,0.77-5.34,2.66-6.84,5.25
		c-1.49,2.59-1.9,5.66-1.12,8.54c0.77,2.88,2.66,5.34,5.25,6.84l20.37,11.76l-20.37,11.76c-1.28,0.74-2.4,1.72-3.3,2.9
		c-0.9,1.17-1.56,2.51-1.94,3.94c-0.38,1.43-0.48,2.92-0.28,4.38C567.35,548.57,567.83,549.99,568.57,551.26z M664.09,466.09
		l26.01-15.02l26.01,15.02v30.02l-26.01,15.02l-26.01-15.02V466.09z"/>
</g>
<g>
	<path class="st0" d="M723.62,837.92c1.49,2.58,3.95,4.47,6.83,5.24s5.95,0.37,8.54-1.12l20.38-11.76v23.53
		c0,2.99,1.19,5.85,3.3,7.96c2.11,2.11,4.97,3.3,7.96,3.3c2.99,0,5.85-1.19,7.96-3.3c2.11-2.11,3.3-4.98,3.3-7.96v-36.53
		l26.01-15.01l26,15.01v30.03l-31.64,18.26c-2.59,1.49-4.47,3.95-5.25,6.83c-0.77,2.88-0.37,5.96,1.12,8.54
		c1.49,2.59,3.95,4.47,6.84,5.25c2.88,0.77,5.96,0.37,8.54-1.12l20.38-11.76v23.53c0,2.99,1.19,5.85,3.3,7.96
		c2.11,2.11,4.97,3.3,7.96,3.3c2.99,0,5.85-1.19,7.96-3.3c2.11-2.11,3.3-4.98,3.3-7.96V873.3l20.38,11.77
		c1.28,0.74,2.69,1.22,4.16,1.41c1.47,0.19,2.96,0.09,4.38-0.29c1.43-0.38,2.77-1.04,3.94-1.94c1.17-0.9,2.16-2.02,2.9-3.3
		c0.74-1.28,1.22-2.69,1.41-4.16c0.19-1.47,0.09-2.95-0.29-4.38c-0.38-1.43-1.04-2.77-1.94-3.94c-0.9-1.17-2.02-2.16-3.3-2.9
		l-31.64-18.26v-30.03l26.01-15.01l26.01,15.01v36.53c0,2.99,1.19,5.85,3.3,7.96c2.11,2.11,4.97,3.3,7.96,3.3s5.85-1.19,7.96-3.3
		c2.11-2.11,3.3-4.98,3.3-7.96v-23.53l20.38,11.76c1.28,0.74,2.69,1.22,4.16,1.41c1.47,0.19,2.96,0.1,4.38-0.29
		c1.43-0.38,2.77-1.04,3.94-1.94c1.17-0.9,2.16-2.02,2.9-3.3c0.74-1.28,1.22-2.69,1.41-4.16c0.19-1.47,0.09-2.96-0.29-4.38
		c-0.38-1.43-1.04-2.77-1.94-3.94c-0.9-1.17-2.02-2.16-3.3-2.9l-20.37-11.76l20.37-11.76c1.28-0.74,2.4-1.72,3.3-2.9
		c0.9-1.17,1.56-2.51,1.94-3.94c0.38-1.43,0.48-2.92,0.29-4.38c-0.19-1.47-0.67-2.88-1.41-4.16c-0.74-1.28-1.72-2.4-2.9-3.3
		c-1.17-0.9-2.51-1.56-3.94-1.94c-1.43-0.38-2.92-0.48-4.38-0.29c-1.47,0.19-2.88,0.67-4.16,1.41l-31.64,18.26l-26-15.02v-30.02
		l26-15.01l31.64,18.26c1.28,0.74,2.69,1.22,4.16,1.41c1.47,0.19,2.96,0.1,4.38-0.29c1.43-0.38,2.77-1.04,3.94-1.94
		c1.17-0.9,2.16-2.02,2.9-3.3c0.74-1.28,1.22-2.69,1.41-4.16c0.19-1.47,0.09-2.96-0.29-4.38c-0.38-1.43-1.04-2.77-1.94-3.94
		c-0.9-1.17-2.02-2.16-3.3-2.9l-20.37-11.76l20.37-11.76c2.58-1.49,4.47-3.95,5.25-6.84c0.77-2.88,0.37-5.96-1.12-8.54
		c-1.49-2.59-3.95-4.47-6.84-5.25c-2.88-0.77-5.96-0.37-8.54,1.12l-20.38,11.76v-23.54c0-2.99-1.19-5.85-3.3-7.96
		c-2.11-2.11-4.97-3.3-7.96-3.3s-5.85,1.19-7.96,3.3c-2.11,2.11-3.3,4.97-3.3,7.96v36.53l-26.01,15.01l-26-15.01v-30.03l31.64-18.26
		c1.28-0.74,2.4-1.72,3.3-2.9c0.9-1.17,1.56-2.51,1.94-3.94c0.38-1.43,0.48-2.92,0.29-4.38c-0.19-1.47-0.67-2.88-1.41-4.16
		c-0.74-1.28-1.72-2.4-2.9-3.3c-1.17-0.9-2.51-1.56-3.94-1.94c-1.43-0.38-2.92-0.48-4.38-0.29c-1.47,0.19-2.88,0.67-4.16,1.41
		l-20.38,11.76v-23.53c0-2.99-1.19-5.85-3.3-7.96c-2.11-2.11-4.97-3.3-7.96-3.3c-2.99,0-5.85,1.19-7.96,3.3
		c-2.11,2.11-3.3,4.97-3.3,7.96v23.53l-20.38-11.77c-2.59-1.49-5.66-1.9-8.54-1.12c-2.88,0.77-5.34,2.66-6.84,5.25
		c-1.49,2.59-1.9,5.66-1.12,8.54c0.77,2.88,2.66,5.34,5.25,6.84l31.64,18.26v30.03l-26,15.01l-26.01-15.01v-36.53
		c0-2.99-1.19-5.85-3.3-7.96c-2.11-2.11-4.97-3.3-7.96-3.3c-2.99,0-5.85,1.19-7.96,3.3c-2.11,2.11-3.3,4.97-3.3,7.96v23.53
		l-20.38-11.76c-1.28-0.74-2.69-1.22-4.16-1.41c-1.47-0.19-2.96-0.09-4.38,0.29c-1.43,0.38-2.77,1.04-3.94,1.94
		c-1.17,0.9-2.16,2.02-2.9,3.3c-1.49,2.59-1.9,5.66-1.12,8.54c0.77,2.88,2.66,5.34,5.25,6.84l20.37,11.76l-20.37,11.76
		c-2.59,1.49-4.47,3.95-5.25,6.84c-0.77,2.88-0.37,5.96,1.12,8.54c1.49,2.59,3.95,4.47,6.84,5.25c2.88,0.77,5.96,0.37,8.54-1.12
		l31.64-18.26l26,15.02v30.01l-26,15.02l-31.64-18.26c-2.59-1.49-5.66-1.9-8.54-1.12c-2.88,0.77-5.34,2.66-6.84,5.25
		c-1.49,2.59-1.9,5.66-1.12,8.54c0.77,2.88,2.66,5.34,5.25,6.84l20.37,11.76l-20.37,11.76c-1.28,0.74-2.4,1.72-3.3,2.9
		c-0.9,1.17-1.56,2.51-1.94,3.94s-0.48,2.92-0.28,4.38C722.4,835.23,722.88,836.64,723.62,837.92z M819.15,752.74l26.01-15.02
		l26.01,15.02v30.02l-26.01,15.02l-26.01-15.02V752.74z"/>
</g>
</svg>
