<?xml version="1.0" encoding="UTF-8"?>
<svg id="Layer_1" data-name="Layer 1" xmlns="http://www.w3.org/2000/svg" viewBox="0 0 924.41 927.79">
  <defs>
    <style>
      .cls-1 {
        fill: none;
        stroke: #000;
        stroke-miterlimit: 10;
        stroke-width: 12px;
      }

      .cls-2 {
        stroke-width: 0px;
      }
    </style>
  </defs>
  <g>
    <g>
      <path class="cls-1" d="m248.45,544.96c-39.75,1-39.75,59.23,0,60.23,39.75-1,39.65-59.23,0-60.23Z"/>
      <path class="cls-1" d="m248.45,655.38c-39.75,1-39.75,59.23,0,60.23,39.75-1,39.65-59.23,0-60.23Z"/>
      <path class="cls-1" d="m248.45,765.81c-39.75,1-39.75,59.23,0,60.23,39.75-1,39.65-59.23,0-60.23Z"/>
      <path class="cls-2" d="m308.68,293.99c26.5-.7,26.5-39.45,0-40.15-26.5.7-26.5,39.45,0,40.15Z"/>
      <path class="cls-2" d="m188.22,293.99c26.5-.7,26.5-39.45,0-40.15-26.5.7-26.5,39.45,0,40.15Z"/>
      <path class="cls-2" d="m333.78,355.74c-4.92-1.76-10.94-.28-13.45,3.17-27.91,41.38-115.95,41.38-143.85,0-6.02-8.23-23.69-2.11-17.97,6.26,35.44,51.79,144.36,51.79,179.79,0,2.51-3.45.4-7.67-4.52-9.43Z"/>
      <path class="cls-1" d="m423.93,510.72c-4.62-4.92-9.44-9.64-14.36-14.15,11.85-9.64,9.44-28.21,9.54-41.96,0-16.56-13.55-30.12-30.12-30.12h-10.64c59.04-42.46,55.83-141.52,12.85-203.58,27.84-4.93,48.04-28.97,47.98-57.53-.01-5.5-4.54-9.93-10.04-9.93h-61.94s-14.96-82.52-14.96-82.52c-2.91-16.26-17.97-26.9-34.33-24.39-18.67,3.01-45.88,6.53-69.47,6.53-22.19,0-47.88-6.53-65.55-12.05-8.23-2.61-17.27-1.41-24.7,3.11-7.43,4.62-12.45,12.15-13.95,20.68l-14.76,88.64h-61.74c-5.5,0-10.03,4.43-10.04,9.92-.05,28.46,20.14,52.51,47.98,57.54-41.36,59.03-35.14,150.78,12.85,203.58h-20.68c-16.56,0-30.12,13.55-30.12,30.12.2,12.15-2.11,30.62,7.53,39.85l-10.34,11.85-13.45,15.46-33.53,38.55c-8.86,9.84,8.73,20.88,8.73,20.88-68.76,154.39,50.19,340.59,221.73,340.59,200.27,1,313.43-241.01,188.95-395.7l-13.45-15.36ZM78.81,313.16c0-33.63,8.07-66.92,26.74-92.01,67.36,11.95,217.9,11.49,285.26-.45,46.28,58.32,43.36,156.7-12.67,203.8H118.67c-29.81-27.51-39.96-67.66-39.96-111.33h.1Zm169.56,608.57c-152.29,3.11-299.52-187.92-220.13-341l36.21,33.4c4.22,3.61,10.54,3.21,14.15-1l39.35-45.27v117.65c0,5.52,4.52,10.04,10.04,10.04h60.23c5.52,0,10.04-4.52,10.04-10.04v-180.7l216.56-1.82c161.96,161.96,41.25,417.84-166.45,418.74Z"/>
    </g>
    <path class="cls-1" d="m334.57,320.61l-95.79-25.85c-1.02-.27-2.02.49-2.02,1.55v52.1c0,1.06,1,1.82,2.02,1.55l95.79-25.85c1.79-.48,1.79-3.02,0-3.5Z"/>
  </g>
  <path class="cls-1" d="m673.83,216.49c1.49,2.58,3.95,4.47,6.83,5.24,2.88.77,5.95.37,8.54-1.12l20.38-11.76v23.53c0,2.99,1.19,5.85,3.3,7.96,2.11,2.11,4.97,3.3,7.96,3.3s5.85-1.19,7.96-3.3c2.11-2.11,3.3-4.98,3.3-7.96v-36.53l26.01-15.01,26,15.01v30.03l-31.64,18.26c-2.59,1.49-4.47,3.95-5.25,6.83-.77,2.88-.37,5.96,1.12,8.54,1.49,2.59,3.95,4.47,6.84,5.25,2.88.77,5.96.37,8.54-1.12l20.38-11.76v23.53c0,2.99,1.19,5.85,3.3,7.96,2.11,2.11,4.97,3.3,7.96,3.3s5.85-1.19,7.96-3.3c2.11-2.11,3.3-4.98,3.3-7.96v-23.53l20.38,11.77c1.28.74,2.69,1.22,4.16,1.41,1.47.19,2.96.09,4.38-.29,1.43-.38,2.77-1.04,3.94-1.94,1.17-.9,2.16-2.02,2.9-3.3.74-1.28,1.22-2.69,1.41-4.16.19-1.47.1-2.95-.29-4.38-.38-1.43-1.04-2.77-1.94-3.94-.9-1.17-2.02-2.16-3.3-2.9l-31.64-18.26v-30.03l26.01-15.01,26.01,15.01v36.53c0,2.99,1.19,5.85,3.3,7.96,2.11,2.11,4.97,3.3,7.96,3.3s5.85-1.19,7.96-3.3c2.11-2.11,3.3-4.98,3.3-7.96v-23.53l20.38,11.76c1.28.74,2.69,1.22,4.16,1.41,1.47.19,2.96.1,4.38-.29,1.43-.38,2.77-1.04,3.94-1.94,1.17-.9,2.16-2.02,2.9-3.3.74-1.28,1.22-2.69,1.41-4.16.19-1.47.09-2.96-.29-4.38s-1.04-2.77-1.94-3.94-2.02-2.16-3.3-2.9l-20.37-11.76,20.37-11.76c1.28-.74,2.4-1.72,3.3-2.9.9-1.17,1.56-2.51,1.94-3.94.38-1.43.48-2.92.29-4.38-.19-1.47-.67-2.88-1.41-4.16-.74-1.28-1.72-2.4-2.9-3.3-1.17-.9-2.51-1.56-3.94-1.94-1.43-.38-2.92-.48-4.38-.29-1.47.19-2.88.67-4.16,1.41l-31.64,18.26-26-15.02v-30.02l26-15.01,31.64,18.26c1.28.74,2.69,1.22,4.16,1.41,1.47.19,2.96.1,4.38-.29,1.43-.38,2.77-1.04,3.94-1.94,1.17-.9,2.16-2.02,2.9-3.3.74-1.28,1.22-2.69,1.41-4.16.19-1.47.09-2.96-.29-4.38-.38-1.43-1.04-2.77-1.94-3.94-.9-1.17-2.02-2.16-3.3-2.9l-20.37-11.76,20.37-11.76c2.58-1.49,4.47-3.95,5.25-6.84.77-2.88.37-5.96-1.12-8.54-1.49-2.59-3.95-4.47-6.84-5.25-2.88-.77-5.96-.37-8.54,1.12l-20.38,11.76v-23.54c0-2.99-1.19-5.85-3.3-7.96-2.11-2.11-4.97-3.3-7.96-3.3s-5.85,1.19-7.96,3.3c-2.11,2.11-3.3,4.97-3.3,7.96v36.53l-26.01,15.01-26-15.01v-30.03l31.64-18.26c1.28-.74,2.4-1.72,3.3-2.9.9-1.17,1.56-2.51,1.94-3.94.38-1.43.48-2.92.29-4.38-.19-1.47-.67-2.88-1.41-4.16-.74-1.28-1.72-2.4-2.9-3.3-1.17-.9-2.51-1.56-3.94-1.94-1.43-.38-2.92-.48-4.38-.29-1.47.19-2.88.67-4.16,1.41l-20.38,11.76v-23.53c0-2.99-1.19-5.85-3.3-7.96-2.11-2.11-4.97-3.3-7.96-3.3s-5.85,1.19-7.96,3.3c-2.11,2.11-3.3,4.97-3.3,7.96v23.53l-20.38-11.77c-2.59-1.49-5.66-1.9-8.54-1.12-2.88.77-5.34,2.66-6.84,5.25-1.49,2.59-1.9,5.66-1.12,8.54.77,2.88,2.66,5.34,5.25,6.84l31.64,18.26v30.03l-26,15.01-26.01-15.01v-36.53c0-2.99-1.19-5.85-3.3-7.96-2.11-2.11-4.97-3.3-7.96-3.3s-5.85,1.19-7.96,3.3c-2.11,2.11-3.3,4.97-3.3,7.96v23.53l-20.38-11.76c-1.28-.74-2.69-1.22-4.16-1.41-1.47-.19-2.96-.09-4.38.29-1.43.38-2.77,1.04-3.94,1.94-1.17.9-2.16,2.02-2.9,3.3-1.49,2.59-1.9,5.66-1.12,8.54.77,2.88,2.66,5.34,5.25,6.84l20.37,11.76-20.37,11.76c-2.59,1.49-4.47,3.95-5.25,6.84-.77,2.88-.37,5.96,1.12,8.54,1.49,2.59,3.95,4.47,6.84,5.25,2.88.77,5.96.37,8.54-1.12l31.64-18.26,26,15.02v30.01l-26,15.02-31.64-18.26c-2.59-1.49-5.66-1.9-8.54-1.12-2.88.77-5.34,2.66-6.84,5.25-1.49,2.59-1.9,5.66-1.12,8.54.77,2.88,2.66,5.34,5.25,6.84l20.37,11.76-20.37,11.76c-1.28.74-2.4,1.72-3.3,2.9-.9,1.17-1.56,2.51-1.94,3.94-.38,1.43-.48,2.92-.28,4.38.19,1.47.68,2.88,1.42,4.16Zm95.52-85.18l26.01-15.02,26.01,15.02v30.02l-26.01,15.02-26.01-15.02v-30.02Z"/>
  <path class="cls-1" d="m518.78,503.15c1.49,2.58,3.95,4.47,6.83,5.24,2.88.77,5.95.37,8.54-1.12l20.38-11.76v23.53c0,2.99,1.19,5.85,3.3,7.96,2.11,2.11,4.97,3.3,7.96,3.3s5.85-1.19,7.96-3.3c2.11-2.11,3.3-4.98,3.3-7.96v-36.53l26.01-15.01,26,15.01v30.03l-31.64,18.26c-2.59,1.49-4.47,3.95-5.25,6.83-.77,2.88-.37,5.96,1.12,8.54,1.49,2.59,3.95,4.47,6.84,5.25,2.88.77,5.96.37,8.54-1.12l20.38-11.76v23.53c0,2.99,1.19,5.85,3.3,7.96,2.11,2.11,4.97,3.3,7.96,3.3s5.85-1.19,7.96-3.3c2.11-2.11,3.3-4.98,3.3-7.96v-23.53l20.38,11.77c1.28.74,2.69,1.22,4.16,1.41,1.47.19,2.96.09,4.38-.29,1.43-.38,2.77-1.04,3.94-1.94,1.17-.9,2.16-2.02,2.9-3.3.74-1.28,1.22-2.69,1.41-4.16.19-1.47.1-2.95-.29-4.38-.38-1.43-1.04-2.77-1.94-3.94-.9-1.17-2.02-2.16-3.3-2.9l-31.64-18.26v-30.03l26.01-15.01,26.01,15.01v36.53c0,2.99,1.19,5.85,3.3,7.96,2.11,2.11,4.97,3.3,7.96,3.3s5.85-1.19,7.96-3.3c2.11-2.11,3.3-4.98,3.3-7.96v-23.53l20.38,11.76c1.28.74,2.69,1.22,4.16,1.41,1.47.19,2.96.1,4.38-.29,1.43-.38,2.77-1.04,3.94-1.94,1.17-.9,2.16-2.02,2.9-3.3.74-1.28,1.22-2.69,1.41-4.16.19-1.47.09-2.96-.29-4.38s-1.04-2.77-1.94-3.94-2.02-2.16-3.3-2.9l-20.37-11.76,20.37-11.76c1.28-.74,2.4-1.72,3.3-2.9.9-1.17,1.56-2.51,1.94-3.94.38-1.43.48-2.92.29-4.38-.19-1.47-.67-2.88-1.41-4.16-.74-1.28-1.72-2.4-2.9-3.3-1.17-.9-2.51-1.56-3.94-1.94-1.43-.38-2.92-.48-4.38-.29-1.47.19-2.88.67-4.16,1.41l-31.64,18.26-26-15.02v-30.02l26-15.01,31.64,18.26c1.28.74,2.69,1.22,4.16,1.41,1.47.19,2.96.1,4.38-.29,1.43-.38,2.77-1.04,3.94-1.94,1.17-.9,2.16-2.02,2.9-3.3.74-1.28,1.22-2.69,1.41-4.16.19-1.47.09-2.96-.29-4.38-.38-1.43-1.04-2.77-1.94-3.94-.9-1.17-2.02-2.16-3.3-2.9l-20.37-11.76,20.37-11.76c2.58-1.49,4.47-3.95,5.25-6.84.77-2.88.37-5.96-1.12-8.54-1.49-2.59-3.95-4.47-6.84-5.25-2.88-.77-5.96-.37-8.54,1.12l-20.38,11.76v-23.54c0-2.99-1.19-5.85-3.3-7.96-2.11-2.11-4.97-3.3-7.96-3.3s-5.85,1.19-7.96,3.3c-2.11,2.11-3.3,4.97-3.3,7.96v36.53l-26.01,15.01-26-15.01v-30.03l31.64-18.26c1.28-.74,2.4-1.72,3.3-2.9.9-1.17,1.56-2.51,1.94-3.94.38-1.43.48-2.92.29-4.38-.19-1.47-.67-2.88-1.41-4.16-.74-1.28-1.72-2.4-2.9-3.3-1.17-.9-2.51-1.56-3.94-1.94-1.43-.38-2.92-.48-4.38-.29-1.47.19-2.88.67-4.16,1.41l-20.38,11.76v-23.53c0-2.99-1.19-5.85-3.3-7.96-2.11-2.11-4.97-3.3-7.96-3.3s-5.85,1.19-7.96,3.3c-2.11,2.11-3.3,4.97-3.3,7.96v23.53l-20.38-11.77c-2.59-1.49-5.66-1.9-8.54-1.12-2.88.77-5.34,2.66-6.84,5.25-1.49,2.59-1.9,5.66-1.12,8.54.77,2.88,2.66,5.34,5.25,6.84l31.64,18.26v30.03l-26,15.01-26.01-15.01v-36.53c0-2.99-1.19-5.85-3.3-7.96-2.11-2.11-4.97-3.3-7.96-3.3s-5.85,1.19-7.96,3.3c-2.11,2.11-3.3,4.97-3.3,7.96v23.53l-20.38-11.76c-1.28-.74-2.69-1.22-4.16-1.41-1.47-.19-2.96-.09-4.38.29-1.43.38-2.77,1.04-3.94,1.94-1.17.9-2.16,2.02-2.9,3.3-1.49,2.59-1.9,5.66-1.12,8.54.77,2.88,2.66,5.34,5.25,6.84l20.37,11.76-20.37,11.76c-2.59,1.49-4.47,3.95-5.25,6.84-.77,2.88-.37,5.96,1.12,8.54,1.49,2.59,3.95,4.47,6.84,5.25,2.88.77,5.96.37,8.54-1.12l31.64-18.26,26,15.02v30.01l-26,15.02-31.64-18.26c-2.59-1.49-5.66-1.9-8.54-1.12-2.88.77-5.34,2.66-6.84,5.25-1.49,2.59-1.9,5.66-1.12,8.54.77,2.88,2.66,5.34,5.25,6.84l20.37,11.76-20.37,11.76c-1.28.74-2.4,1.72-3.3,2.9-.9,1.17-1.56,2.51-1.94,3.94-.38,1.43-.48,2.92-.28,4.38.19,1.47.68,2.88,1.42,4.16Zm95.52-85.18l26.01-15.02,26.01,15.02v30.02l-26.01,15.02-26.01-15.02v-30.02Z"/>
  <path class="cls-1" d="m673.83,789.8c1.49,2.58,3.95,4.47,6.83,5.24,2.88.77,5.95.37,8.54-1.12l20.38-11.76v23.53c0,2.99,1.19,5.85,3.3,7.96,2.11,2.11,4.97,3.3,7.96,3.3s5.85-1.19,7.96-3.3c2.11-2.11,3.3-4.98,3.3-7.96v-36.53l26.01-15.01,26,15.01v30.03l-31.64,18.26c-2.59,1.49-4.47,3.95-5.25,6.83-.77,2.88-.37,5.96,1.12,8.54,1.49,2.59,3.95,4.47,6.84,5.25,2.88.77,5.96.37,8.54-1.12l20.38-11.76v23.53c0,2.99,1.19,5.85,3.3,7.96,2.11,2.11,4.97,3.3,7.96,3.3s5.85-1.19,7.96-3.3c2.11-2.11,3.3-4.98,3.3-7.96v-23.53l20.38,11.77c1.28.74,2.69,1.22,4.16,1.41,1.47.19,2.96.09,4.38-.29,1.43-.38,2.77-1.04,3.94-1.94,1.17-.9,2.16-2.02,2.9-3.3.74-1.28,1.22-2.69,1.41-4.16.19-1.47.1-2.95-.29-4.38-.38-1.43-1.04-2.77-1.94-3.94-.9-1.17-2.02-2.16-3.3-2.9l-31.64-18.26v-30.03l26.01-15.01,26.01,15.01v36.53c0,2.99,1.19,5.85,3.3,7.96,2.11,2.11,4.97,3.3,7.96,3.3s5.85-1.19,7.96-3.3c2.11-2.11,3.3-4.98,3.3-7.96v-23.53l20.38,11.76c1.28.74,2.69,1.22,4.16,1.41,1.47.19,2.96.1,4.38-.29,1.43-.38,2.77-1.04,3.94-1.94,1.17-.9,2.16-2.02,2.9-3.3.74-1.28,1.22-2.69,1.41-4.16.19-1.47.09-2.96-.29-4.38s-1.04-2.77-1.94-3.94-2.02-2.16-3.3-2.9l-20.37-11.76,20.37-11.76c1.28-.74,2.4-1.72,3.3-2.9.9-1.17,1.56-2.51,1.94-3.94s.48-2.92.29-4.38c-.19-1.47-.67-2.88-1.41-4.16-.74-1.28-1.72-2.4-2.9-3.3-1.17-.9-2.51-1.56-3.94-1.94-1.43-.38-2.92-.48-4.38-.29-1.47.19-2.88.67-4.16,1.41l-31.64,18.26-26-15.02v-30.02l26-15.01,31.64,18.26c1.28.74,2.69,1.22,4.16,1.41,1.47.19,2.96.1,4.38-.29,1.43-.38,2.77-1.04,3.94-1.94,1.17-.9,2.16-2.02,2.9-3.3.74-1.28,1.22-2.69,1.41-4.16.19-1.47.09-2.96-.29-4.38-.38-1.43-1.04-2.77-1.94-3.94-.9-1.17-2.02-2.16-3.3-2.9l-20.37-11.76,20.37-11.76c2.58-1.49,4.47-3.95,5.25-6.84.77-2.88.37-5.96-1.12-8.54-1.49-2.59-3.95-4.47-6.84-5.25-2.88-.77-5.96-.37-8.54,1.12l-20.38,11.76v-23.54c0-2.99-1.19-5.85-3.3-7.96-2.11-2.11-4.97-3.3-7.96-3.3s-5.85,1.19-7.96,3.3c-2.11,2.11-3.3,4.97-3.3,7.96v36.53l-26.01,15.01-26-15.01v-30.03l31.64-18.26c1.28-.74,2.4-1.72,3.3-2.9.9-1.17,1.56-2.51,1.94-3.94.38-1.43.48-2.92.29-4.38-.19-1.47-.67-2.88-1.41-4.16-.74-1.28-1.72-2.4-2.9-3.3-1.17-.9-2.51-1.56-3.94-1.94-1.43-.38-2.92-.48-4.38-.29-1.47.19-2.88.67-4.16,1.41l-20.38,11.76v-23.53c0-2.99-1.19-5.85-3.3-7.96-2.11-2.11-4.97-3.3-7.96-3.3s-5.85,1.19-7.96,3.3c-2.11,2.11-3.3,4.97-3.3,7.96v23.53l-20.38-11.77c-2.59-1.49-5.66-1.9-8.54-1.12-2.88.77-5.34,2.66-6.84,5.25-1.49,2.59-1.9,5.66-1.12,8.54.77,2.88,2.66,5.34,5.25,6.84l31.64,18.26v30.03l-26,15.01-26.01-15.01v-36.53c0-2.99-1.19-5.85-3.3-7.96-2.11-2.11-4.97-3.3-7.96-3.3s-5.85,1.19-7.96,3.3c-2.11,2.11-3.3,4.97-3.3,7.96v23.53l-20.38-11.76c-1.28-.74-2.69-1.22-4.16-1.41-1.47-.19-2.96-.09-4.38.29-1.43.38-2.77,1.04-3.94,1.94-1.17.9-2.16,2.02-2.9,3.3-1.49,2.59-1.9,5.66-1.12,8.54.77,2.88,2.66,5.34,5.25,6.84l20.37,11.76-20.37,11.76c-2.59,1.49-4.47,3.95-5.25,6.84-.77,2.88-.37,5.96,1.12,8.54,1.49,2.59,3.95,4.47,6.84,5.25,2.88.77,5.96.37,8.54-1.12l31.64-18.26,26,15.02v30.01l-26,15.02-31.64-18.26c-2.59-1.49-5.66-1.9-8.54-1.12-2.88.77-5.34,2.66-6.84,5.25-1.49,2.59-1.9,5.66-1.12,8.54.77,2.88,2.66,5.34,5.25,6.84l20.37,11.76-20.37,11.76c-1.28.74-2.4,1.72-3.3,2.9-.9,1.17-1.56,2.51-1.94,3.94-.38,1.43-.48,2.92-.28,4.38.19,1.47.68,2.88,1.42,4.16Zm95.52-85.18l26.01-15.02,26.01,15.02v30.02l-26.01,15.02-26.01-15.02v-30.02Z"/>
</svg>