<?xml version="1.0" encoding="UTF-8"?>
<svg id="Layer_1" data-name="Layer 1" xmlns="http://www.w3.org/2000/svg" viewBox="0 0 1029.1 909.56">
  <defs>
    <style>
      .cls-1 {
        fill: none;
        stroke: #000;
        stroke-miterlimit: 10;
        stroke-width: 12px;
      }
    </style>
  </defs>
  <path class="cls-1" d="m5.1,906.39c189.33-304.52,756.47-499.76,1024-499.76"/>
  <path class="cls-1" d="m5.1,325.17c154.5-14.19,448.9,50.06,618.32,163.55"/>
  <path class="cls-1" d="m153.99,76.11h-34.33c-12.65,0-22.91,10.26-22.91,22.91v2.78c0,12.65,10.26,22.91,22.91,22.91h103.89"/>
  <path class="cls-1" d="m344.19,76.11h22.59c12.65,0,22.91,10.26,22.91,22.91v2.78c0,12.65-10.26,22.91-22.91,22.91h-42.16"/>
  <path class="cls-1" d="m210.09,47.41h0c-5.82-4.22-12.97-6.71-20.7-6.71-19.56,0-35.4,15.85-35.4,35.4"/>
  <line class="cls-1" x1="324.61" y1="124.7" x2="223.55" y2="124.7"/>
  <path class="cls-1" d="m210.09,47.41h0c10.98-24.42,35.5-41.41,63.99-41.41,38.72,0,70.11,31.39,70.11,70.11"/>
  <path class="cls-1" d="m749.24,119.62h-26.58c-9.79,0-17.73,7.94-17.73,17.73v2.15c0,9.79,7.94,17.73,17.73,17.73h80.42"/>
  <path class="cls-1" d="m896.47,119.62h17.48c9.79,0,17.73,7.94,17.73,17.73v2.15c0,9.79-7.94,17.73-17.73,17.73h-32.64"/>
  <path class="cls-1" d="m792.66,97.41h0c-4.5-3.27-10.04-5.19-16.02-5.19-15.14,0-27.4,12.27-27.4,27.4"/>
  <line class="cls-1" x1="881.31" y1="157.23" x2="803.08" y2="157.23"/>
  <path class="cls-1" d="m792.66,97.41h0c8.5-18.9,27.48-32.06,49.53-32.06,29.97,0,54.27,24.3,54.27,54.27"/>
</svg>