<?xml version="1.0" encoding="utf-8"?>
<!-- Generator: Adobe Adobe Illustrator 24.2.0, SVG Export Plug-In . SVG Version: 6.00 Build 0)  -->
<svg version="1.1" id="Layer_1" xmlns="http://www.w3.org/2000/svg" xmlns:xlink="http://www.w3.org/1999/xlink" x="0px" y="0px"
	 width="1024px" height="1024px" viewBox="0 0 1024 1024" style="enable-background:new 0 0 1024 1024;" xml:space="preserve">
<style type="text/css">
	.st0{fill:#7F4D39;}
</style>
<g>
	<g>
		<path class="st0" d="M656.2,324.8c40.8,199.5,23.6,521.4-22,649.6C616.1,1025.1,375,1028.8,349,988c0,0-0.1-0.1-0.1-0.1
			c-0.6-0.7-1.2-1.5-1.6-2.3c-43.8-79.2-158.7-272.2-138.1-370.8c-119.2-5.7-222.3-36-142.1-98.6c119.2-89.1,236-73.9,352.9,7.6
			c80.2,56.8-34.4,87.2-158.1,91c0,56.1,76.1,151.6,140.1,235.4c69.6-165.7,147.3-376.4,147.3-522.8
			c-251.4-7.7-480.7-69-320.5-181.6C467.6-20.4,703.3-48.5,945.2,130.5C1111.8,253.2,901.2,314.6,656.2,324.8z"/>
	</g>
</g>
</svg>
