<?xml version="1.0" encoding="utf-8"?>
<!-- Generator: Adobe Adobe Illustrator 24.2.0, SVG Export Plug-In . SVG Version: 6.00 Build 0)  -->
<svg version="1.1" id="Layer_2" xmlns="http://www.w3.org/2000/svg" xmlns:xlink="http://www.w3.org/1999/xlink" x="0px" y="0px"
	 width="1024px" height="1024px" viewBox="0 0 1024 1024" style="enable-background:new 0 0 1024 1024;" xml:space="preserve">
<style type="text/css">
	.st0{fill:none;stroke:#000000;stroke-width:16;stroke-miterlimit:10;}
</style>
<g>
	<g>
		<path class="st0" d="M713.36,596.49c-1.72,0.03-3.48,0.16-5.2,0.43c-21.6,3.22-36.55,23.39-33.35,44.99
			c2.91,19.55,20.02,34.07,39.79,33.77c1.73-0.03,3.48-0.16,5.21-0.42c21.59-3.22,36.54-23.39,33.35-45
			C750.24,610.72,733.13,596.2,713.36,596.49z"/>
		<path class="st0" d="M764.08,357.78c-17.83-11.4-41.23-17.22-67.71-16.82c-7.78,0.12-15.77,0.77-23.75,1.96
			c-26.37,3.92-51.82,17.1-69.82,36.14c-18.25,19.33-26.91,42.72-23.71,64.16c2.34,15.83,14.44,25.9,30.8,25.65
			c1.76-0.03,3.54-0.18,5.33-0.44c21.82-3.25,26.31-18.37,30.64-32.99c4.94-16.67,9.6-32.4,37.79-36.6
			c2.89-0.43,5.71-0.67,8.39-0.71c20.34-0.3,33.12,10.24,36.01,29.69c2.83,19.04-12.02,34.47-27.75,50.81
			c-17.65,18.34-37.66,39.13-33.35,68.12c1.11,7.47,4.52,14.4,9.58,19.52c5.81,5.87,13.34,8.91,21.78,8.78
			c1.55-0.02,3.15-0.15,4.74-0.39c22.82-3.39,25.74-16.71,28.56-29.6c1.07-4.87,2.18-9.91,4.39-14.47
			c3.08-6.37,10.9-13.91,19.98-22.63c21.66-20.86,51.32-49.43,45.13-90.99C797.24,390.93,784.77,371.02,764.08,357.78z"/>
		<path class="st0" d="M1014.88,700.04L946.73,241.8c-3.5-23.5-24.05-40.98-47.81-40.62c-2.1,0.03-4.23,0.21-6.33,0.52
			l-458.23,68.15c-25.98,3.87-43.97,28.14-40.11,54.13l3.89,26.22l-301.8-39c-1.76-0.23-3.55-0.33-5.32-0.3
			c-18.23,0.27-33.73,14.13-36.08,32.22L8.9,699.54c-1.26,9.8,1.37,19.49,7.39,27.31c6.03,7.81,14.74,12.82,24.54,14.08
			l356.42,46.06c1.77,0.21,3.56,0.31,5.32,0.28c18.23-0.27,33.73-14.11,36.07-32.21l9.17-70.97l14.59,98.1
			c3.5,23.53,24.05,40.99,47.8,40.63c2.11-0.03,4.25-0.2,6.34-0.5l458.25-68.17c12.56-1.86,23.68-8.52,31.26-18.74
			C1013.62,725.2,1016.75,712.63,1014.88,700.04z M408.22,751.15c-0.43,3.38-3.58,5.86-7.02,5.41L44.76,710.5
			c-2.25-0.28-3.57-1.61-4.16-2.39c-0.59-0.77-1.54-2.4-1.26-4.65L85.4,347.03c0.4-3.07,3.03-5.42,6.1-5.47
			c0.31,0,0.63,0.01,0.92,0.05l310.43,40.1l28.42,191.05L408.22,751.15z M974.26,711.86c-0.74,1.01-2.43,2.76-5.31,3.19
			L510.71,783.2c-4.44,0.68-8.53-2.45-9.19-6.81l-68.15-458.23c-0.66-4.41,2.4-8.53,6.81-9.19l458.22-68.16
			c0.38-0.05,0.73-0.08,1.12-0.08c4.02-0.06,7.51,2.91,8.09,6.9l68.17,458.25C976.2,708.76,974.99,710.86,974.26,711.86z"/>
		<path class="st0" d="M321.64,441.29c-14.28-12.69-35.29-21.39-59.14-24.47c-4.36-0.57-8.83-0.82-13.27-0.76
			c-18.69,0.28-36.98,6.04-51.53,16.23c-14.96,10.48-24.29,24.55-26.22,39.6c-0.92,7.16,0.87,13.5,5.21,18.35
			c3.91,4.35,9.74,7.24,16.42,8.11c1.68,0.22,3.3,0.32,4.83,0.3c13.47-0.2,19.34-9.48,25.03-18.44
			c6.34-10.04,12.34-19.53,28.68-19.77c2.26-0.03,4.71,0.12,7.25,0.44c19.4,2.5,29.24,13.81,27.01,31.03
			c-1.9,14.79-16.26,23.18-31.44,32.05c-17.05,9.96-36.39,21.25-39.3,43.8c-0.82,6.29,0.55,12.81,3.78,17.87
			c2.64,4.15,7.77,9.36,17.25,10.59c1.98,0.24,3.86,0.37,5.59,0.34l0.01,0c13.3-0.2,17.71-8.44,21.96-16.41
			c1.83-3.42,3.7-6.95,6.33-9.88c3.64-4.1,11.09-8.08,19.7-12.68c20.58-10.98,48.77-26.04,52.94-58.35
			C345.7,476.25,338.42,456.21,321.64,441.29z"/>
		<path class="st0" d="M235.3,613.92c-1.45-0.19-2.91-0.29-4.36-0.26c-15.18,0.23-28.1,11.76-30.05,26.79
			c-2.15,16.79,9.75,32.22,26.54,34.4c1.45,0.2,2.92,0.26,4.36,0.24c15.19-0.23,28.11-11.74,30.05-26.77
			C263.99,631.52,252.09,616.1,235.3,613.92z"/>
	</g>
</g>
<line class="st0" x1="405.2" y1="397.51" x2="398.15" y2="350.2"/>
<line class="st0" x1="429.94" y1="563.85" x2="457.65" y2="750.3"/>
</svg>
