<?xml version="1.0" encoding="utf-8"?>
<!-- Generator: Adobe Adobe Illustrator 24.2.0, SVG Export Plug-In . SVG Version: 6.00 Build 0)  -->
<svg version="1.1" id="Layer_1" xmlns="http://www.w3.org/2000/svg" xmlns:xlink="http://www.w3.org/1999/xlink" x="0px" y="0px"
	 width="1024px" height="1024px" viewBox="0 0 1024 1024" style="enable-background:new 0 0 1024 1024;" xml:space="preserve">
<style type="text/css">
	.st0{fill-rule:evenodd;clip-rule:evenodd;fill:#7F4D39;}
</style>
<g>
	<g>
		<path class="st0" d="M982.4,177C1062.4,68,619.1,12,511.7,12C440.8,12.8-39,68,41,177c39.9,54.4,223,83.8,417.9,88.3
			c-2.8,55.6-8.6,137.3-20.2,221.6c-66.1,5.1-113.5,18.9-113.5,35.2c0,15.4,42.2,28.6,102.6,34.3C417.3,614,403.7,670,386,716.6
			c-70.8,186.8-89.1,281.7,36.6,294.1c125.7,12.4,144-70,157.7-108.9c6.5-18.6-1.5-181.1-11.7-346c57.3-6,97-18.9,97-33.7
			c0-15.2-41.6-28.3-101.3-34.1c-5.6-85.8-11.2-166.9-15.2-222.3C749.6,262.3,941.4,232.8,982.4,177L982.4,177z"/>
	</g>
</g>
</svg>
