<?xml version="1.0" encoding="utf-8"?>
<!-- Generator: Adobe Adobe Illustrator 24.2.0, SVG Export Plug-In . SVG Version: 6.00 Build 0)  -->
<svg version="1.1" id="Layer_1" xmlns="http://www.w3.org/2000/svg" xmlns:xlink="http://www.w3.org/1999/xlink" x="0px" y="0px"
	 width="1024px" height="1024px" viewBox="0 0 1024 1024" style="enable-background:new 0 0 1024 1024;" xml:space="preserve">
<style type="text/css">
	.st0{fill:none;}
	.st1{fill:#7F4D39;}
</style>
<g>
	<rect x="0" class="st0" width="966.4" height="966.4"/>
	<path class="st1" d="M970.2,378.3c-11.5-8-37.4-40-62.9-73.3c-10,3.3-21.3,5.1-33.3,5.1c-41.3,0-74.7-21.9-74.7-48.8
		c0-19.7,17.8-36.7,43.5-44.4C731.2,30.7,590.9,10.6,533.4,11c18.7,11.5,30.4,27.9,30.4,46.1c0,35-43.4,63.3-96.9,63.3
		c-53.5,0-96.9-28.4-96.9-63.3c0-7.9,2.2-15.4,6.2-22.3c-61,25.7-132.7,78-195.3,182.6c0,0-35.3,50-69.5,94.6
		c3.5-0.4,7.1-0.6,10.7-0.6c34.9,0,63.2,18.5,63.2,41.4c0,22.8-28.3,41.3-63.2,41.3c-26,0-48.3-10.3-58-24.9
		c-4.1,4.2-7.6,7.4-10.2,9.2c0,0-96.6,89.4-8.8,89.4h381.8v69.6c0,0-21.1,191-59.7,234.8c0,0-180.6,236.9,140.8,240.8v0
		c1.4,0,2.7,0,4,0c1.3,0,2.7,0,4,0v0c321.4-3.9,140.8-240.8,140.8-240.8c-38.6-43.8-59.7-234.8-59.7-234.8v-69.6h381.8
		C1066.7,467.7,970.2,378.3,970.2,378.3z M271.4,436.3c-21.7,0-39.2-11.5-39.2-25.7c0-14.2,17.6-25.7,39.2-25.7
		c21.7,0,39.2,11.5,39.2,25.7C310.6,424.8,293.1,436.3,271.4,436.3z M291.7,290.7c-43.3,0-78.3-22.9-78.3-51.2s35-51.2,78.3-51.2
		c43.2,0,78.3,22.9,78.3,51.2S335,290.7,291.7,290.7z M407.5,394c0-23.2,28.7-42,64.1-42s64.1,18.8,64.1,42
		c0,23.2-28.7,41.9-64.1,41.9S407.5,417.2,407.5,394z M612.9,310.1c-61.7,0-111.8-32.7-111.8-73.1s50-73.1,111.8-73.1
		s111.8,32.7,111.8,73.1S674.6,310.1,612.9,310.1z M799.3,436c-41.3,0-74.7-21.9-74.7-48.8c0-27,33.4-48.9,74.7-48.9
		c41.2,0,74.7,21.9,74.7,48.9C874,414.1,840.6,436,799.3,436z"/>
</g>
</svg>
