<?xml version="1.0" encoding="utf-8"?>
<!-- Generator: Adobe Adobe Illustrator 24.2.0, SVG Export Plug-In . SVG Version: 6.00 Build 0)  -->
<svg version="1.1" id="Layer_3" xmlns="http://www.w3.org/2000/svg" xmlns:xlink="http://www.w3.org/1999/xlink" x="0px" y="0px"
	 width="1024px" height="1024px" viewBox="0 0 1024 1024" style="enable-background:new 0 0 1024 1024;" xml:space="preserve">
<style type="text/css">
	.st0{fill:none;stroke:#000000;stroke-width:16;stroke-miterlimit:10;}
</style>
<g id="Layer_2">
</g>
<g>
	<g>
		<path class="st0" d="M960.56,173.23c-0.03,15.85-6.22,30.77-17.46,42c-11.3,11.3-26.16,17.52-41.82,17.52
			c-4.46,0-8.95-0.51-13.3-1.55c-4.37-1.02-8.65-2.55-12.7-4.52c-4.01-1.93-8.8-1.15-11.95,2l-90.97,90.97
			c-13.86-30.4-33.22-58.41-57.57-82.76c-6.67-6.67-13.62-12.97-20.82-18.89l79.4-79.37c3.15-3.15,3.96-7.94,2-11.95
			c-5.42-11.12-7.25-23.37-5.27-35.45c1.99-12.22,7.79-23.44,16.72-32.38c11.28-11.27,26.22-17.49,42.11-17.49
			c15.76,0,30.57,6.16,41.76,17.34c11.84,11.89,18.03,27.68,17.34,44.49c-0.12,2.91,0.96,5.74,3.03,7.79
			c2.06,2.03,4.88,3.16,7.79,3.03c0.84-0.06,1.69-0.06,2.52-0.06c15.79,0,30.68,6.13,41.85,17.28
			C954.44,142.46,960.59,157.36,960.56,173.23z"/>
		<path class="st0" d="M960.56,850.89c0,15.76-6.16,30.61-17.34,41.81c-11.63,11.69-27.83,18.03-44.4,17.33
			c-2.91-0.12-5.73,0.98-7.79,3.03c-1.94,1.97-3.03,4.61-3.03,7.37v0.44c0.06,0.84,0.06,1.66,0.06,2.5
			c0,15.86-6.16,30.74-17.34,41.93c-11.22,11.21-26.12,17.37-41.99,17.34c-15.82-0.03-30.74-6.22-41.94-17.46
			c-11.3-11.31-17.52-26.16-17.52-41.84c0-8.9,2.09-17.91,6.07-26c1.93-3.99,1.15-8.78-2-11.93l-99.06-99.06v0.03l-28.48-28.48
			v-21.8c0-7.61,6.18-13.76,13.76-13.76h55.69c20.73,0.03,37.56-16.65,37.85-37.24l110.27,110.29c3.15,3.15,7.94,3.96,11.95,1.99
			c11.12-5.45,23.4-7.29,35.45-5.33c12.22,2,23.44,7.79,32.38,16.74C954.39,820.04,960.62,834.98,960.56,850.89z"/>
		<path class="st0" d="M378.15,736.09v21.8l-26.31,26.29L250.67,885.37c-3.15,3.15-3.98,7.94-2,11.93
			c5.45,11.13,7.31,23.4,5.33,35.47c-2,12.25-7.79,23.43-16.72,32.38c-11.28,11.27-26.22,17.49-42.11,17.49
			c-15.76,0-30.61-6.16-41.79-17.34c-11.71-11.65-18-27.83-17.34-44.4c0.12-2.92-0.96-5.74-3.03-7.8c-1.97-1.96-4.61-3.06-7.37-3.06
			h-0.42c-0.84,0.03-1.67,0.06-2.52,0.06c-15.85,0-30.74-6.15-41.91-17.33c-11.22-11.22-17.37-26.14-17.34-41.99
			c0.03-15.85,6.21-30.74,17.46-41.94c11.3-11.31,26.16-17.52,41.82-17.52c8.92,0,17.91,2.09,26,6.06c4.01,1.94,8.8,1.16,11.95-1.99
			l110.21-110.21c0.35,20.55,17.18,37.17,37.82,37.17h55.67C371.99,722.33,378.15,728.51,378.15,736.09z"/>
		<path class="st0" d="M797.55,442.75v-6.04c0-41.06-8.69-80.77-25.21-117.05c-13.86-30.4-33.22-58.41-57.57-82.76
			c-6.67-6.67-13.62-12.97-20.82-18.89c-50.38-41.37-112.95-63.88-178.99-63.88H509c-66.04,0-128.61,22.51-178.97,63.88
			c-7.2,5.92-14.16,12.22-20.84,18.89c-24.33,24.35-43.69,52.34-57.55,82.74c-16.53,36.28-25.22,76.01-25.22,117.07v6.01
			c0,68.28,24.69,134.21,69.53,185.62c2.79,3.21,3.93,7.52,3.12,11.71c-0.81,4.17-3.53,7.73-7.34,9.63
			c-12.85,6.49-20.85,19.44-20.85,33.81v1.02c0,0.23,0,0.44,0.02,0.66c0.35,20.55,17.18,37.17,37.82,37.17h55.67
			c7.61,0,13.77,6.18,13.77,13.76v101.58h73.55v-48.68c0-7.61,6.19-13.77,13.77-13.77c7.58,0,13.76,6.19,13.76,13.77v48.68h65.48
			v-48.68c0-7.61,6.18-13.77,13.76-13.77c7.61,0,13.76,6.19,13.76,13.77v48.68h73.57V736.09c0-7.61,6.18-13.76,13.76-13.76h55.69
			c20.73,0.03,37.56-16.65,37.85-37.24c0.01-0.18,0.01-0.38,0.01-0.56v-1.02c0-14.37-7.97-27.32-20.85-33.81
			c-3.8-1.9-6.52-5.48-7.34-9.63c-0.81-4.19,0.33-8.5,3.12-11.71C772.86,576.96,797.55,511.03,797.55,442.75z M400.9,600.51
			c-50.71,0-92-41.25-92-92c0-50.7,41.25-91.95,92-91.95c50.71,0,91.96,41.25,91.96,91.95C492.9,559.26,451.64,600.51,400.9,600.51z
			 M554.4,685.78c-7.61,0-13.77-6.19-13.77-13.77c0-13.18-10.73-23.91-23.91-23.91s-23.91,10.73-23.91,23.91
			c0,7.61-6.19,13.77-13.77,13.77c-7.58,0-13.76-6.19-13.76-13.77c0-28.37,23.1-51.47,51.47-51.47c28.37,0,51.47,23.1,51.47,51.47
			C568.15,679.59,562.01,685.78,554.4,685.78z M632.5,600.51c-50.71,0-91.96-41.25-91.96-92c0-50.7,41.25-91.95,91.96-91.95
			s92,41.25,92,91.95C724.47,559.26,683.21,600.51,632.5,600.51z"/>
		<path class="st0" d="M330.03,218c-7.2,5.92-14.16,12.22-20.84,18.89c-24.33,24.35-43.69,52.34-57.55,82.74l-90.99-90.99
			c-3.15-3.15-7.94-3.93-11.95-2c-11.12,5.47-23.4,7.28-35.47,5.32c-12.23-2-23.43-7.8-32.3-16.77
			c-11.28-11.27-17.49-26.22-17.49-42.1c0-15.77,6.12-30.58,17.31-41.78c11.87-11.87,27.66-18.03,44.49-17.34
			c2.91,0.14,5.73-0.96,7.79-3.03c2.06-2.06,3.15-4.88,3.03-7.79c-0.03-0.84-0.06-1.69-0.06-2.52c0-15.79,6.13-30.68,17.28-41.85
			c11.21-11.21,26.13-17.4,41.97-17.37c15.86,0.03,30.77,6.22,42.02,17.46c11.3,11.3,17.52,26.16,17.52,41.82
			c0,4.46-0.53,8.95-1.55,13.3c-1.02,4.37-2.55,8.65-4.52,12.7c-1.97,4.01-1.18,8.8,1.97,11.95L330.03,218z"/>
	</g>
</g>
</svg>
