<?xml version="1.0" encoding="UTF-8"?>
<svg id="Layer_3" data-name="Layer 3" xmlns="http://www.w3.org/2000/svg" viewBox="0 0 914.49 845.4">
  <defs>
    <style>
      .cls-1 {
        fill: none;
        stroke: #000;
        stroke-miterlimit: 10;
        stroke-width: 12px;
      }
    </style>
  </defs>
  <path class="cls-1" d="m790.21,478.4h90.78c7.6,0,14.47-3.08,19.45-8.05,4.97-4.98,8.05-11.85,8.05-19.45,0-15.19-12.31-27.5-27.5-27.5h-90.78"/>
  <path class="cls-1" d="m790.21,475.9v46h30.02c8.98,0,16.26-7.28,16.26-16.26v-27.24"/>
  <path class="cls-1" d="m790.21,423.4v332.11c0,46.33-37.56,83.89-83.89,83.89H208.1c-46.33,0-83.89-37.56-83.89-83.89v-332.11h666Z"/>
  <path class="cls-1" d="m124.21,423.4v55H33.5c-7.59,0-14.47-3.08-19.45-8.05-4.97-4.98-8.05-11.85-8.05-19.45,0-15.19,12.31-27.5,27.5-27.5h90.71Z"/>
  <path class="cls-1" d="m78,478.4v27.24c0,8.98,7.28,16.26,16.26,16.26h29.95"/>
  <path class="cls-1" d="m738.59,61.31L129.47,375.14c-25.8-50.08-6.12-111.59,43.96-137.39l134.04-69.06,159.69-82.28,134.04-69.06c50.08-25.8,111.59-6.12,137.39,43.96Z"/>
  <path class="cls-1" d="m467.16,86.41l-159.69,82.28-21.02-40.8c-10.11-19.62-2.39-43.73,17.23-53.84l88.62-45.66c19.62-10.11,43.73-2.4,53.84,17.23l21.02,40.79Z"/>
  <path class="cls-1" d="m639.78,178.12c12.78,8.17,14.52,26.52,10.49,41.15s-12.31,27.98-14.92,42.93c-2.66,15.22,1.03,31.45,10.01,44.03"/>
  <path class="cls-1" d="m697.11,152.12c18.25,11.67,20.73,37.86,14.98,58.74-5.75,20.88-17.58,39.94-21.3,61.28-3.8,21.73,1.47,44.9,14.28,62.85"/>
  <path class="cls-1" d="m761.24,135.89c21.88,13.99,24.84,45.38,17.96,70.42-6.89,25.03-21.07,47.87-25.54,73.45-4.55,26.05,1.76,53.82,17.12,75.34"/>
</svg>