<?xml version="1.0" encoding="UTF-8"?>
<svg id="Layer_2" data-name="Layer 2" xmlns="http://www.w3.org/2000/svg" viewBox="0 0 888.27 993.2">
  <defs>
    <style>
      .cls-1 {
        fill: none;
        stroke: #000;
        stroke-miterlimit: 10;
        stroke-width: 12px;
      }
    </style>
  </defs>
  <path class="cls-1" d="m669.83,436.8c-.36,4.49-2.28,8.75-5.35,11.94-4.85,9.04-11.16,17.15-18.59,23.98-15.06,13.86-34.73,22.49-56.36,23.18-.91.03-1.85.05-2.77.05-31.12,0-58.49-16.48-74.33-41.44-15.83,24.95-43.21,41.44-74.33,41.44s-58.49-16.48-74.32-41.44c-15.84,24.95-43.23,41.44-74.35,41.44-.92,0-1.83-.01-2.74-.05-21.62-.67-41.3-9.32-56.36-23.18-7.43-6.82-13.72-14.92-18.59-23.96-3.08-3.19-4.99-7.44-5.35-11.95-.33-4.07.6-8.31,3.13-12.18l72.71-111.08,2.81-4.31c10.32,5.97,22.3,9.36,35.08,9.36,4.83,0,9.54-.49,14.1-1.42,18.74-3.79,34.78-15.05,44.9-30.52,6.79,10.39,16.24,18.88,27.4,24.48,9.49,4.78,20.22,7.47,31.57,7.47s22.08-2.69,31.58-7.47c11.16-5.6,20.62-14.09,27.4-24.48,10.11,15.48,26.15,26.73,44.9,30.52,4.54.93,9.26,1.42,14.09,1.42,12.79,0,24.77-3.39,35.09-9.36l2.81,4.31,72.71,111.08c2.53,3.86,3.46,8.11,3.13,12.18Z"/>
  <path class="cls-1" d="m733.02,612.38c-.46,5.6-2.9,10.91-6.81,14.9-7.32,13.38-17.26,25.11-29.09,34.49-19.21,15.27-43.45,24.37-69.81,24.37-39.6,0-74.44-20.56-94.6-51.69-20.15,31.13-55,51.69-94.6,51.69s-74.44-20.56-94.59-51.69c-20.16,31.13-55.02,51.69-94.62,51.69-26.34,0-50.58-9.1-69.8-24.36-11.82-9.39-21.74-21.12-29.08-34.49-3.91-3.97-6.36-9.28-6.81-14.91-.42-5.06.76-10.36,3.98-15.18l83.16-124.49c15.06,13.86,34.74,22.51,56.36,23.18.91.03,1.82.05,2.74.05,31.12,0,58.51-16.48,74.35-41.44,15.83,24.95,43.2,41.44,74.32,41.44s58.5-16.48,74.33-41.44c15.84,24.95,43.21,41.44,74.33,41.44.92,0,1.86-.01,2.77-.05,21.63-.68,41.3-9.32,56.36-23.18l83.16,124.49c3.21,4.82,4.4,10.13,3.97,15.18Z"/>
  <path class="cls-1" d="m621.99,273.01c-.28,3.46-1.81,6.74-4.25,9.2-6.22,11.25-15.43,20.63-26.57,27.03-10.32,5.97-22.3,9.36-35.09,9.36-4.83,0-9.54-.49-14.09-1.42-18.75-3.79-34.78-15.05-44.9-30.52-6.79,10.39-16.24,18.87-27.4,24.48-9.5,4.78-20.23,7.47-31.58,7.47s-22.08-2.69-31.57-7.47c-11.16-5.59-20.62-14.09-27.4-24.48-10.11,15.48-26.16,26.73-44.9,30.52-4.56.93-9.27,1.42-14.1,1.42-12.78,0-24.76-3.39-35.08-9.36-11.13-6.4-20.34-15.76-26.57-27.02-2.44-2.46-3.96-5.74-4.25-9.21-.26-3.13.48-6.41,2.48-9.39l57.7-85.64L425.92,12.49c5.83-8.66,18.55-8.66,24.39,0l111.5,165.49,57.7,85.64c2,2.97,2.74,6.25,2.48,9.39Z"/>
  <path class="cls-1" d="m768.31,782.19c-.5,6.46-3.25,12.57-7.62,17.16-21.54,40.48-63.06,67.88-110.74,67.88-44.34,0-83.35-23.71-105.92-59.59-8.85,14.09-20.25,26.3-33.51,35.92-20.51,14.92-45.48,23.67-72.41,23.67-29.24,0-56.15-10.31-77.55-27.6-11.07-8.95-20.67-19.76-28.36-31.99-22.57,35.88-61.61,59.59-105.95,59.59-47.65,0-89.16-27.38-110.72-67.86-4.37-4.59-7.12-10.71-7.62-17.19-.48-5.84.85-11.97,4.45-17.51l66.73-102.9c19.21,15.26,43.45,24.36,69.8,24.36,39.6,0,74.47-20.56,94.62-51.69,20.15,31.13,54.99,51.69,94.59,51.69s74.45-20.56,94.6-51.69c20.16,31.13,55,51.69,94.6,51.69,26.36,0,50.59-9.1,69.81-24.37l66.74,102.92c3.6,5.54,4.93,11.66,4.45,17.51Z"/>
  <path class="cls-1" d="m506.45,987.2h-136.68c-15.27,0-26.95-13.61-24.62-28.7l18.28-118.86c21.4,17.29,48.31,27.6,77.55,27.6,26.94,0,51.9-8.75,72.41-23.67l17.68,114.93c2.32,15.09-9.35,28.7-24.62,28.7Z"/>
</svg>