<?xml version="1.0" encoding="utf-8"?>
<!-- Generator: Adobe Adobe Illustrator 24.2.0, SVG Export Plug-In . SVG Version: 6.00 Build 0)  -->
<svg version="1.1" id="Layer_3" xmlns="http://www.w3.org/2000/svg" xmlns:xlink="http://www.w3.org/1999/xlink" x="0px" y="0px"
	 width="1024px" height="1024px" viewBox="0 0 1024 1024" style="enable-background:new 0 0 1024 1024;" xml:space="preserve">
<style type="text/css">
	.st0{fill:none;stroke:#000000;stroke-width:16;stroke-miterlimit:10;}
</style>
<g>
	<path class="st0" d="M279.03,229.53v-92.74c-2.72-0.16-4.84-2.41-4.84-5.13v-26.18c0-2.72,2.12-4.98,4.84-5.13v-2.08
		c0-8.56,6.94-15.5,15.51-15.5h62.32c0.03,0,0.06,0,0.1,0c8.51,0.05,15.36,6.99,15.31,15.5v2.08c2.73,0.15,4.89,2.39,4.93,5.13
		v26.08c-0.04,2.74-2.2,4.98-4.93,5.13v177.78c0,3.12,0.2,6.07,0.57,8.87"/>
	<path class="st0" d="M437.35,636.15v272.1c-0.05,18.27-14.91,33.04-33.18,32.98H247.03c-18.27-0.05-33.04-14.91-32.99-33.18v-48.59
		L437.35,636.15z"/>
	<path class="st0" d="M437.35,486.85v50.3L276.89,697.61l-18.55,18.55l-44.3,44.3v-285.6c0-95.55,54.76-103.39,63.74-147.58
		l30.74,30.74L437.35,486.85z"/>
	<path class="st0" d="M521.63,452.87c0.49-3.07,1.09-6.12,1.8-9.16l36.33-168.37h139.4"/>
	<path class="st0" d="M775.06,298.44l31.43,144.83c5.42,23.6,4.47,48.22-2.74,71.34c-16.83,51.6-60.86,89.64-114.37,98.78
		c-3.36,5.76-6.21,11.76-8.54,17.95"/>
	<path class="st0" d="M673.25,722.75v114.32c0,85.4,95.6,71.24,113.6,91.43c5.1,5.85-20.82,9.06-50.7,10.79
		c-27.33,1.59-57.97,1.94-71.24,1.94c-0.11,0-132.48-1.75-122.49-12.73c18-20.19,113.71-6.03,113.71-91.43V705.63"/>
</g>
<g id="Layer_2">
	<g>
		<g>
			<polygon class="st0" points="561.5,512 775.06,298.44 925.66,147.84 876.16,98.34 699.16,275.34 521.63,452.87 512,462.5 
				372.84,323.34 147.84,98.34 98.34,147.84 308.52,358.02 437.35,486.85 462.5,512 437.35,537.15 276.89,697.61 258.34,716.16 
				214.04,760.46 98.34,876.16 147.84,925.66 214.04,859.46 437.35,636.15 512,561.5 876.16,925.66 925.66,876.16 680.84,631.34 			
				"/>
		</g>
	</g>
</g>
</svg>
