<?xml version="1.0" encoding="utf-8"?>
<!-- Generator: Adobe Adobe Illustrator 24.2.0, SVG Export Plug-In . SVG Version: 6.00 Build 0)  -->
<svg version="1.1" id="Layer_1" xmlns="http://www.w3.org/2000/svg" xmlns:xlink="http://www.w3.org/1999/xlink" x="0px" y="0px"
	 width="1024px" height="1024px" viewBox="0 0 1024 1024" style="enable-background:new 0 0 1024 1024;" xml:space="preserve">
<style type="text/css">
	.st0{fill:none;stroke:#000000;stroke-width:12;stroke-miterlimit:10;}
</style>
<g>
	<line class="st0" x1="825.44" y1="102.81" x2="894.41" y2="171.78"/>
	<line class="st0" x1="856.11" y1="134.13" x2="841.82" y2="163.95"/>
	<line class="st0" x1="886.78" y1="120.33" x2="855.35" y2="134.09"/>
	<line class="st0" x1="836.28" y1="112.34" x2="810.01" y2="144.28"/>
	<line class="st0" x1="865.58" y1="87.95" x2="835.45" y2="112.34"/>
	<path class="st0" d="M958.85,115.2l-59.18-23.67l10.9-32.7h-41.25c-15.32,0-29.72,5.96-40.55,16.79l-7.91,7.92l-31.47-31.47
		l-13.51,13.51l31.47,31.47l-7.92,7.92c-10.83,10.83-16.79,25.22-16.79,40.54v41.25l32.71-10.9L839,235.06l24.93-49.85l67.62,22.54
		l-22.54-67.62L958.85,115.2z"/>
	<line class="st0" x1="825.44" y1="102.81" x2="894.41" y2="171.78"/>
	<line class="st0" x1="856.11" y1="134.13" x2="841.82" y2="163.95"/>
	<line class="st0" x1="886.78" y1="120.33" x2="855.35" y2="134.09"/>
	<line class="st0" x1="836.28" y1="112.34" x2="810.01" y2="144.28"/>
	<line class="st0" x1="865.58" y1="87.95" x2="835.45" y2="112.34"/>
</g>
<g>
	<line class="st0" x1="454.39" y1="105.35" x2="523.36" y2="174.32"/>
	<line class="st0" x1="485.06" y1="136.68" x2="470.77" y2="166.49"/>
	<line class="st0" x1="515.73" y1="122.87" x2="484.3" y2="136.63"/>
	<line class="st0" x1="465.23" y1="114.88" x2="438.96" y2="146.82"/>
	<line class="st0" x1="494.53" y1="90.49" x2="464.4" y2="114.88"/>
	<path class="st0" d="M587.8,117.74l-59.18-23.67l10.9-32.7h-41.25c-15.32,0-29.72,5.96-40.55,16.79l-7.91,7.92l-31.47-31.47
		l-13.51,13.51l31.47,31.47l-7.92,7.92c-10.83,10.83-16.79,25.22-16.79,40.54v41.25l32.71-10.9l23.67,59.18l24.93-49.85l67.62,22.54
		l-22.54-67.62L587.8,117.74z"/>
	<line class="st0" x1="454.39" y1="105.35" x2="523.36" y2="174.32"/>
	<line class="st0" x1="485.06" y1="136.68" x2="470.77" y2="166.49"/>
	<line class="st0" x1="515.73" y1="122.87" x2="484.3" y2="136.63"/>
	<line class="st0" x1="465.23" y1="114.88" x2="438.96" y2="146.82"/>
	<line class="st0" x1="494.53" y1="90.49" x2="464.4" y2="114.88"/>
</g>
<g>
	<line class="st0" x1="639.91" y1="327.53" x2="708.88" y2="396.5"/>
	<line class="st0" x1="670.58" y1="358.86" x2="656.29" y2="388.68"/>
	<line class="st0" x1="701.25" y1="345.06" x2="669.83" y2="358.82"/>
	<line class="st0" x1="650.75" y1="337.06" x2="624.49" y2="369"/>
	<line class="st0" x1="680.06" y1="312.68" x2="649.93" y2="337.06"/>
	<path class="st0" d="M773.33,339.92l-59.18-23.67l10.9-32.7h-41.25c-15.32,0-29.72,5.96-40.55,16.79l-7.91,7.92l-31.47-31.47
		l-13.51,13.51l31.47,31.47l-7.92,7.92c-10.83,10.83-16.79,25.22-16.79,40.54v41.25l32.71-10.9l23.67,59.18l24.93-49.85l67.62,22.54
		l-22.54-67.62L773.33,339.92z"/>
	<line class="st0" x1="639.91" y1="327.53" x2="708.88" y2="396.5"/>
	<line class="st0" x1="670.58" y1="358.86" x2="656.29" y2="388.68"/>
	<line class="st0" x1="701.25" y1="345.06" x2="669.83" y2="358.82"/>
	<line class="st0" x1="650.75" y1="337.06" x2="624.49" y2="369"/>
	<line class="st0" x1="680.06" y1="312.68" x2="649.93" y2="337.06"/>
</g>
<g>
	<line class="st0" x1="822.9" y1="552.26" x2="891.87" y2="621.23"/>
	<line class="st0" x1="853.57" y1="583.59" x2="839.28" y2="613.4"/>
	<line class="st0" x1="884.24" y1="569.78" x2="852.81" y2="583.54"/>
	<line class="st0" x1="833.74" y1="561.79" x2="807.47" y2="593.73"/>
	<line class="st0" x1="863.04" y1="537.4" x2="832.91" y2="561.79"/>
	<path class="st0" d="M956.31,564.65l-59.18-23.67l10.9-32.7h-41.25c-15.32,0-29.72,5.96-40.55,16.79l-7.91,7.92l-31.47-31.47
		l-13.51,13.51l31.47,31.47l-7.92,7.92c-10.83,10.83-16.79,25.22-16.79,40.54v41.25l32.71-10.9l23.67,59.18l24.93-49.85l67.62,22.54
		l-22.54-67.62L956.31,564.65z"/>
	<line class="st0" x1="822.9" y1="552.26" x2="891.87" y2="621.23"/>
	<line class="st0" x1="853.57" y1="583.59" x2="839.28" y2="613.4"/>
	<line class="st0" x1="884.24" y1="569.78" x2="852.81" y2="583.54"/>
	<line class="st0" x1="833.74" y1="561.79" x2="807.47" y2="593.73"/>
	<line class="st0" x1="863.04" y1="537.4" x2="832.91" y2="561.79"/>
</g>
<g>
	<path class="st0" d="M197.86,541.74c7.18-13.03,16.66-24.71,25.08-34.47c-8.6-3.1-32.71-7.45-41.58-7.54h-0.71
		c-42.37,0-68.61,33.59-83.14,61.87c-20.39,39.53-31.82,95.29-32.35,156.98c-0.89,121.26,57.62,220.54,130.39,221.16
		c9.13,0,30.66-7.08,39.16-10c-8.33-9.93-16.13-20.13-23.22-33.51c-1.68-3.19-13.19-3.02-9.91-4.7c3.19-1.68,7.27-0.44,8.95,2.84
		c8.24,15.6,17.46,28.81,27.48,39.18c17.82,18.61,36.96,28.19,57,28.36h0.35c15.69,0,30.76-5.58,45.03-16.66
		c0.09-0.09,0.27-0.09,0.35-0.18c0.35-0.27,0.8-0.44,1.24-0.62c0.35-0.09,0.71-0.27,1.06-0.35c0.44-0.09,0.89-0.09,1.24-0.09
		c0.44,0,0.89-0.09,1.33,0c0.35,0.09,0.71,0.27,1.15,0.35c0.44,0.18,0.8,0.35,1.24,0.62c0.09,0.09,0.27,0.09,0.35,0.09
		c4.79,3.55,8.42,6.56,11.26,9.04c7.27,6.2,10.02,8.6,21.63,8.69c11.88,0.09,14.54-2.13,21.98-8.24c3.01-2.39,6.47-5.23,11.08-8.51
		c0.09-0.09,0.27-0.09,0.35-0.09c0.35-0.27,0.8-0.44,1.24-0.53c0.35-0.18,0.8-0.35,1.15-0.44h1.24c0.44,0,0.89,0,1.33,0.09
		c0.35,0.09,0.71,0.27,1.06,0.44c0.44,0.18,0.89,0.35,1.24,0.62c0.09,0.09,0.18,0.09,0.27,0.18c14.54,11.35,29.69,17.2,45.3,17.37
		c19.77-0.09,39.62-9.22,57.26-27.12c10.9-10.9,21.1-25.09,30.14-42.28c1.77-3.19,5.76-4.43,8.95-2.75
		c3.43,1.45-7.48-0.24-9.16,3.04c-7.89,14.8-20.58,31.57-29.88,42.12c8.69,3.1,33.55,6.7,42.41,6.79
		c34.75,0.18,67.72-21.81,93.07-62.4c25.88-41.48,40.42-97.06,40.95-156.45c0.89-129.59-45.47-220.54-112.75-221.16l0,0
		c-8.42,0-29.41,6.49-37.39,8.97c2.13,2.39,4.67,5.71,6.62,8.28c2.22,2.93,5.21,12.18,9.67,10.31c2.76,1.02-0.57,0.08-1.99,0.08
		c-2.04,0-4.74-6.64-6.07-8.41c-3.99-5.32-8.15-10.19-12.41-14.54c-0.27-0.18-0.53-0.35-0.71-0.62
		c-17.64-17.99-37.58-27.3-57.26-27.21c-15.6,0.18-30.85,6.03-45.3,17.37c-0.09,0.09-0.27,0.18-0.44,0.18
		c-0.44,0.44-0.98,0.71-1.6,0.89c-0.27,0.09-0.53,0.09-0.8,0.18c-0.44,0.09-0.89,0.27-1.24,0.27c-1.33,0-2.66-0.35-3.81-1.15
		l-0.89-0.62c-1.42-0.98-2.75-1.95-4.25-2.75c-3.37-2.22-6.38-3.9-9.57-5.41c-11.7-5.85-23.76-8.86-35.9-8.95
		c-8.95-0.09-17.73,1.33-26.06,4.17c-5.5,1.68-10.73,4.08-16.22,7.18c-2.93,1.6-5.76,3.37-8.6,5.41c-0.09,0-0.18,0-0.35,0.09
		c-0.35,0.27-0.71,0.35-1.15,0.53c-0.44,0.18-0.8,0.35-1.24,0.35c-0.35,0.09-0.8,0.09-1.15,0.09c-0.44,0-0.89,0-1.33-0.09
		c-0.35-0.09-0.71-0.27-1.06-0.44c-0.44-0.18-0.89-0.35-1.33-0.62c-0.09-0.09-0.18-0.09-0.27-0.18
		c-14.45-11.35-29.69-17.2-45.3-17.37h-0.53c-19.68,0-39.27,9.4-56.73,27.21c-0.27,0.27-0.44,0.44-0.71,0.62
		c-9.93,10.11-18.9,22.87-27.14,37.94c-1.24,2.13-6.97,3.7-6.1,3.46 M322.15,389.87l8.6-22.96c11.52,3.46,22.07,8.24,31.29,14.27
		c38.47,24.91,52.12,68.34,56.46,103.71c-11.35-4.7-23.14-7.27-35.01-7.36c-9.57,0.09-18.97,1.33-28.01,4.17
		c1.33-6.65,2.22-13.12,2.22-19.41c0-2.13-0.09-4.25-0.27-6.38c-0.18-2.84-0.62-5.58-0.98-8.33
		C351.22,416.73,331.1,397.23,322.15,389.87z M441.79,643.51l38.12-71.98c1.6-3.1,4.96-5.05,9.04-5.14h0.27
		c3.9,0,7.18,1.77,8.95,4.7l41.04,70.29c1.86,3.1,0.89,5.85,0.09,7.18c-1.68,2.93-5.05,4.88-8.95,4.96l-79.16,1.68
		c-3.81-0.18-7.36-1.68-9.13-4.61C441.26,649.36,440.11,646.71,441.79,643.51z M345.7,715.05l29.87-49.82
		c0.98-1.6,3.37-2.66,6.03-2.75h0.18c2.57,0,4.88,0.98,5.94,2.48l32,48.49c0.44,0.8,0.53,1.33,0.09,2.04
		c-0.71,1.42-2.84,2.84-6.12,2.93l-61.87,1.33c-3.01,0-5.41-1.24-6.2-2.66C345.17,716.38,345.26,715.84,345.7,715.05z M223.2,648.12
		l38.03-71.98c1.6-3.1,5.05-4.96,9.04-5.05h0.27c3.9,0,7.27,1.68,8.95,4.7l41.13,70.29c1.77,3.1,0.8,5.76,0.09,7.09
		c-1.68,3.01-5.14,4.88-9.04,4.96l-79.07,1.68c-3.99,0-7.45-1.6-9.22-4.52C222.58,653.97,221.52,651.31,223.2,648.12z
		 M411.65,872.21v-26.15c0-3.63-3.01-6.65-6.65-6.65h-44.67c-3.63,0-6.65,3.01-6.65,6.65v26.15
		c-103.09-11.35-192.97-84.12-203.43-162.83c17.82,13.83,54.78,38.29,109.91,55.22v35.99c0,3.63,3.01,6.65,6.65,6.65h44.05
		c3.72,0,6.65-3.01,6.65-6.65v-23.05c20.92,3.28,42.72,5.05,65.15,5.05s44.14-1.77,65.15-4.96v22.96c0,3.63,3.01,6.65,6.65,6.65
		h44.05c3.72,0,6.65-3.01,6.65-6.65V764.6c23.22-7.53,55.84-23.14,100.25-48.04c3.63-2.57,6.91-5.05,9.75-7.18
		C604.71,788,514.74,860.86,411.65,872.21z"/>
</g>
</svg>
