<?xml version="1.0" encoding="utf-8"?>
<!-- Generator: Adobe Illustrator 27.8.0, SVG Export Plug-In . SVG Version: 6.00 Build 0)  -->
<svg version="1.1" id="Layer_1" xmlns="http://www.w3.org/2000/svg" xmlns:xlink="http://www.w3.org/1999/xlink" x="0px" y="0px"
	 viewBox="0 0 3300 2200" style="enable-background:new 0 0 3300 2200;" xml:space="preserve">
<style type="text/css">
	.st0{fill:#FFFFFF;}
	.st1{fill:none;stroke:#000000;stroke-width:0.5;}
	.st2{font-family:'Helvetica-Bold';}
	.st3{font-size:13px;}
	.st4{font-family:'Helvetica';}
	.st5{fill:none;stroke:#00AEEF;stroke-width:0.5;}
	.st6{fill:#27AAE1;}
	.st7{fill:none;stroke:#27AAE1;stroke-width:0.5;}
	.st8{fill:none;stroke:#FF3B30;stroke-width:0.5;}
</style>
<g id="Notes">
	<rect id="artboard" class="st0" width="3300" height="2200"/>
	<line class="st1" x1="263" y1="292" x2="3036" y2="292"/>
	<text transform="matrix(1 0 0 1 263 322)" class="st2 st3">Weight/Scale Variations</text>
	<text transform="matrix(1 0 0 1 534.0633 322)" class="st4 st3">Ultralight</text>
	<text transform="matrix(1 0 0 1 843.7775 322)" class="st4 st3">Thin</text>
	<text transform="matrix(1 0 0 1 1139.035 322)" class="st4 st3">Light</text>
	<text transform="matrix(1 0 0 1 1427.0773 322)" class="st4 st3">Regular</text>
	<text transform="matrix(1 0 0 1 1723.4419 322)" class="st4 st3">Medium</text>
	<text transform="matrix(1 0 0 1 2016.1719 322)" class="st4 st3">Semibold</text>
	<text transform="matrix(1 0 0 1 2326.9705 322)" class="st4 st3">Bold</text>
	<text transform="matrix(1 0 0 1 2618.2659 322)" class="st4 st3">Heavy</text>
	<text transform="matrix(1 0 0 1 2917.5054 322)" class="st4 st3">Black</text>
	<line class="st1" x1="263" y1="1903" x2="3036" y2="1903"/>
	<g transform="matrix(0.2 0 0 0.2 263 1933)">
		<path d="M46.2,4.2c21.5,0,39.5-17.9,39.5-39.4s-18-39.4-39.5-39.4c-21.5,0-39.4,17.9-39.4,39.4S24.8,4.2,46.2,4.2L46.2,4.2z
			 M46.2-3.3c-17.7,0-31.9-14.2-31.9-32s14.1-32,31.8-32c17.8,0,32,14.2,32,32S64-3.3,46.2-3.3L46.2-3.3z M28.3-35.3
			c0,2.1,1.5,3.6,3.8,3.6h10.5V-21c0,2.2,1.5,3.7,3.6,3.7c2.2,0,3.7-1.5,3.7-3.7v-10.6h10.6c2.2,0,3.7-1.5,3.7-3.6
			c0-2.2-1.5-3.7-3.7-3.7H49.9v-10.5c0-2.2-1.5-3.8-3.7-3.8c-2.1,0-3.6,1.5-3.6,3.8V-39H32C29.8-39,28.3-37.5,28.3-35.3z"/>
	</g>
	<g transform="matrix(0.2 0 0 0.2 281.506 1933)">
		<path d="M58.5,14.6c27.2,0,49.8-22.6,49.8-49.8c0-27.2-22.6-49.8-49.9-49.8c-27.2,0-49.8,22.6-49.8,49.8
			C8.7-8.1,31.3,14.6,58.5,14.6z M58.5,6.3c-23,0-41.5-18.5-41.5-41.5s18.4-41.5,41.4-41.5S100-58.3,100-35.3S81.6,6.3,58.5,6.3
			L58.5,6.3z M35.9-35.3c0,2.4,1.7,4,4.2,4h14.4v14.4c0,2.4,1.7,4.2,4.1,4.2c2.4,0,4.2-1.7,4.2-4.2v-14.4H77c2.4,0,4.2-1.6,4.2-4
			c0-2.4-1.7-4.2-4.2-4.2H62.6v-14.4c0-2.5-1.7-4.2-4.2-4.2c-2.4,0-4.1,1.7-4.1,4.2v14.4H40C37.5-39.4,35.9-37.7,35.9-35.3z"/>
	</g>
	<g transform="matrix(0.2 0 0 0.2 304.924 1933)">
		<path d="M74.9,28.3c34.8,0,63.6-28.8,63.6-63.6c0-34.8-28.9-63.6-63.7-63.6c-34.8,0-63.5,28.8-63.5,63.6
			C11.3-0.5,40.1,28.3,74.9,28.3L74.9,28.3z M74.9,19.2c-30.2,0-54.4-24.3-54.4-54.5c0-30.2,24.2-54.5,54.4-54.5
			c30.2,0,54.5,24.3,54.5,54.5C129.3-5.1,105.1,19.2,74.9,19.2L74.9,19.2z M46-35.3c0,2.6,1.9,4.4,4.6,4.4h19.7v19.8
			c0,2.7,1.9,4.6,4.4,4.6c2.7,0,4.5-1.9,4.5-4.6v-19.8h19.8c2.7,0,4.6-1.8,4.6-4.4c0-2.7-1.9-4.6-4.6-4.6H79.3v-19.7
			c0-2.7-1.9-4.6-4.5-4.6c-2.6,0-4.4,1.9-4.4,4.6v19.7H50.6C47.9-39.8,46-38,46-35.3z"/>
	</g>
	<text transform="matrix(1 0 0 1 263 1953)" class="st2 st3">Design Variations</text>
	<text transform="matrix(1 0 0 1 263 1971)" class="st4 st3">Symbols are supported in up to nine weights and three scales.</text>
	<text transform="matrix(1 0 0 1 263 1989)" class="st4 st3">For optimal layout with text and other symbols, vertically align</text>
	<text transform="matrix(1 0 0 1 263 2007)" class="st4 st3">symbols with the adjacent text.</text>
	<line class="st5" x1="776" y1="1919" x2="776" y2="1933"/>
	<g transform="matrix(0.2 0 0 0.2 776 1933)">
		<path d="M16.6,0.8c2.6,0,3.9-1,4.8-3.7l6.3-17.2h28.8l6.3,17.2c0.9,2.7,2.2,3.7,4.7,3.7c2.6,0,4.2-1.6,4.2-4
			c0-0.8-0.1-1.6-0.5-2.6l-22.9-61c-1.1-3-3.1-4.5-6.2-4.5c-3,0-5.1,1.5-6.2,4.4L13-5.8c-0.4,1-0.5,1.8-0.5,2.6
			C12.5-0.7,14,0.8,16.6,0.8z M30-27.6l11.9-32.9h0.2L54-27.6L30-27.6z"/>
	</g>
	<line class="st5" x1="792.8" y1="1919" x2="792.8" y2="1933"/>
	<text transform="matrix(1 0 0 1 776 1953)" class="st2 st3">Margins</text>
	<text transform="matrix(1 0 0 1 776 1971)" class="st4 st3">Leading and trailing margins on the left and right side of each symbol</text>
	<text transform="matrix(1 0 0 1 776 1989)" class="st4 st3">can be adjusted by modifying the x-location of the margin guidelines.</text>
	<text transform="matrix(1 0 0 1 776 2007)" class="st4 st3">Modifications are automatically applied proportionally to all</text>
	<text transform="matrix(1 0 0 1 776 2025)" class="st4 st3">scales and weights.</text>
	<g transform="matrix(0.2 0 0 0.2 1289 1933)">
		<path d="M14.2,9.3l8.5,8.5c4.3,4.3,9.2,4.1,13.9-1.1L90-42.1L85.2-47L32.1,11.4c-1.8,2-3.4,2.5-5.8,0.1l-5.9-5.8
			c-2.3-2.3-1.8-4,0.2-5.8l57.4-54l-4.9-4.8l-58,54.4C10.3,0.1,9.9,5,14.2,9.3L14.2,9.3z M46.3-81.6c-2.1,2.1-2.2,4.9-1.1,6.9
			c1.2,1.8,3.5,3,6.7,2.1c7.3-1.7,14.9-2,22.1,2.7L71-62.6c-1.7,4.2-0.8,7.1,1.9,9.8l11.5,11.6c2.4,2.4,4.5,2.5,7.3,2.1l5.3-1
			l3.3,3.4l-0.2,2.8c-0.2,2.5,0.4,4.4,2.9,6.8l3.8,3.7c2.4,2.4,5.5,2.5,7.8,0.2l14.6-14.6c2.3-2.3,2.2-5.3-0.1-7.7l-3.9-3.8
			c-2.4-2.4-4.2-3.2-6.6-3l-2.9,0.2l-3.2-3.2l1.2-5.6c0.6-2.8-0.1-5-3.1-8l-11-10.9C82.9-96.5,60.7-96.1,46.3-81.6L46.3-81.6z
			 M53.8-79.8c12.2-8.9,28.6-7.4,39.7,3.8L105.7-64c1.2,1.2,1.4,2.1,1,3.8l-1.6,7.4l7.5,7.4l4.9-0.3c1.3,0,1.7,0,2.6,1l2.9,2.9
			l-12.2,12.2l-2.9-2.9c-1-1-1.1-1.4-1.1-2.7l0.3-4.9l-7.5-7.4l-7.6,1.3c-1.6,0.3-2.3,0.2-3.6-1l-10-10c-1.3-1.2-1.4-2-0.6-3.9
			l4.4-10.4c-7.8-7.3-18-10.4-28.1-7.4C53.4-78.6,53.1-79.2,53.8-79.8L53.8-79.8z"/>
	</g>
	<text transform="matrix(1 0 0 1 1289 1953)" class="st2 st3">Exporting</text>
	<text transform="matrix(1 0 0 1 1289 1971)" class="st4 st3">Symbols should be outlined when exporting to ensure the</text>
	<text transform="matrix(1 0 0 1 1289 1989)" class="st4 st3">design is preserved when submitting to Xcode.</text>
	<text id="template-version" transform="matrix(1 0 0 1 2952.4141 1933)" class="st4 st3">Template v.5.0</text>
	<text transform="matrix(1 0 0 1 2865.4575 1951)" class="st4 st3">Requires Xcode 15 or greater</text>
	<text id="descriptive-name" transform="matrix(1 0 0 1 2806.9448 1969)" class="st4 st3">Generated from thermometer.snowflake</text>
	<text transform="matrix(1 0 0 1 2901.5693 1987)" class="st4 st3">Typeset at 100.0 points</text>
	<text transform="matrix(1 0 0 1 263 726)" class="st4 st3">Small</text>
	<text transform="matrix(1 0 0 1 263 1156)" class="st4 st3">Medium</text>
	<text transform="matrix(1 0 0 1 263 1586)" class="st4 st3">Large</text>
</g>
<g id="Guides">
	<g id="H-reference" transform="matrix(1 0 0 1 339 696)">
		<path class="st6" d="M1,0h2.6l25.7-67.1H30v-3.3h-1.9L1,0z M11.7-24.5H47l-0.8-2.2H12.4L11.7-24.5z M55.1,0h2.6L30.6-70.5h-1.2
			v3.3L55.1,0z"/>
	</g>
	<line id="Baseline-S" class="st7" x1="263" y1="696" x2="3036" y2="696"/>
	<line id="Capline-S" class="st7" x1="263" y1="625.5" x2="3036" y2="625.5"/>
	<g id="H-reference_00000138547206882842754730000003609152097035695017_" transform="matrix(1 0 0 1 339 1126)">
		<path class="st6" d="M1,0h2.6l25.7-67.1H30v-3.3h-1.9L1,0z M11.7-24.5H47l-0.8-2.2H12.4L11.7-24.5z M55.1,0h2.6L30.6-70.5h-1.2
			v3.3L55.1,0z"/>
	</g>
	<line id="Baseline-M" class="st7" x1="263" y1="1126" x2="3036" y2="1126"/>
	<line id="Capline-M" class="st7" x1="263" y1="1055.5" x2="3036" y2="1055.5"/>
	<g id="H-reference_00000047027523536249134060000002339627053707100816_" transform="matrix(1 0 0 1 339 1556)">
		<path class="st6" d="M1,0h2.6l25.7-67.1H30v-3.3h-1.9L1,0z M11.7-24.5H47l-0.8-2.2H12.4L11.7-24.5z M55.1,0h2.6L30.6-70.5h-1.2
			v3.3L55.1,0z"/>
	</g>
	<line id="Baseline-L" class="st7" x1="263" y1="1556" x2="3036" y2="1556"/>
	<line id="Capline-L" class="st7" x1="263" y1="1485.5" x2="3036" y2="1485.5"/>
	<line id="left-margin-Ultralight-S" class="st5" x1="520.5" y1="600.8" x2="520.5" y2="720.1"/>
	<line id="right-margin-Ultralight-S" class="st5" x1="599" y1="600.8" x2="599" y2="720.1"/>
	<line id="left-margin-Regular-S" class="st5" x1="1409.1" y1="600.8" x2="1409.1" y2="720.1"/>
	<line id="right-margin-Regular-S" class="st8" x1="1490.6" y1="600.8" x2="1490.6" y2="720.1"/>
	<line id="left-margin-Black-S" class="st5" x1="2886.9" y1="600.8" x2="2886.9" y2="720.1"/>
	<line id="right-margin-Black-S" class="st5" x1="2979.9" y1="600.8" x2="2979.9" y2="720.1"/>
</g>
<g id="Symbols">
	<g id="Black-S" transform="matrix(1 0 0 1 2886.92 696)">
		<path id="_x3C_Compound_Path_x3E__00000044138860960097767320000000906348410439222705_" d="M61.7-26.3c-0.9-0.8-1.1-1.3-1.1-2.5
			v-40.1c-0.2-9.4-6-15.7-14.6-15.7c-8.8,0-14.8,6.4-14.8,16.1v39.8c0,1.2-0.2,1.7-1,2.5c-5.3,5-8.2,11.1-8.2,18
			c0,13.2,10.7,24,24,24c13.2,0,24-10.7,24-24C69.9-15.3,67-21.3,61.7-26.3z M46,8.1c-9.2,0-16.5-7.4-16.5-16.5
			c0-5.6,2.7-10.6,7.4-13.7c1.3-0.8,1.8-1.6,1.8-3.4v-42.8c0-1.2,0.2-2.3,0.4-3.2l0,0c1-3.4,3.5-5.6,6.8-5.6c4.2,0,7.2,3.5,7.2,8.8
			v42.8c0,1.7,0.6,2.5,1.9,3.4c4.7,3.1,7.4,8.2,7.4,13.7C62.3,0.7,55,8.1,46,8.1z M31.2-57v-5.8 M38.7-56.8L38.7-56.8V-63 M56.4-8.4
			c0,5.8-4.7,10.5-10.5,10.5c-5.7,0-10.4-4.7-10.4-10.5c0-4,2.2-7.4,5.6-9.2c1.4-0.8,1.9-1.3,1.9-3.4v-24.3c0-2.1,1.3-3.5,2.9-3.5
			c1.7,0,3,1.3,3,3.5V-21c0,2.1,0.5,2.6,1.9,3.4C54-15.7,56.4-12.4,56.4-8.4z M86-39.9l-3.8-3.8c-1.1-1-2.7-1-3.7,0
			c-1,1-1,2.7,0,3.7l3.8,3.8c1,1,2.7,1,3.7,0C87-37.1,87-38.8,86-39.9z M91.5-58.7h-5.4c-1.3-0.1-2.6,1.2-2.6,2.6
			c0,1.4,1.2,2.6,2.6,2.6h5.4c1.4,0,2.6-1.2,2.6-2.6C94.1-57.6,93-58.7,91.5-58.7z M86-76.2c-1-1-2.7-1-3.7,0l-3.8,3.8
			c-1,1.1-1,2.7,0,3.7c1,1,2.7,1,3.7,0l3.8-3.8C87-73.6,87-75.2,86-76.2z M66-84.4c-1.4,0-2.6,1.2-2.6,2.6v5.4
			c-0.1,1.4,1.2,2.6,2.6,2.6c1.4,0,2.6-1.2,2.6-2.6v-5.4C68.6-83.3,67.4-84.4,66-84.4z M63.3-69.5c0.8-0.2,1.7-0.2,2.7-0.2
			c7.5,0,13.6,6.1,13.6,13.6S73.5-42.6,66-42.6c-0.9,0-1.8-0.1-2.7-0.2 M29.7-76.5l-5.2,3.2l-0.1,10.6l4.5-2.6v3.9L26-59.8l2.8,1.6
			v4.2l-4.7-2.8l0.1,10.6l4.6,2.7v3.7c-0.3,0-0.7-0.1-1-0.2l-3.5-2v4.6c0,1.2-0.7,2.1-1.9,2.1s-1.9-0.9-1.9-2.1v-4.6l-3.5,2
			c-0.9,0.5-2,0.3-2.5-0.6c-0.6-0.9-0.2-1.9,0.8-2.5l5.2-3.1l0.1-10.6l-9,5.3v6.1c0,1.1-0.7,2-1.7,2c-1,0-1.7-0.8-1.7-1.8v-4.1
			l-4,2.3c-1.1,0.6-2.2,0.4-2.8-0.6c-0.6-1-0.2-2.2,0.9-2.7l4.1-2.3l-3.6-2.1c-0.9-0.5-1.2-1.6-0.7-2.4c0.5-1,1.6-1.1,2.6-0.6
			l5.3,3.1l9.1-5.2l-9.2-5.2L4.4-62c-0.9,0.5-2,0.3-2.6-0.6c-0.5-0.8-0.2-1.9,0.7-2.4l3.6-2.1l-4-2.2c-1.1-0.7-1.4-1.7-0.8-2.7
			c0.5-1,1.7-1.2,2.7-0.7l4.1,2.4v-4.1c0-1,0.7-1.8,1.7-1.8c1.1,0,1.7,0.8,1.7,2v6.1l9.1,5.3l-0.1-10.6l-5.2-3.1
			c-0.9-0.6-1.3-1.6-0.8-2.5c0.5-0.8,1.6-1.1,2.5-0.6l3.6,2.1V-82c0-1.2,0.7-2.2,1.9-2.2s1.9,1,1.9,2.2v4.5l3.6-2.1
			c0.9-0.6,2-0.3,2.5,0.6C31.1-78.1,30.7-77,29.7-76.5z M38.7-56.8L38.7-56.8 M28.8-61.5v-3.9 M28.8-54.2v-4.2 M63.3-42.9v-26.6"/>
	</g>
	<g id="Regular-S" transform="matrix(1 0 0 1 1409.12 696)">
		<path id="_x3C_Compound_Path_x3E__00000125594081187548471200000010978161268282565802_" d="M55.7-27c-0.9-0.8-1.1-1.3-1.1-2.5
			v-40.1c-0.2-9.4-6-15.7-14.6-15.7c-8.8,0-14.8,6.4-14.8,16.1v39.8c0,1.2-0.2,1.7-1,2.5c-5.3,5-8.2,11.1-8.2,18
			c0,13.2,10.7,24,24,24c13.2,0,24-10.7,24-24C63.9-16.1,61-22,55.7-27z M40,7.4C30.8,7.4,23.5,0,23.5-9.1c0-5.6,2.7-10.6,7.4-13.7
			c1.3-0.8,1.8-1.6,1.8-3.4V-69c0-1.2,0.2-2.3,0.4-3.2l0,0c1-3.4,3.5-5.6,6.8-5.6c4.2,0,7.2,3.5,7.2,8.8v42.8c0,1.7,0.6,2.5,1.9,3.4
			c4.7,3.1,7.4,8.2,7.4,13.7C56.4,0,49.1,7.4,40,7.4z M25.2-57.7v-5.8 M32.7-57.6L32.7-57.6v-6.2 M50.4-9.1
			c0,5.8-4.7,10.5-10.5,10.5c-5.7,0-10.4-4.7-10.4-10.5c0-4,2.2-7.4,5.6-9.2c1.4-0.8,1.9-1.3,1.9-3.4V-46c0-2.1,1.3-3.5,2.9-3.5
			c1.7,0,3,1.3,3,3.5v24.3c0,2.1,0.5,2.6,1.9,3.4C48.1-16.5,50.4-13.1,50.4-9.1z M80-40.6l-3.8-3.8c-1.1-1-2.7-1-3.7,0
			c-1,1-1,2.7,0,3.7l3.8,3.8c1,1,2.7,1,3.7,0C81-37.8,81-39.5,80-40.6z M85.6-59.5h-5.4c-1.3-0.1-2.6,1.2-2.6,2.6
			c0,1.4,1.2,2.6,2.6,2.6h5.4c1.4,0,2.6-1.2,2.6-2.6C88.2-58.3,87-59.5,85.6-59.5z M80-76.9c-1-1-2.7-1-3.7,0l-3.8,3.8
			c-1,1.1-1,2.7,0,3.7c1,1,2.7,1,3.7,0l3.8-3.8C81-74.3,81-76,80-76.9z M60-85.2c-1.4,0-2.6,1.2-2.6,2.6v5.4
			c-0.1,1.4,1.2,2.6,2.6,2.6c1.4,0,2.6-1.2,2.6-2.6v-5.4C62.6-84,61.5-85.2,60-85.2z M57.4-70.2c0.8-0.2,1.7-0.2,2.7-0.2
			c7.5,0,13.6,6.1,13.6,13.6S67.5-43.3,60-43.3c-0.9,0-1.8-0.1-2.7-0.2 M23.7-77.3l-5.2,3.2l-0.1,10.6l4.5-2.6v3.9L20-60.6l2.8,1.6
			v4.2l-4.7-2.8l0.1,10.6l4.6,2.7v3.7c-0.3,0-0.7-0.1-1-0.2l-3.5-2v4.6c0,1.2-0.7,2.1-1.9,2.1s-1.9-0.9-1.9-2.1v-4.6l-3.5,2
			c-0.9,0.5-2,0.3-2.5-0.6C8-42.4,8.4-43.4,9.4-44l5.2-3.1l0.1-10.6l-9,5.3v6.1c0,1.1-0.7,2-1.7,2c-1,0-1.7-0.8-1.7-1.8v-4.1l-4,2.3
			c-1.1,0.6-2.2,0.4-2.8-0.6c-0.6-1-0.2-2.2,0.9-2.7l4.1-2.3l-3.6-2.1c-0.9-0.5-1.2-1.6-0.7-2.4c0.5-1,1.6-1.1,2.6-0.6L4-55.5
			l9.1-5.2l-9.2-5.2l-5.3,3.1c-0.9,0.5-2,0.3-2.6-0.6c-0.5-0.8-0.2-1.9,0.7-2.4l3.6-2.1l-4-2.2c-1.1-0.7-1.4-1.7-0.8-2.7
			c0.5-1,1.7-1.2,2.7-0.7L2.1-71v-4.1c0-1,0.7-1.8,1.7-1.8c1.1,0,1.7,0.8,1.7,2v6.1l9.1,5.3l-0.1-10.6l-5.2-3.1
			c-0.9-0.6-1.3-1.6-0.8-2.5c0.5-0.8,1.6-1.1,2.5-0.6l3.6,2.1v-4.5c0-1.2,0.7-2.2,1.9-2.2s1.9,1,1.9,2.2v4.5l3.6-2.1
			c0.9-0.6,2-0.3,2.5,0.6C25.1-78.9,24.7-77.8,23.7-77.3z M32.7-57.6L32.7-57.6 M22.9-62.2v-3.9 M22.9-54.9v-4.2 M57.4-43.6v-26.6"
			/>
	</g>
	<g id="Ultralight-S" transform="matrix(1 0 0 1 520.464 696)">
		<path id="_x3C_Compound_Path_x3E_" d="M54.1-27.4c-0.9-0.8-1.1-1.3-1.1-2.5v-40.1c-0.2-9.4-6-15.7-14.6-15.7
			c-8.8,0-14.8,6.4-14.8,16.1v39.8c0,1.2-0.2,1.7-1,2.5c-5.3,5-8.2,11.1-8.2,18c0,13.2,10.7,24,24,24c13.2,0,24-10.7,24-24
			C62.3-16.4,59.4-22.4,54.1-27.4z M38.3,7.1c-9.2,0-16.5-7.4-16.5-16.5c0-5.6,2.7-10.6,7.4-13.7c1.3-0.8,1.8-1.6,1.8-3.4v-42.8
			c0-1.2,0.2-2.3,0.4-3.2l0,0c1-3.4,3.5-5.6,6.8-5.6c4.2,0,7.2,3.5,7.2,8.8v42.8c0,1.7,0.6,2.5,1.9,3.4c4.7,3.1,7.4,8.2,7.4,13.7
			C54.7-0.3,47.4,7.1,38.3,7.1z M23.5-58.1v-5.8 M31.1-57.9L31.1-57.9V-64 M48.7-9.5C48.7-3.6,44.1,1,38.3,1
			C32.5,1,27.9-3.6,27.9-9.5c0-4,2.2-7.4,5.6-9.2c1.4-0.8,1.9-1.3,1.9-3.4v-24.3c0-2.1,1.3-3.5,2.9-3.5c1.7,0,3,1.3,3,3.5V-22
			c0,2.1,0.5,2.6,1.9,3.4C46.4-16.8,48.7-13.5,48.7-9.5z M78.4-40.9l-3.8-3.8c-1.1-1-2.7-1-3.7,0c-1,1-1,2.7,0,3.7l3.8,3.8
			c1,1,2.7,1,3.7,0C79.4-38.2,79.4-39.8,78.4-40.9z M83.9-59.8h-5.4c-1.3-0.1-2.6,1.2-2.6,2.6c0,1.4,1.2,2.6,2.6,2.6h5.4
			c1.4,0,2.6-1.2,2.6-2.6C86.5-58.6,85.4-59.8,83.9-59.8z M78.4-77.3c-1-1-2.7-1-3.7,0l-3.8,3.8c-1,1.1-1,2.7,0,3.7c1,1,2.7,1,3.7,0
			l3.8-3.8C79.4-74.6,79.4-76.3,78.4-77.3z M58.4-85.5c-1.4,0-2.6,1.2-2.6,2.6v5.4c-0.1,1.4,1.2,2.6,2.6,2.6s2.6-1.2,2.6-2.6v-5.4
			C61-84.3,59.8-85.5,58.4-85.5z M55.7-70.5c0.8-0.2,1.7-0.2,2.7-0.2c7.5,0,13.6,6.1,13.6,13.6s-6.1,13.6-13.6,13.6
			c-0.9,0-1.8-0.1-2.7-0.2 M22-77.6l-5.2,3.2l-0.1,10.6l4.5-2.6v3.9l-2.8,1.6l2.8,1.6v4.2L16.6-58l0.1,10.6l4.6,2.7v3.7
			c-0.3,0-0.7-0.1-1-0.2l-3.5-2v4.6c0,1.2-0.7,2.1-1.9,2.1s-1.9-0.9-1.9-2.1v-4.6l-3.5,2c-0.9,0.5-2,0.3-2.5-0.6
			c-0.6-0.9-0.2-1.9,0.8-2.5l5.2-3.1L13.1-58l-9,5.3v6.1c0,1.1-0.7,2-1.7,2c-1,0-1.7-0.8-1.7-1.8v-4.1l-4,2.3
			c-1.1,0.6-2.2,0.4-2.8-0.6c-0.6-1-0.2-2.2,0.9-2.7l4.1-2.3l-3.6-2.1c-0.9-0.5-1.2-1.6-0.7-2.4c0.5-1,1.6-1.1,2.6-0.6l5.3,3.1
			l9.1-5.2l-9.2-5.2L-3.2-63c-0.9,0.5-2,0.3-2.6-0.6C-6.2-64.5-5.9-65.5-5-66l3.6-2.1l-4-2.2c-1.1-0.7-1.4-1.7-0.8-2.7
			c0.5-1,1.7-1.2,2.7-0.7l4.1,2.4v-4.1c0-1,0.7-1.8,1.7-1.8c1.1,0,1.7,0.8,1.7,2v6.1l9.1,5.3L13-74.5l-5.2-3.1
			c-0.9-0.6-1.3-1.6-0.8-2.5c0.5-0.8,1.6-1.1,2.5-0.6l3.6,2.1v-4.5c0-1.2,0.7-2.2,1.9-2.2s1.9,1,1.9,2.2v4.5l3.6-2.1
			c0.9-0.6,2-0.3,2.5,0.6C23.5-79.2,23-78.1,22-77.6z M31.1-57.9L31.1-57.9 M21.2-62.5v-3.9 M21.2-55.2v-4.2 M55.7-43.9v-26.6"/>
	</g>
</g>
</svg>
