<?xml version="1.0" encoding="UTF-8"?>
<svg id="Layer_1" data-name="Layer 1" xmlns="http://www.w3.org/2000/svg" viewBox="0 0 3300 2200">
  <defs>
    <style>
      .cls-1 {
        font-family: Helvetica-Bold, Helvetica;
        font-weight: 700;
      }

      .cls-1, .cls-2 {
        font-size: 13px;
        isolation: isolate;
      }

      .cls-3 {
        letter-spacing: -.02em;
      }

      .cls-4 {
        stroke: #00aeef;
      }

      .cls-4, .cls-5, .cls-6 {
        fill: none;
        stroke-width: .5px;
      }

      .cls-5 {
        stroke: #000;
      }

      .cls-6 {
        stroke: #27aae1;
      }

      .cls-7 {
        letter-spacing: -.07em;
      }

      .cls-8 {
        letter-spacing: -.05em;
      }

      .cls-9 {
        letter-spacing: -.11em;
      }

      .cls-10, .cls-11, .cls-12 {
        stroke-width: 0px;
      }

      .cls-2 {
        font-family: Helvetica, Helvetica;
      }

      .cls-11 {
        fill: #27aae1;
      }

      .cls-12 {
        fill: #fff;
      }
    </style>
  </defs>
  <g id="Notes">
    <rect id="artboard" class="cls-12" width="3300" height="2200"/>
    <line class="cls-5" x1="263" y1="292" x2="3036" y2="292"/>
    <text class="cls-1" transform="translate(251.12 338.46)"><tspan class="cls-3" x="0" y="0">W</tspan><tspan x="12.04" y="0">eight/Scale </tspan><tspan class="cls-8" x="84.29" y="0">V</tspan><tspan x="92.25" y="0">ariations</tspan></text>
    <text class="cls-2" transform="translate(522.18 338.46)"><tspan x="0" y="0">Ultralight</tspan></text>
    <text class="cls-2" transform="translate(831.9 338.46)"><tspan x="0" y="0">Thin</tspan></text>
    <text class="cls-2" transform="translate(1127.15 338.46)"><tspan x="0" y="0">Light</tspan></text>
    <text class="cls-2" transform="translate(1415.2 338.46)"><tspan x="0" y="0">Regular</tspan></text>
    <text class="cls-2" transform="translate(1711.56 338.46)"><tspan x="0" y="0">Medium</tspan></text>
    <text class="cls-2" transform="translate(2004.29 338.46)"><tspan x="0" y="0">Semibold</tspan></text>
    <text class="cls-2" transform="translate(2315.09 338.46)"><tspan x="0" y="0">Bold</tspan></text>
    <text class="cls-2" transform="translate(2606.38 338.46)"><tspan x="0" y="0">Heavy</tspan></text>
    <text class="cls-2" transform="translate(2905.62 338.46)"><tspan x="0" y="0">Black</tspan></text>
    <line class="cls-5" x1="263" y1="1903" x2="3036" y2="1903"/>
    <path class="cls-10" d="m272.24,1933.84c4.3,0,7.9-3.58,7.9-7.88s-3.6-7.88-7.9-7.88-7.88,3.58-7.88,7.88,3.6,7.88,7.88,7.88h0Zm0-1.5c-3.54,0-6.38-2.84-6.38-6.4s2.82-6.4,6.36-6.4,6.4,2.84,6.4,6.4-2.82,6.4-6.38,6.4h0Zm-3.58-6.4c0,.42.3.72.76.72h2.1v2.14c0,.44.3.74.72.74s.74-.3.74-.74v-2.12h2.12c.44,0,.74-.3.74-.72s-.3-.74-.74-.74h-2.12v-2.1c0-.44-.3-.76-.74-.76s-.72.3-.72.76v2.08h-2.12c-.44,0-.74.3-.74.74Z"/>
    <path class="cls-10" d="m293.21,1935.92c5.44,0,9.96-4.52,9.96-9.96s-4.52-9.96-9.98-9.96-9.96,4.52-9.96,9.96c.02,5.42,4.54,9.96,9.98,9.96Zm0-1.66c-4.6,0-8.3-3.7-8.3-8.3s3.68-8.3,8.28-8.3,8.32,3.68,8.32,8.28-3.68,8.32-8.3,8.32h0Zm-4.52-8.32c0,.48.34.8.84.8h2.88v2.88c0,.48.34.84.82.84s.84-.34.84-.84v-2.88h2.84c.48,0,.84-.32.84-.8s-.34-.84-.84-.84h-2.88v-2.88c0-.5-.34-.84-.84-.84s-.82.34-.82.84v2.88h-2.86c-.5.02-.82.36-.82.84Z"/>
    <path class="cls-10" d="m319.9,1938.66c6.96,0,12.72-5.76,12.72-12.72s-5.78-12.72-12.74-12.72-12.7,5.76-12.7,12.72,5.76,12.72,12.72,12.72h0Zm0-1.82c-6.04,0-10.88-4.86-10.88-10.9s4.84-10.9,10.88-10.9,10.9,4.86,10.9,10.9c-.02,6.04-4.86,10.9-10.9,10.9h0Zm-5.78-10.9c0,.52.38.88.92.88h3.94v3.96c0,.54.38.92.88.92.54,0,.9-.38.9-.92v-3.96h3.96c.54,0,.92-.36.92-.88s-.38-.92-.92-.92h-3.94v-3.94c0-.54-.38-.92-.9-.92s-.88.38-.88.92v3.94h-3.96c-.54.02-.92.38-.92.92Z"/>
    <text class="cls-1" transform="translate(251.12 1969.46)"><tspan x="0" y="0">Design </tspan><tspan class="cls-8" x="46.95" y="0">V</tspan><tspan x="54.91" y="0">ariations</tspan></text>
    <text class="cls-2" transform="translate(251.12 1987.46)"><tspan x="0" y="0">Symbols are supported in up to nine weights and three scales.</tspan></text>
    <text class="cls-2" transform="translate(251.12 2005.46)"><tspan x="0" y="0">For optimal layout with text and other symbols, vertically align</tspan></text>
    <text class="cls-2" transform="translate(251.12 2023.46)"><tspan x="0" y="0">symbols with the adjacent text.</tspan></text>
    <line class="cls-4" x1="776" y1="1919" x2="776" y2="1933"/>
    <path class="cls-10" d="m779.32,1933.16c.52,0,.78-.2.96-.74l1.26-3.44h5.76l1.26,3.44c.18.54.44.74.94.74s.84-.32.84-.8c0-.16-.02-.32-.1-.52l-4.58-12.2c-.22-.6-.62-.9-1.24-.9s-1.02.3-1.24.88l-4.58,12.22c-.08.2-.1.36-.1.52,0,.5.3.8.82.8Zm2.68-5.68l2.38-6.58h.04l2.38,6.58h-4.8Z"/>
    <line class="cls-4" x1="792.8" y1="1919" x2="792.8" y2="1933"/>
    <text class="cls-1" transform="translate(764.12 1969.46)"><tspan x="0" y="0">Margins</tspan></text>
    <text class="cls-2" transform="translate(764.12 1987.46)"><tspan x="0" y="0">Leading and trailing margins on the left and right side of each symbol</tspan></text>
    <text class="cls-2" transform="translate(764.12 2005.46)"><tspan x="0" y="0">can be adjusted by modifying the x-location of the margin guidelines.</tspan></text>
    <text class="cls-2" transform="translate(764.12 2023.46)"><tspan x="0" y="0">Modifications are automatically applied proportionally to all</tspan></text>
    <text class="cls-2" transform="translate(764.12 2041.46)"><tspan x="0" y="0">scales and weights.</tspan></text>
    <path class="cls-10" d="m1291.84,1934.86l1.7,1.7c.86.86,1.84.82,2.78-.22l10.68-11.76-.96-.98-10.62,11.68c-.36.4-.68.5-1.16.02l-1.18-1.16c-.46-.46-.36-.8.04-1.16l11.48-10.8-.98-.96-11.6,10.88c-.96.92-1.04,1.9-.18,2.76h0Zm6.42-18.18c-.42.42-.44.98-.22,1.38.24.36.7.6,1.34.42,1.46-.34,2.98-.4,4.42.54l-.6,1.46c-.34.84-.16,1.42.38,1.96l2.3,2.32c.48.48.9.5,1.46.42l1.06-.2.66.68-.04.56c-.04.5.08.88.58,1.36l.76.74c.48.48,1.1.5,1.56.04l2.92-2.92c.46-.46.44-1.06-.02-1.54l-.78-.76c-.48-.48-.84-.64-1.32-.6l-.58.04-.64-.64.24-1.12c.12-.56-.02-1-.62-1.6l-2.2-2.18c-3.34-3.34-7.78-3.26-10.66-.36h0Zm1.5.36c2.44-1.78,5.72-1.48,7.94.76l2.44,2.4c.24.24.28.42.2.76l-.32,1.48,1.5,1.48.98-.06c.26,0,.34,0,.52.2l.58.58-2.44,2.44-.58-.58c-.2-.2-.22-.28-.22-.54l.06-.98-1.5-1.48-1.52.26c-.32.06-.46.04-.72-.2l-2-2c-.26-.24-.28-.4-.12-.78l.88-2.08c-1.56-1.46-3.6-2.08-5.62-1.48-.14.06-.2-.06-.06-.18h0Z"/>
    <text class="cls-1" transform="translate(1277.12 1969.46)"><tspan x="0" y="0">Exporting</tspan></text>
    <text class="cls-2" transform="translate(1277.12 1987.46)"><tspan x="0" y="0">Symbols should be outlined when exporting to ensure the</tspan></text>
    <text class="cls-2" transform="translate(1277.12 2005.46)"><tspan x="0" y="0">design is preserved when submitting to Xcode.</tspan></text>
    <text id="template-version" class="cls-2" transform="translate(2940.53 1949.46)"><tspan class="cls-9" x="0" y="0">T</tspan><tspan x="6.5" y="0">emplate </tspan><tspan class="cls-7" x="56.36" y="0">v</tspan><tspan x="61.9" y="0">.5.0</tspan></text>
    <text class="cls-2" transform="translate(2853.58 1967.46)"><tspan x="0" y="0">Requires Xcode 15 or greater</tspan></text>
    <text id="descriptive-name" class="cls-2" transform="translate(2899.13 1985.46)"><tspan x="0" y="0">Generated from circle</tspan></text>
    <text class="cls-2" transform="translate(2889.69 2003.46)"><tspan class="cls-8" x="0" y="0">T</tspan><tspan x="7.23" y="0">ypeset at 100.0 points</tspan></text>
    <text class="cls-2" transform="translate(251.12 742.46)"><tspan x="0" y="0">Small</tspan></text>
    <text class="cls-2" transform="translate(251.12 1172.46)"><tspan x="0" y="0">Medium</tspan></text>
    <text class="cls-2" transform="translate(251.12 1602.46)"><tspan x="0" y="0">Large</tspan></text>
  </g>
  <g id="Guides">
    <g id="H-reference">
      <path class="cls-11" d="m280,467h2.6l25.7-67.1h.7v-3.3h-1.9l-27.1,70.4Zm10.7-24.5h35.3l-.8-2.2h-33.8l-.7,2.2Zm43.4,24.5h2.6l-27.1-70.5h-1.2v3.3l25.7,67.2Z"/>
    </g>
    <line id="Baseline-S" class="cls-6" x1="203" y1="467" x2="2976" y2="467"/>
    <line id="Capline-S" class="cls-6" x1="203" y1="396.5" x2="2976" y2="396.5"/>
    <g id="H-reference-2" data-name="H-reference">
      <path class="cls-11" d="m280,897h2.6l25.7-67.1h.7v-3.3h-1.9l-27.1,70.4Zm10.7-24.5h35.3l-.8-2.2h-33.8l-.7,2.2Zm43.4,24.5h2.6l-27.1-70.5h-1.2v3.3l25.7,67.2Z"/>
    </g>
    <line id="Baseline-M" class="cls-6" x1="203" y1="897" x2="2976" y2="897"/>
    <line id="Capline-M" class="cls-6" x1="203" y1="826.5" x2="2976" y2="826.5"/>
    <g id="H-reference-3" data-name="H-reference">
      <path class="cls-11" d="m280,1327h2.6l25.7-67.1h.7v-3.3h-1.9l-27.1,70.4Zm10.7-24.5h35.3l-.8-2.2h-33.8l-.7,2.2Zm43.4,24.5h2.6l-27.1-70.5h-1.2v3.3l25.7,67.2Z"/>
    </g>
    <line id="Baseline-L" class="cls-6" x1="203" y1="1327" x2="2976" y2="1327"/>
    <line id="Capline-L" class="cls-6" x1="203" y1="1256.5" x2="2976" y2="1256.5"/>
    <line id="left-margin-Regular-M" class="cls-4" x1="1331.3" y1="801.8" x2="1331.3" y2="921.1"/>
    <line id="right-margin-Regular-M" class="cls-4" x1="1448.4" y1="801.8" x2="1448.4" y2="921.1"/>
  </g>
  <g id="Regular-M">
    <path class="cls-10" d="m1445.28,858.52c-4.43,4.85-11.62,5.03-17.81,5.65h0c-4.47.43-9.02.77-13.63,1,3.56,13.14,6.86,23.47,5.66,37.82.06,6.41-2.76,13.12-8.05,16.05-6.32,2.48-13.22,2.18-19.86,2.26-7.08-.26-14.7.81-21.23-2.82-5.52-2.98-7.07-10.43-7.51-16.69-.5-14.26,2.2-24.01,5.75-37-9.39-.58-18.67-1.45-27.61-2.55-4.7-1.08-8.29-4.65-9.75-9.07-2.71-8.81.75-18.22,6.05-25.47,11.63-15.6,31.15-25.42,51.04-25.95h0c11.37-.15,22.67,2.65,32.64,7.89,11.2,6.1,21.43,14.89,26.23,26.66,3.01,7.04,3.41,16.07-1.92,22.2Zm-76.54-25.76c.95,2.62,3.43,4.53,6.33,4.64,4.02.16,7.34-3.05,7.34-7.04,0-2.82-.77-3.27-1-3.62m1.38-.31l-15.52,5.64m30.67-5.02c-.22.34-1,.8-1,3.62,0,3.99,3.31,7.2,7.34,7.04,2.91-.12,5.38-2.03,6.33-4.64m-14.05-6.32l15.52,5.64m-1.71,20.76c-2.82-1.76-9.92-5.66-19.79-5.65-9.82.01-16.89,3.89-19.71,5.65l1.33,3.17c2.94-1.65,9.44-4.77,18.26-4.81,8.89-.04,15.46,3.09,18.41,4.72.5-1.02,1-2.05,1.5-3.07Z"/>
  </g>
</svg>