<?xml version="1.0" encoding="UTF-8"?>
<svg id="Layer_3" data-name="Layer 3" xmlns="http://www.w3.org/2000/svg" viewBox="0 0 844.29 870.46">
  <defs>
    <style>
      .cls-1 {
        fill: none;
        stroke: #000;
        stroke-miterlimit: 10;
        stroke-width: 12px;
      }
    </style>
  </defs>
  <g>
    <path class="cls-1" d="m189.18,152.76V60.02c-2.72-.16-4.84-2.41-4.84-5.13v-26.18c0-2.72,2.12-4.98,4.84-5.13v-2.08c0-8.56,6.94-15.5,15.51-15.5h62.42c8.51.05,15.36,6.99,15.31,15.5v2.08c2.73.15,4.89,2.39,4.93,5.13v26.08c-.04,2.74-2.2,4.98-4.93,5.13v177.78c0,3.12.2,6.07.57,8.87"/>
    <path class="cls-1" d="m347.5,559.38v272.1c-.05,18.27-14.91,33.04-33.18,32.98h-157.14c-18.27-.05-33.04-14.91-32.99-33.18v-48.59l223.31-223.31Z"/>
    <path class="cls-1" d="m347.5,410.08v50.3l-160.46,160.46-18.55,18.55-44.3,44.3v-285.6c0-95.55,54.76-103.39,63.74-147.58l30.74,30.74,128.83,128.83Z"/>
    <path class="cls-1" d="m431.78,376.1c.49-3.07,1.09-6.12,1.8-9.16l36.33-168.37h139.4"/>
    <path class="cls-1" d="m685.21,221.67l31.43,144.83c5.42,23.6,4.47,48.22-2.74,71.34-16.83,51.6-60.86,89.64-114.37,98.78-3.36,5.76-6.21,11.76-8.54,17.95"/>
    <path class="cls-1" d="m583.4,645.98v114.32c0,85.4,95.6,71.24,113.6,91.43,5.1,5.85-20.82,9.06-50.7,10.79-27.33,1.59-57.97,1.94-71.24,1.94-.11,0-132.48-1.75-122.49-12.73,18-20.19,113.71-6.03,113.71-91.43v-131.44"/>
  </g>
  <g id="Layer_2" data-name="Layer 2">
    <polygon class="cls-1" points="471.65 435.23 685.21 221.67 835.81 71.07 786.31 21.57 609.31 198.57 431.78 376.1 422.15 385.73 282.99 246.57 57.99 21.57 8.49 71.07 218.67 281.25 347.5 410.08 372.65 435.23 347.5 460.38 187.04 620.84 168.49 639.39 124.19 683.69 8.49 799.39 57.99 848.89 124.19 782.69 347.5 559.38 422.15 484.73 786.31 848.89 835.81 799.39 590.99 554.57 471.65 435.23"/>
  </g>
</svg>