<?xml version="1.0" encoding="utf-8"?>
<!-- Generator: Adobe Illustrator 27.8.0, SVG Export Plug-In . SVG Version: 6.00 Build 0)  -->
<svg version="1.1" id="Layer_1" xmlns="http://www.w3.org/2000/svg" xmlns:xlink="http://www.w3.org/1999/xlink" x="0px" y="0px"
	 viewBox="0 0 3300 2200" style="enable-background:new 0 0 3300 2200;" xml:space="preserve">
<style type="text/css">
	.st0{fill:#FFFFFF;}
	.st1{fill:none;stroke:#000000;stroke-width:0.5;}
	.st2{font-family:'Helvetica-Bold';}
	.st3{font-size:13px;}
	.st4{font-family:'Helvetica';}
	.st5{fill:none;stroke:#00AEEF;stroke-width:0.5;}
	.st6{fill:#27AAE1;}
	.st7{fill:none;stroke:#27AAE1;stroke-width:0.5;}
	.st8{stroke:#000000;stroke-width:0.5;}
</style>
<g id="Notes">
	<rect id="artboard" class="st0" width="3300" height="2200"/>
	<line class="st1" x1="263" y1="292" x2="3036" y2="292"/>
	<text transform="matrix(1 0 0 1 251.1189 338.4559)" class="st2 st3">Weight/Scale Variations</text>
	<text transform="matrix(1 0 0 1 522.1822 338.4559)" class="st4 st3">Ultralight</text>
	<text transform="matrix(1 0 0 1 831.8964 338.4559)" class="st4 st3">Thin</text>
	<text transform="matrix(1 0 0 1 1127.1539 338.4559)" class="st4 st3">Light</text>
	<text transform="matrix(1 0 0 1 1415.1962 338.4559)" class="st4 st3">Regular</text>
	<text transform="matrix(1 0 0 1 1711.5608 338.4559)" class="st4 st3">Medium</text>
	<text transform="matrix(1 0 0 1 2004.2908 338.4559)" class="st4 st3">Semibold</text>
	<text transform="matrix(1 0 0 1 2315.0894 338.4559)" class="st4 st3">Bold</text>
	<text transform="matrix(1 0 0 1 2606.3848 338.4559)" class="st4 st3">Heavy</text>
	<text transform="matrix(1 0 0 1 2905.6243 338.4559)" class="st4 st3">Black</text>
	<line class="st1" x1="263" y1="1903" x2="3036" y2="1903"/>
	<g transform="matrix(0.2 0 0 0.2 263 1933)">
		<path d="M46.2,4.2c21.5,0,39.5-17.9,39.5-39.4s-18-39.4-39.5-39.4S6.8-56.7,6.8-35.2S24.8,4.2,46.2,4.2L46.2,4.2z M46.2-3.3
			c-17.7,0-31.9-14.2-31.9-32s14.1-32,31.8-32c17.8,0,32,14.2,32,32S64-3.3,46.2-3.3L46.2-3.3z M28.3-35.3c0,2.1,1.5,3.6,3.8,3.6
			h10.5V-21c0,2.2,1.5,3.7,3.6,3.7c2.2,0,3.7-1.5,3.7-3.7v-10.6h10.6c2.2,0,3.7-1.5,3.7-3.6c0-2.2-1.5-3.7-3.7-3.7H49.9v-10.5
			c0-2.2-1.5-3.8-3.7-3.8c-2.1,0-3.6,1.5-3.6,3.8V-39H32C29.8-39,28.3-37.5,28.3-35.3z"/>
	</g>
	<g transform="matrix(0.2 0 0 0.2 281.506 1933)">
		<path d="M58.5,14.6c27.2,0,49.8-22.6,49.8-49.8S85.7-85,58.4-85C31.2-85,8.6-62.4,8.6-35.2C8.7-8.1,31.3,14.6,58.5,14.6z
			 M58.5,6.3C35.5,6.3,17-12.2,17-35.2s18.4-41.5,41.4-41.5S100-58.3,100-35.3S81.6,6.3,58.5,6.3L58.5,6.3z M35.9-35.3
			c0,2.4,1.7,4,4.2,4h14.4v14.4c0,2.4,1.7,4.2,4.1,4.2c2.4,0,4.2-1.7,4.2-4.2v-14.4H77c2.4,0,4.2-1.6,4.2-4s-1.7-4.2-4.2-4.2H62.6
			v-14.4c0-2.5-1.7-4.2-4.2-4.2c-2.4,0-4.1,1.7-4.1,4.2v14.4H40C37.5-39.4,35.9-37.7,35.9-35.3z"/>
	</g>
	<g transform="matrix(0.2 0 0 0.2 304.924 1933)">
		<path d="M74.9,28.3c34.8,0,63.6-28.8,63.6-63.6s-28.9-63.6-63.7-63.6S11.3-70.1,11.3-35.3C11.3-0.5,40.1,28.3,74.9,28.3L74.9,28.3
			z M74.9,19.2c-30.2,0-54.4-24.3-54.4-54.5s24.2-54.5,54.4-54.5s54.5,24.3,54.5,54.5C129.3-5.1,105.1,19.2,74.9,19.2L74.9,19.2z
			 M46-35.3c0,2.6,1.9,4.4,4.6,4.4h19.7v19.8c0,2.7,1.9,4.6,4.4,4.6c2.7,0,4.5-1.9,4.5-4.6v-19.8H99c2.7,0,4.6-1.8,4.6-4.4
			c0-2.7-1.9-4.6-4.6-4.6H79.3v-19.7c0-2.7-1.9-4.6-4.5-4.6s-4.4,1.9-4.4,4.6v19.7H50.6C47.9-39.8,46-38,46-35.3z"/>
	</g>
	<text transform="matrix(1 0 0 1 251.1189 1969.4561)" class="st2 st3">Design Variations</text>
	<text transform="matrix(1 0 0 1 251.1189 1987.4561)" class="st4 st3">Symbols are supported in up to nine weights and three scales.</text>
	<text transform="matrix(1 0 0 1 251.1189 2005.4561)" class="st4 st3">For optimal layout with text and other symbols, vertically align</text>
	<text transform="matrix(1 0 0 1 251.1189 2023.4561)" class="st4 st3">symbols with the adjacent text.</text>
	<line class="st5" x1="776" y1="1919" x2="776" y2="1933"/>
	<g transform="matrix(0.2 0 0 0.2 776 1933)">
		<path d="M16.6,0.8c2.6,0,3.9-1,4.8-3.7l6.3-17.2h28.8l6.3,17.2c0.9,2.7,2.2,3.7,4.7,3.7c2.6,0,4.2-1.6,4.2-4
			c0-0.8-0.1-1.6-0.5-2.6l-22.9-61c-1.1-3-3.1-4.5-6.2-4.5c-3,0-5.1,1.5-6.2,4.4L13-5.8c-0.4,1-0.5,1.8-0.5,2.6
			C12.5-0.7,14,0.8,16.6,0.8z M30-27.6l11.9-32.9h0.2L54-27.6H30z"/>
	</g>
	<line class="st5" x1="792.8" y1="1919" x2="792.8" y2="1933"/>
	<text transform="matrix(1 0 0 1 764.1189 1969.4561)" class="st2 st3">Margins</text>
	<text transform="matrix(1 0 0 1 764.1189 1987.4561)" class="st4 st3">Leading and trailing margins on the left and right side of each symbol</text>
	<text transform="matrix(1 0 0 1 764.1189 2005.4561)" class="st4 st3">can be adjusted by modifying the x-location of the margin guidelines.</text>
	<text transform="matrix(1 0 0 1 764.1189 2023.4561)" class="st4 st3">Modifications are automatically applied proportionally to all</text>
	<text transform="matrix(1 0 0 1 764.1189 2041.4561)" class="st4 st3">scales and weights.</text>
	<g transform="matrix(0.2 0 0 0.2 1289 1933)">
		<path d="M14.2,9.3l8.5,8.5c4.3,4.3,9.2,4.1,13.9-1.1L90-42.1L85.2-47L32.1,11.4c-1.8,2-3.4,2.5-5.8,0.1l-5.9-5.8
			c-2.3-2.3-1.8-4,0.2-5.8l57.4-54l-4.9-4.8l-58,54.4C10.3,0.1,9.9,5,14.2,9.3L14.2,9.3z M46.3-81.6c-2.1,2.1-2.2,4.9-1.1,6.9
			c1.2,1.8,3.5,3,6.7,2.1c7.3-1.7,14.9-2,22.1,2.7l-3,7.3c-1.7,4.2-0.8,7.1,1.9,9.8l11.5,11.6c2.4,2.4,4.5,2.5,7.3,2.1l5.3-1
			l3.3,3.4l-0.2,2.8c-0.2,2.5,0.4,4.4,2.9,6.8l3.8,3.7c2.4,2.4,5.5,2.5,7.8,0.2l14.6-14.6c2.3-2.3,2.2-5.3-0.1-7.7l-3.9-3.8
			c-2.4-2.4-4.2-3.2-6.6-3l-2.9,0.2l-3.2-3.2l1.2-5.6c0.6-2.8-0.1-5-3.1-8l-11-10.9C82.9-96.5,60.7-96.1,46.3-81.6L46.3-81.6z
			 M53.8-79.8C66-88.7,82.4-87.2,93.5-76l12.2,12c1.2,1.2,1.4,2.1,1,3.8l-1.6,7.4l7.5,7.4l4.9-0.3c1.3,0,1.7,0,2.6,1l2.9,2.9
			l-12.2,12.2l-2.9-2.9c-1-1-1.1-1.4-1.1-2.7l0.3-4.9l-7.5-7.4L92-46.2c-1.6,0.3-2.3,0.2-3.6-1l-10-10c-1.3-1.2-1.4-2-0.6-3.9
			l4.4-10.4c-7.8-7.3-18-10.4-28.1-7.4C53.4-78.6,53.1-79.2,53.8-79.8L53.8-79.8z"/>
	</g>
	<text transform="matrix(1 0 0 1 1277.1189 1969.4561)" class="st2 st3">Exporting</text>
	<text transform="matrix(1 0 0 1 1277.1189 1987.4561)" class="st4 st3">Symbols should be outlined when exporting to ensure the</text>
	<text transform="matrix(1 0 0 1 1277.1189 2005.4561)" class="st4 st3">design is preserved when submitting to Xcode.</text>
	<text id="template-version" transform="matrix(1 0 0 1 2940.533 1949.4561)" class="st4 st3">Template v.5.0</text>
	<text transform="matrix(1 0 0 1 2853.5764 1967.4561)" class="st4 st3">Requires Xcode 15 or greater</text>
	<text id="descriptive-name" transform="matrix(1 0 0 1 2899.1272 1985.4561)" class="st4 st3">Generated from circle</text>
	<text transform="matrix(1 0 0 1 2889.6882 2003.4561)" class="st4 st3">Typeset at 100.0 points</text>
	<text transform="matrix(1 0 0 1 251.1189 742.456)" class="st4 st3">Small</text>
	<text transform="matrix(1 0 0 1 251.1189 1172.4561)" class="st4 st3">Medium</text>
	<text transform="matrix(1 0 0 1 251.1189 1602.4559)" class="st4 st3">Large</text>
</g>
<g id="Guides">
	<g id="H-reference" transform="matrix(1 0 0 1 339 696)">
		<path class="st6" d="M1,0h2.6l25.7-67.1H30v-3.3h-1.9L1,0z M11.7-24.5H47l-0.8-2.2H12.4L11.7-24.5z M55.1,0h2.6L30.6-70.5h-1.2
			v3.3L55.1,0z"/>
	</g>
	<line id="Baseline-S" class="st7" x1="263" y1="696" x2="3036" y2="696"/>
	<line id="Capline-S" class="st7" x1="263" y1="625.5" x2="3036" y2="625.5"/>
	<g id="H-reference_00000124840260558566241990000017883549261666298033_" transform="matrix(1 0 0 1 339 1126)">
		<path class="st6" d="M1,0h2.6l25.7-67.1H30v-3.3h-1.9L1,0z M11.7-24.5H47l-0.8-2.2H12.4L11.7-24.5z M55.1,0h2.6L30.6-70.5h-1.2
			v3.3L55.1,0z"/>
	</g>
	<line id="Baseline-M" class="st7" x1="263" y1="1126" x2="3036" y2="1126"/>
	<line id="Capline-M" class="st7" x1="263" y1="1055.5" x2="3036" y2="1055.5"/>
	<g id="H-reference_00000137092774602797646200000003349162275951330231_" transform="matrix(1 0 0 1 339 1556)">
		<path class="st6" d="M1,0h2.6l25.7-67.1H30v-3.3h-1.9L1,0z M11.7-24.5H47l-0.8-2.2H12.4L11.7-24.5z M55.1,0h2.6L30.6-70.5h-1.2
			v3.3L55.1,0z"/>
	</g>
	<line id="Baseline-L" class="st7" x1="263" y1="1556" x2="3036" y2="1556"/>
	<line id="Capline-L" class="st7" x1="263" y1="1485.5" x2="3036" y2="1485.5"/>
	<line id="left-margin-Regular-M" class="st5" x1="1391.3" y1="1030.8" x2="1391.3" y2="1150.1"/>
	<line id="right-margin-Regular-M" class="st5" x1="1508.4" y1="1030.8" x2="1508.4" y2="1150.1"/>
</g>
<g id="Symbols">
	<g id="Regular-M" transform="matrix(1 0 0 1 1391.32 1126)">
		<path class="st8" d="M112.7-9.9v-75.5c0-13.7-6.9-20.7-20.5-20.7H22.4C8.8-106.1,2-99.2,2-85.4V14.6C2,28.2,8.8,35,22.2,35h85.2
			c2.9,0,5.3-2.3,5.3-5.3c0-2.3-1.6-4.3-3.7-5.1c-8.3-3.3-10-14-1.9-22.2C109.7-0.1,112.7-3.4,112.7-9.9z M48.8-62.7
			c2.1-2.8,4.9-5.1,8-6.7C60-71,63.6-72,67.1-72c4.1,0,8.1,1,11.7,2.9c4,2.1,7.7,5.3,9.4,9.5c1.1,2.6,1.2,5.8-0.7,8
			c-1.6,1.7-4.1,1.8-6.4,2c-1.6,0.2-3.4,0.3-5.1,0.4c1.3,4.8,2.6,9.1,2.1,14.1c0.1,2.1-1,4.4-2.9,5.3c-2.2,0.8-4.7,0.7-7.1,0.7
			c-2.6-0.1-5.3,0.3-7.7-1c-2-1-2.6-3.5-2.7-5.6c-0.2-5,0.9-9.1,2.2-13.8c-3.4-0.2-6.7-0.5-10-0.9c-1.7-0.4-3-1.7-3.5-3.3
			C45.7-56.8,46.9-60.1,48.8-62.7z M17-92.2c0-2.1,1.8-3.7,3.8-3.7c2,0,3.8,1.6,3.8,3.7V-9c0,2.1-1.7,3.8-3.8,3.8
			c-2,0-3.8-1.7-3.8-3.8V-92.2z M22.7,24.4c-6.6,0-10.2-3.6-10.2-9.9c0-5.9,4.2-9.7,10.8-9.7h67.6c0.9,0,1.6-0.1,2.3-0.2
			c-3.1,6.9-2.6,14.1,0.9,19.8H22.7z"/>
	</g>
</g>
</svg>
