<?xml version="1.0" encoding="UTF-8"?>
<svg id="Layer_1" data-name="Layer 1" xmlns="http://www.w3.org/2000/svg" viewBox="0 0 960.06 942">
  <defs>
    <style>
      .cls-1 {
        fill: none;
        stroke: #000;
        stroke-miterlimit: 10;
        stroke-width: 12px;
      }
    </style>
  </defs>
  <path class="cls-1" d="m555.65,613.19l61.04-79.89c-11.69-3.42-21.97-9.86-29.8-18.35l-31.24,40.89v-67.72c-8.38,2.63-17.34,4.05-26.66,4.05-17.35,0-33.49-4.93-46.89-13.39-4.91,27.94-25.35,50.95-52.69,60.93v100.13l-31.13-44.44c-8.9,13.03-21.16,24-35.69,31.95l66.82,95.37v183.66l-56.42,29.62h227.13l-44.47-63.47v-259.34Z"/>
  <path class="cls-1" d="m102.68,219.7c0,17.36,5.58,33.71,15.41,48-.45.31-.9.61-1.35.93-19.41,13.47-35.09,30.91-45.45,50.94-8.93,17.28-13.91,36.46-13.91,56.66,0,22.46,6.15,43.66,17.04,62.36-39.97-12.44-68.42-44.59-68.42-82.28,0-27.44,15.08-51.94,38.7-68.04-5.22-10.42-8.1-21.86-8.1-33.85,0-42.39,35.99-77.76,83.84-85.99-11.29,15.05-17.77,32.57-17.77,51.28Z"/>
  <path class="cls-1" d="m786.69,207.53c0,3.95-.3,7.84-.87,11.67-1.07,7.24-3.14,14.25-6.1,20.94-6.32-5.14-13.19-9.7-20.51-13.59-8.45-4.51-17.52-8.12-27.05-10.7-11.11-3.02-22.86-4.63-35-4.63-3.37,0-6.71.13-10.01.37-41.58,3.07-77.5,25.1-98.01,56.92-3.17-18.37-10.2-35.5-20.31-50.65-9.13-13.69-20.76-25.75-34.28-35.61-16.76-12.24-36.45-21.09-57.91-25.51-10.06-2.07-20.51-3.16-31.23-3.16-19,0-37.15,3.43-53.79,9.66-13.52,5.07-26.05,11.98-37.23,20.41-8.72,6.59-16.63,14.1-23.55,22.39-13.87,16.62-23.76,36.34-28.28,57.87-16.74-10.3-35.89-17.78-56.56-21.66-10.55-1.99-21.5-3.04-32.73-3.04-35.83,0-68.85,10.63-95.18,28.5-9.83-14.29-15.41-30.64-15.41-48,0-18.7,6.47-36.22,17.77-51.28,14.42-19.21,36.69-34.39,63.38-42.85,15.1-4.79,31.62-7.44,48.92-7.44.23,0,.47,0,.7.01-.46-3.48-.7-7.01-.7-10.59,0-26.34,12.84-50.34,33.9-68.38,23.78-20.39,58.06-33.18,96.16-33.18,33.77,0,64.52,10.05,87.64,26.52,17.54,12.49,30.69,28.69,37.4,47,.39-.01.79-.01,1.2-.01,11.26,0,22.07,1.71,32.13,4.88,5.19-17.14,16.02-32.2,30.57-43.46,17.06-13.2,39.26-21.18,63.53-21.18,45.17,0,83.17,27.64,94.27,65.16,2.14,7.23,3.28,14.82,3.28,22.65,0,3.11-.18,6.18-.54,9.2,35.51,12.8,62.22,37.92,71.16,68.32,2.12,7.21,3.24,14.73,3.24,22.45Z"/>
  <path class="cls-1" d="m232.74,107.56c0,3.58.24,7.11.7,10.59-.23-.01-.47-.01-.7-.01-17.3,0-33.82,2.64-48.92,7.44-1.28-5.07-1.95-10.35-1.95-15.76,0-39.14,35.07-70.88,78.33-70.88,2.17,0,4.31.08,6.44.24-21.06,18.05-33.9,42.04-33.9,68.38Z"/>
  <path class="cls-1" d="m551.75,40.93c-14.56,11.26-25.38,26.32-30.57,43.46-10.06-3.16-20.88-4.88-32.13-4.88-.4,0-.8,0-1.2.01-6.71-18.31-19.86-34.51-37.4-47,12.42-8.82,28.37-14.12,45.77-14.12,22.39,0,42.39,8.77,55.53,22.53Z"/>
  <path class="cls-1" d="m864.5,473.87c0,53.93-46.45,97.65-103.75,97.65-37.16,0-69.75-18.37-88.07-45.99-10.43,6.65-23.01,10.55-36.56,10.55-6.77,0-13.29-.97-19.43-2.78-11.69-3.42-21.97-9.86-29.8-18.35-8.48-9.17-14.1-20.75-15.59-33.48-4.92,2.7-10.16,4.94-15.65,6.65-8.38,2.63-17.34,4.05-26.66,4.05-17.35,0-33.49-4.93-46.89-13.39-4.91,27.94-25.35,50.95-52.69,60.93-4.91,1.81-10.05,3.18-15.36,4.09.02.42.02.85.02,1.27,0,18.45-5.77,35.69-15.79,50.33-8.9,13.03-21.16,24-35.69,31.95-16.22,8.88-35.26,13.99-55.63,13.99-59.16,0-107.11-43.1-107.11-96.27,0-11.2,2.13-21.96,6.05-31.96-57.42-2.34-106.72-31.99-131.48-74.52-10.9-18.7-17.05-39.9-17.05-62.36,0-20.21,4.99-39.39,13.92-56.66,10.36-20.03,26.03-37.48,45.44-50.94.45-.32.9-.63,1.35-.93,26.33-17.87,59.34-28.5,95.18-28.5,11.22,0,22.18,1.04,32.72,3.03,20.67,3.87,39.83,11.35,56.56,21.66,4.53-21.53,14.41-41.25,28.28-57.87,6.92-8.28,14.82-15.8,23.55-22.39,11.18-8.43,23.7-15.34,37.23-20.4,16.64-6.23,34.79-9.66,53.79-9.66,10.72,0,21.17,1.09,31.24,3.16,21.46,4.41,41.14,13.27,57.9,25.51,13.52,9.86,25.15,21.92,34.29,35.61,10.11,15.15,17.14,32.28,20.31,50.65,20.5-31.81,56.42-53.85,98.01-56.92,3.3-.24,6.64-.37,10.01-.37,12.14,0,23.89,1.62,35,4.64,9.54,2.57,18.6,6.19,27.06,10.69,7.32,3.9,14.19,8.46,20.51,13.6,11.95,9.74,21.96,21.56,29.35,34.87,9.14,16.44,14.32,35.15,14.32,55,0,9.01-1.07,17.78-3.08,26.22-2.61,10.87-6.8,21.17-12.33,30.68,24.22,11.68,42.93,32.06,51.46,56.76,3.28,9.51,5.06,19.65,5.06,30.2Z"/>
  <path class="cls-1" d="m954.06,356.31c0,45.51-41.49,82.94-94.62,87.36-8.53-24.7-27.24-45.08-51.46-56.76,5.53-9.51,9.72-19.81,12.33-30.68,2.01-8.44,3.08-17.21,3.08-26.23,0-19.85-5.17-38.56-14.32-55-7.39-13.31-17.4-25.13-29.35-34.87,2.96-6.69,5.03-13.7,6.1-20.94.57-3.83.87-7.72.87-11.67,0-7.72-1.12-15.23-3.24-22.45-8.94-30.4-35.65-55.52-71.16-68.32.35-3.03.54-6.09.54-9.2,0-7.83-1.14-15.42-3.28-22.65,10.54-3.48,22.05-5.4,34.12-5.4,50.23,0,90.95,33.15,90.95,74.05,0,9.79-2.33,19.13-6.56,27.67,52.59,4.85,93.49,42.06,93.49,87.26,0,7.53-1.14,14.85-3.28,21.82,21.95,16.09,35.8,39.68,35.8,65.98Z"/>
</svg>