<?xml version="1.0" encoding="utf-8"?>
<!-- Generator: Adobe Adobe Illustrator 24.2.0, SVG Export Plug-In . SVG Version: 6.00 Build 0)  -->
<svg version="1.1" id="Layer_1" xmlns="http://www.w3.org/2000/svg" xmlns:xlink="http://www.w3.org/1999/xlink" x="0px" y="0px"
	 width="1024px" height="1024px" viewBox="0 0 1024 1024" style="enable-background:new 0 0 1024 1024;" xml:space="preserve">
<style type="text/css">
	.st0{fill:none;stroke:#000000;stroke-width:16;stroke-miterlimit:10;}
	.st1{fill:none;stroke:#000000;stroke-width:16;stroke-linecap:round;stroke-miterlimit:10;}
</style>
<g>
	<line class="st0" x1="364.32" y1="547.31" x2="364.32" y2="1024"/>
	<path class="st0" d="M457.12,583.95c0,53.69-40.45,97.92-92.53,103.89c-0.01,0.01-0.01,0.02,0,0.03c-0.04,0-0.08,0-0.11-0.01
		c-0.07,0-0.14-0.01-0.21-0.03c-52.05-6.01-92.45-50.22-92.45-103.88c0-1.89,0.05-3.77,0.16-5.64
		c52.04,6.02,92.45,50.24,92.45,103.9c0-53.69,40.45-97.93,92.53-103.9C457.07,580.18,457.12,582.06,457.12,583.95z"/>
	<path class="st0" d="M512.93,764.71c0,86.03-64.82,156.91-148.27,166.47c-0.02,0.02-0.02,0.03,0,0.05c-0.06,0-0.13,0-0.18-0.02
		c-0.11,0-0.22-0.02-0.34-0.05c-83.41-9.63-148.14-80.47-148.14-166.46c0-3.03,0.08-6.04,0.26-9.04
		c83.39,9.65,148.14,80.5,148.14,166.49c0-86.03,64.82-156.92,148.27-166.49C512.85,758.67,512.93,761.68,512.93,764.71z"/>
	<path class="st0" d="M434.06,506.14c-13.56,24.55-39.71,41.17-69.74,41.17c-29.93,0-56-16.51-69.6-40.92
		c21.29-4.6,44.29-22.31,60.14-48.78c4.11-6.86,7.47-13.86,10.09-20.84c2.62,6.98,5.98,13.98,10.09,20.84
		C390.61,483.61,413.08,501.17,434.06,506.14z"/>
	<path class="st0" d="M559.34,401.01c0,42.95-33.99,77.94-76.52,79.57c7.56-21.17,3.18-51.5-13.54-79.41
		c-2.77-4.62-5.75-8.97-8.91-13.03c5.34,0.68,10.85,1.04,16.5,1.04c30.8,0,57.78-10.6,72.68-26.46
		C555.79,374.08,559.34,387.13,559.34,401.01z"/>
	<path class="st0" d="M559.34,267.48c0,13.89-3.55,26.94-9.79,38.3c-14.9-15.87-41.88-26.46-72.68-26.46
		c-5.88,0-11.61,0.39-17.15,1.12c3.4-4.3,6.6-8.93,9.56-13.87c16.52-27.58,20.99-57.52,13.8-78.65
		C525.49,189.68,559.34,224.63,559.34,267.48z"/>
	<path class="st0" d="M433.68,161.68c-20.87,5.1-43.16,22.59-58.64,48.44c-4.11,6.86-7.47,13.86-10.09,20.84
		c-2.62-6.98-5.98-13.98-10.09-20.84c-15.75-26.3-38.57-43.97-59.75-48.7c13.7-24.03,39.57-40.23,69.21-40.23
		C394.08,121.19,420.02,137.5,433.68,161.68z"/>
	<path class="st0" d="M270.03,280.27c-5.1-0.63-10.37-0.95-15.75-0.95c-31.9,0-59.69,11.36-74.21,28.17
		c-6.84-11.75-10.76-25.42-10.76-40.01c0-43.27,34.51-78.49,77.52-79.61c-7.22,21.13-2.75,51.09,13.78,78.7
		C263.53,271.44,266.69,276.02,270.03,280.27z"/>
	<path class="st0" d="M260.61,401.17c-16.73,27.93-21.11,58.29-13.51,79.45c-43.13-0.97-77.79-36.24-77.79-79.61
		c0-14.58,3.92-28.25,10.76-40c14.52,16.81,42.31,28.17,74.21,28.17c5.15,0,10.2-0.3,15.1-0.87
		C266.28,392.32,263.34,396.62,260.61,401.17z"/>
	<path class="st0" d="M549.55,305.78c-14.9-15.87-41.88-26.46-72.68-26.46c-5.88,0-11.61,0.39-17.15,1.12
		c3.4-4.3,6.6-8.93,9.56-13.87c16.52-27.58,20.99-57.52,13.8-78.65c-3.3-9.71-9.07-17.56-17.26-22.47
		c-9.32-5.58-20.5-6.6-32.13-3.77h-0.01c-20.87,5.1-43.16,22.59-58.64,48.44c-4.11,6.86-7.47,13.86-10.09,20.84
		c-2.62-6.98-5.98-13.98-10.09-20.84c-15.75-26.3-38.57-43.97-59.75-48.7c-11.24-2.5-22.01-1.37-31.03,4.03
		c-8.18,4.9-13.94,12.73-17.25,22.42c-7.22,21.13-2.75,51.09,13.78,78.7c2.92,4.87,6.08,9.45,9.42,13.7
		c-5.1-0.63-10.37-0.95-15.75-0.95c-31.9,0-59.69,11.36-74.21,28.17c-6.86,7.91-10.76,17.04-10.76,26.76
		c0,9.72,3.9,18.85,10.76,26.76c14.52,16.81,42.31,28.17,74.21,28.17c5.15,0,10.2-0.3,15.1-0.87c-3.1,4.01-6.04,8.31-8.77,12.86
		c-16.73,27.93-21.11,58.29-13.51,79.45c3.34,9.34,9.01,16.89,16.98,21.66c8.91,5.34,19.55,6.5,30.64,4.11
		c21.29-4.6,44.29-22.31,60.14-48.78c4.11-6.86,7.47-13.86,10.09-20.84c2.62,6.98,5.98,13.98,10.09,20.84
		c15.57,26,38.04,43.56,59.02,48.53c11.49,2.72,22.54,1.66,31.76-3.86c7.98-4.78,13.65-12.34,17-21.7
		c7.56-21.17,3.18-51.5-13.54-79.41c-2.77-4.62-5.75-8.97-8.91-13.03c5.34,0.68,10.85,1.04,16.5,1.04c30.8,0,57.78-10.6,72.68-26.46
		c7.8-8.3,12.29-18.04,12.29-28.47S557.35,314.08,549.55,305.78z M435.52,334.75c-0.06,9.28-1.89,18.14-5.19,26.25
		c-2.19,5.41-5.03,10.48-8.42,15.13c-5.78,7.95-13.17,14.65-21.68,19.62c-0.02,0.27-0.03,0.53-0.05,0.8
		c-0.24-0.13-0.48-0.25-0.72-0.36c-8.3,4.73-17.64,7.83-27.6,8.87c-2.48,0.27-4.99,0.4-7.54,0.4c-2.11,0-4.2-0.09-6.27-0.28
		c-10.43-0.9-20.21-4.06-28.86-8.99c-0.24,0.11-0.48,0.23-0.72,0.36c-0.02-0.27-0.03-0.53-0.05-0.8
		c-8.17-4.77-15.31-11.13-20.98-18.65c-3.57-4.74-6.57-9.93-8.88-15.49c-3.45-8.27-5.38-17.34-5.44-26.86
		c-0.25-0.18-0.5-0.34-0.75-0.5c0.25-0.16,0.5-0.32,0.75-0.5c0.06-9.74,2.08-19.02,5.69-27.46c2.28-5.33,5.19-10.32,8.63-14.89
		c5.67-7.52,12.8-13.88,20.97-18.65h0.01c0.02-0.26,0.03-0.53,0.05-0.79c0.23,0.12,0.47,0.24,0.71,0.35
		c8.64-4.92,18.42-8.08,28.83-8.99c2.08-0.19,4.18-0.28,6.31-0.28c2.56,0,5.09,0.13,7.57,0.4c9.95,1.05,19.29,4.15,27.58,8.87
		c0.24-0.11,0.47-0.23,0.71-0.35c0.02,0.26,0.03,0.53,0.05,0.79h0.01c8.51,4.98,15.89,11.68,21.67,19.62
		c3.27,4.48,6.02,9.35,8.17,14.53c3.45,8.28,5.38,17.34,5.44,26.85c0.25,0.17,0.5,0.34,0.75,0.5
		C436.02,334.41,435.77,334.58,435.52,334.75z"/>
</g>
<g>
	<line class="st1" x1="365.64" y1="289.6" x2="365.6" y2="303.88"/>
	<line class="st1" x1="366.51" y1="367.99" x2="366.47" y2="382.26"/>
	<line class="st1" x1="391.72" y1="351.59" x2="404.21" y2="358.51"/>
	<line class="st1" x1="326.94" y1="315.68" x2="339.43" y2="322.6"/>
	<line class="st1" x1="391.72" y1="322.6" x2="404.21" y2="315.68"/>
	<line class="st1" x1="326.94" y1="358.51" x2="339.43" y2="351.59"/>
</g>
<g>
	<circle class="st1" cx="617.91" cy="446.93" r="19"/>
	<circle class="st1" cx="617.41" cy="236.02" r="19"/>
	<circle class="st1" cx="660.53" cy="341.48" r="32.45"/>
</g>
<g>
	<circle class="st1" cx="113.74" cy="236.02" r="19"/>
	<circle class="st1" cx="113.74" cy="445.84" r="19"/>
	<circle class="st1" cx="72.32" cy="340.93" r="32.45"/>
</g>
<g>
	<path class="st0" d="M884.06,174.74l-28.21,17.95c-6.59,15.42-21.89,26.23-39.72,26.23h-53.14c-23.85,0-43.18-19.33-43.18-43.17
		v-0.36c0-22.31,16.92-40.67,38.64-42.94c1.44-0.16,2.91-0.24,4.4-0.24h53.28c1.53,0,3.04,0.08,4.53,0.24
		c1.27,0.13,2.52,0.31,3.75,0.56c13.32,2.58,24.46,11.29,30.35,23.09L884.06,174.74z"/>
	<line class="st0" x1="774.17" y1="132.21" x2="774.17" y2="218.92"/>
	<line class="st0" x1="816.13" y1="132.21" x2="816.13" y2="218.92"/>
	<circle class="st0" cx="744.68" cy="166.81" r="2.41"/>
	<path class="st0" d="M851.81,96.09c0,5.88-2.25,11.77-6.74,16.26l-20.66,20.66c-1.23-0.25-2.48-0.43-3.75-0.56
		c-1.49-0.16-3-0.24-4.53-0.24h-53.28c1.12-2.86,2.83-5.53,5.14-7.84l44.55-44.55c8.98-8.98,23.55-8.98,32.53,0
		C849.56,84.31,851.81,90.2,851.81,96.09z"/>
	<path class="st0" d="M791.71,100.65l-23.72,23.72c-2.31,2.31-4.02,4.98-5.14,7.84c-1.49,0-2.96,0.08-4.4,0.24l-20.09-20.1
		c-4.49-4.49-6.74-10.38-6.74-16.26c0-5.89,2.25-11.78,6.74-16.27c8.98-8.98,23.54-8.98,32.52,0L791.71,100.65z"/>
</g>
<g>
	<path class="st0" d="M792.81,452.51l28.21,17.95c6.59,15.42,21.89,26.23,39.72,26.23h53.14c23.85,0,43.18-19.33,43.18-43.17v-0.36
		c0-22.31-16.92-40.67-38.64-42.94c-1.44-0.16-2.91-0.24-4.4-0.24h-53.28c-1.53,0-3.04,0.08-4.53,0.24
		c-1.27,0.13-2.52,0.31-3.75,0.56c-13.32,2.58-24.46,11.29-30.35,23.09L792.81,452.51z"/>
	<line class="st0" x1="902.7" y1="409.98" x2="902.7" y2="496.69"/>
	<line class="st0" x1="860.74" y1="409.98" x2="860.74" y2="496.69"/>
	<circle class="st0" cx="932.19" cy="444.58" r="2.41"/>
	<path class="st0" d="M825.06,373.86c0,5.88,2.25,11.77,6.74,16.26l20.66,20.66c1.23-0.25,2.48-0.43,3.75-0.56
		c1.49-0.16,3-0.24,4.53-0.24h53.28c-1.12-2.86-2.83-5.53-5.14-7.84l-44.55-44.55c-8.98-8.98-23.55-8.98-32.53,0
		C827.31,362.08,825.06,367.97,825.06,373.86z"/>
	<path class="st0" d="M885.16,378.42l23.72,23.72c2.31,2.31,4.02,4.98,5.14,7.84c1.49,0,2.96,0.08,4.4,0.24l20.09-20.1
		c4.49-4.49,6.74-10.38,6.74-16.26c0-5.89-2.25-11.78-6.74-16.27c-8.98-8.98-23.54-8.98-32.52,0L885.16,378.42z"/>
</g>
<g>
	<path class="st0" d="M927.03,794.72c-49.36,0.11-98.55-18.18-135.84-50.53c-13.16-11.42-25.08-24.83-31.79-40.91
		c-7.88-18.88-7.95-40.89-0.18-59.82c7.77-18.93,23.27-34.54,42.15-42.44"/>
	<circle class="st0" cx="665.91" cy="776.12" r="14.85"/>
	<circle class="st0" cx="714.48" cy="765.46" r="14.85"/>
	<circle class="st0" cx="767.26" cy="818.24" r="14.85"/>
	<circle class="st0" cx="765.52" cy="875.73" r="14.85"/>
	<circle class="st0" cx="801.67" cy="641.08" r="14.85"/>
	<circle class="st0" cx="791.01" cy="689.65" r="14.85"/>
	<circle class="st0" cx="843.79" cy="742.43" r="14.85"/>
	<circle class="st0" cx="901.28" cy="740.69" r="14.85"/>
	<path class="st0" d="M788.61,736.42c20.12-20.1,47.52-39.26,55.84-66.46c4.82-15.76,1.21-25.75-7.3-39.87
		c-8.51-14.11-23.06-25.67-39.26-28.76"/>
	<path class="st0" d="M789.99,735.05c6.47-7.48,19.49-14.98,28.12-19.81c25.82-14.45,54.9-26.49,83.87-22.78
		c16.69,10.47,28.87,27.86,33.01,47.12c4.14,19.26-2.12,41.36-13.03,57.76"/>
	<path class="st0" d="M798.3,809.36c-7.73-15.62-17.41-30.28-28.83-43.45c-10.07-11.6-21.68-22.23-35.31-29.18
		c-1.83-0.94-3.71-1.81-5.61-2.61c-18.88-7.88-40.88-7.95-59.81-0.18c-18.39,7.54-33.65,22.39-41.75,40.53
		c3.59,15.44,14.79,29.21,28.36,37.4c14.11,8.51,24.11,12.12,39.87,7.3c23.82-7.29,41.49-29.21,59.01-48.06
		c0.32-0.33,0.64-0.68,0.95-1.01c1.69-2.04,3.4-3.88,5.12-5.36c-1.71,1.74-3.42,3.53-5.12,5.36c-0.3,0.35-0.59,0.72-0.89,1.09"/>
	<path class="st0" d="M798.3,809.36c13.64,27.6,21.22,58.2,21.67,88.99c0.02,1.12,0.03,2.26,0.03,3.39"/>
	<path class="st0" d="M822.62,896.67c-0.86,0.58-1.75,1.14-2.64,1.68c-16.08,9.86-36.87,15.27-55.12,11.35
		c-19.25-4.14-36.65-16.33-47.12-33.01c-3.71-28.96,8.34-58.05,22.79-83.87c3.51-6.29,8.46-14.92,13.77-21.64"/>
	<path class="st0" d="M741,706.02c-12.71-11.06-23.33-24.52-31.11-39.46c-3.04-5.83-5.71-12.19-5.21-18.74
		c0.5-6.55,5.09-13.21,11.62-13.99c3.15-0.38,6.36,0.64,9.04,2.35c4.26,2.71,7.41,7.59,6.9,12.61c-0.51,5.02-5.55,9.48-10.47,8.36"
		/>
	<path class="st0" d="M730.29,716.73c-11.06-12.71-24.52-23.33-39.46-31.11c-5.83-3.04-12.19-5.71-18.74-5.21
		s-13.21,5.09-13.99,11.62c-0.38,3.15,0.64,6.36,2.35,9.04c2.71,4.26,7.59,7.41,12.61,6.9s9.48-5.55,8.36-10.47"/>
	<path class="st0" d="M833.95,772.67c10.51,18.19,13.31,34.38,5.69,42c-7.52,7.52-23.43,4.89-41.33-5.31
		c-7.73-15.62-17.41-30.28-28.83-43.45c-10.07-11.6-21.68-22.23-35.31-29.18c-3.73-11.19-3.42-20.47,1.82-25.7
		c5.33-5.33,14.84-5.56,26.28-1.63"/>
</g>
</svg>
