<?xml version="1.0" encoding="UTF-8"?>
<svg id="Layer_1" data-name="Layer 1" xmlns="http://www.w3.org/2000/svg" viewBox="0 0 935.32 854.7">
  <defs>
    <style>
      .cls-1 {
        fill: none;
        stroke: #000;
        stroke-miterlimit: 10;
        stroke-width: 12px;
      }
    </style>
  </defs>
  <path class="cls-1" d="m921.04,762.06l-147.59-170.73,125.71,73.04c14.02-.06,26.19-21.36,29.37-51.44,3.78-35.78-6.33-71.54-22.58-79.86l-159.96-81.31s0,0-.01-.01l-10.74-19.03c-1.7-3.02-2.68-7.45-2.68-12.12V163.8s-.04-.04-.05,0c-13.09,53.75-94.06,112.95-218.33,125.24h0s-41.79,210.86-46.51,210.86c-10.21,0-46.55-210.96-46.56-210.99h0c-23.98-2.42-82.09-16.58-82.09-16.58,0,0-.03,191.98-.03,116.59v-116.62s0-.02-.02-.03c-22.72-7.2-57.95-25.44-75.47-35.46-.02-.01-.04-.05-.04-.02,0,0-.16,65.75-.16,56.99v-57.06s0-.02-.01-.02c-32.35-21.81-52.86-47.56-59.11-72.21-.01,0-.01-.01-.01-.01h0c-.47-.76-.93-1.51-1.4-2.27v258.4c0,4.67-.98,9.1-2.68,12.12l-10.74,19.04s0,0-.01.01l-159.95,81.3c-16.25,8.32-26.35,44.08-22.58,79.86,3.19,30.08,15.35,51.38,29.37,51.44l133.96-75.4L14.29,762.06c-9.89,17.56-11.11,48.58-2.71,69.28,4.45,10.99,10.98,17.34,17.84,17.36h40.39c31.78.08,63.23-13.44,92.43-39.74l75.35-67.6.26-.26,42.2-43.5-31.86,82.2c0,38.05,10.16,68.9,22.71,68.9h19.31c5.31-.01,10.46-5.66,14.54-15.99l48.05-121.44s.04-.02.05,0c4.89,7.1,9.38,15.63,13.35,25.49l19.56,49.18c15.79,39.8,39.22,62.8,63.91,62.76h36.03c24.71.07,48.16-22.94,63.95-62.76l19.56-49.18c3.93-9.79,8.42-18.32,13.33-25.47.01-.02.04-.02.05,0l48.04,121.35c4.07,10.33,9.22,15.98,14.53,15.98h19.32c12.52,0,22.68-30.78,22.71-68.78l-29.7-86.38,40.08,47.64.26.26,75.31,67.6c29.2,26.29,60.65,39.82,92.43,39.74h40.37c12.96-.05,23.44-22.09,23.41-49.24-.01-14.41-3.03-28.08-8.28-37.4Zm-657.72-139.8v-201.65c0-8.76,0,222.83,0,201.65Zm75.68,10.16v-116.68c0-8.76,0,135.02,0,116.68Zm118.74,59.73v-109.6c0-8.76,0,130.63,0,109.6Zm122.28-142.74l1.18-192.21c0-8.76-1.18,213.48-1.18,192.21Zm92.01,65.31v-130.69c0-8.76,0,139.45,0,130.69Zm0-209.96v-79.27c0-8.76,0,104.3,0,79.27Z"/>
  <ellipse class="cls-1" cx="468.27" cy="131.25" rx="209.91" ry="85.77"/>
  <ellipse class="cls-1" cx="467.66" cy="127.6" rx="143.25" ry="54.88"/>
  <ellipse class="cls-1" cx="468.27" cy="121.9" rx="63.31" ry="25.87"/>
  <path class="cls-1" d="m468.27,6c-156.83,0-266.13,75.21-266.13,142.69,0,5.17.68,10.44,2.04,15.77h0s0,.02.01.02c6.25,24.65,26.77,50.4,59.13,72.21,4.79,3.22,9.84,6.36,15.14,9.41,17.53,10.03,37.8,18.95,60.54,26.16,4.93,1.56,9.98,3.04,15.14,4.44,20.57,5.57,42.96,9.76,66.97,12.19.97.11,1.96.2,2.94.3v.35l41.81-29.04c1.57-1.09,3.25-1.09,4.82,0l41.81,29.04v-.35c.57-.06,1.13-.11,1.69-.17,124.44-12.3,205.45-71.65,218.38-125.45,1.22-5.02,1.83-10,1.83-14.88,0-67.48-109.29-142.69-266.13-142.69Z"/>
</svg>