<?xml version="1.0" encoding="utf-8"?>
<!-- Generator: Adobe Adobe Illustrator 24.2.0, SVG Export Plug-In . SVG Version: 6.00 Build 0)  -->
<svg version="1.1" id="Layer_1" xmlns="http://www.w3.org/2000/svg" xmlns:xlink="http://www.w3.org/1999/xlink" x="0px" y="0px"
	 width="1024px" height="1024px" viewBox="0 0 1024 1024" style="enable-background:new 0 0 1024 1024;" xml:space="preserve">
<style type="text/css">
	.st0{fill:none;stroke:#000000;stroke-width:16;stroke-miterlimit:10;}
</style>
<g>
	<path class="st0" d="M965.37,846.71L817.79,675.99l125.71,73.04c14.02-0.06,26.19-21.36,29.37-51.44
		c3.78-35.78-6.33-71.54-22.58-79.86l-159.96-81.31c0,0-0.01-0.01-0.01-0.01l-10.74-19.03c-1.7-3.02-2.68-7.45-2.68-12.12v-256.8
		c0-0.03-0.04-0.04-0.05-0.01c-13.09,53.75-94.05,112.95-218.33,125.24c0,0,0,0,0,0c0,0.02-41.79,210.86-46.51,210.86
		c-10.21,0-46.55-210.96-46.56-210.99c0,0,0,0,0,0c-23.98-2.42-82.09-16.58-82.09-16.58s-0.03,191.98-0.03,116.59V356.94
		c0-0.01-0.01-0.02-0.02-0.03c-22.72-7.2-57.95-25.44-75.47-35.46c-0.02-0.01-0.04-0.05-0.04-0.02c0,0-0.16,65.75-0.16,56.99v-57.06
		c0-0.01,0-0.02-0.01-0.02c-32.35-21.81-52.86-47.56-59.11-72.21c-0.01,0-0.01-0.01-0.01-0.01v-0.01c-0.47-0.74-0.93-1.5-1.4-2.25
		v258.4c0,4.67-0.98,9.1-2.68,12.12l-10.74,19.04c0,0-0.01,0.01-0.01,0.01l-159.95,81.3c-16.25,8.32-26.35,44.08-22.58,79.86
		c3.19,30.08,15.35,51.38,29.37,51.44l133.96-75.4L58.63,846.71c-9.89,17.56-11.11,48.58-2.71,69.28
		c4.45,10.99,10.98,17.34,17.84,17.36h40.39c31.78,0.08,63.23-13.44,92.43-39.74l75.35-67.6l0.26-0.26l42.2-43.5l-31.86,82.2
		c0,38.05,10.16,68.9,22.71,68.9h19.31c5.31-0.01,10.46-5.66,14.54-15.99l48.05-121.44c0.01-0.02,0.04-0.02,0.05-0.01
		c4.89,7.1,9.38,15.63,13.35,25.49l19.56,49.18c15.79,39.8,39.22,62.8,63.91,62.76h36.03c24.71,0.07,48.16-22.94,63.95-62.76
		l19.56-49.18c3.93-9.79,8.42-18.32,13.33-25.47c0.01-0.02,0.04-0.02,0.05,0.01l48.04,121.35c4.07,10.33,9.22,15.98,14.53,15.98
		h19.32c12.52,0,22.68-30.78,22.71-68.78l-29.7-86.38l40.08,47.64l0.26,0.26l75.31,67.6c29.2,26.29,60.65,39.82,92.43,39.74h40.37
		c12.96-0.05,23.44-22.09,23.41-49.24C973.65,869.7,970.63,856.04,965.37,846.71z M307.66,706.91V505.26
		C307.66,496.5,307.66,728.08,307.66,706.91z M383.34,717.07V600.39C383.34,591.63,383.34,735.41,383.34,717.07z M502.08,776.8
		V667.2C502.08,658.44,502.08,797.83,502.08,776.8z M624.35,634.06l1.18-192.21C625.53,433.09,624.35,655.33,624.35,634.06z
		 M716.36,699.37V568.68C716.36,559.92,716.36,708.13,716.36,699.37z M716.36,489.41v-79.27
		C716.36,401.38,716.36,514.43,716.36,489.41z"/>
	<ellipse class="st0" cx="512.6" cy="215.9" rx="209.91" ry="85.77"/>
	<ellipse class="st0" cx="512" cy="212.25" rx="143.25" ry="54.88"/>
	<ellipse class="st0" cx="512.6" cy="206.55" rx="63.31" ry="25.87"/>
	<path class="st0" d="M512.6,90.65c-156.83,0-266.13,75.21-266.13,142.69c0,5.17,0.68,10.44,2.04,15.77v0.01c0,0,0,0.01,0.01,0.01
		c6.25,24.65,26.77,50.4,59.13,72.21c4.79,3.22,9.84,6.36,15.14,9.41c17.53,10.03,37.8,18.95,60.54,26.16
		c4.93,1.56,9.98,3.04,15.14,4.44c20.57,5.57,42.96,9.76,66.97,12.19c0.97,0.11,1.96,0.2,2.94,0.3v0.35l41.81-29.04
		c1.57-1.09,3.25-1.09,4.82,0l41.81,29.04v-0.35c0.57-0.06,1.13-0.11,1.69-0.17c124.44-12.3,205.45-71.65,218.38-125.45
		c1.22-5.02,1.83-10,1.83-14.88C778.73,165.86,669.44,90.65,512.6,90.65z"/>
</g>
</svg>
