<?xml version="1.0" encoding="utf-8"?>
<!-- Generator: Adobe Adobe Illustrator 24.2.0, SVG Export Plug-In . SVG Version: 6.00 Build 0)  -->
<svg version="1.1" id="Layer_2" xmlns="http://www.w3.org/2000/svg" xmlns:xlink="http://www.w3.org/1999/xlink" x="0px" y="0px"
	 width="1024px" height="1024px" viewBox="0 0 1024 1024" style="enable-background:new 0 0 1024 1024;" xml:space="preserve">
<style type="text/css">
	.st0{fill:none;stroke:#000000;stroke-width:16;stroke-miterlimit:10;}
</style>
<g>
	<path class="st0" d="M800.28,790.15V383.27c0-0.63-0.08-1.18-0.16-1.74c0-0.08,0-0.08,0-0.16v-0.08c-0.32-1.18-1.03-2.37-2.13-3.55
		c-0.24-0.24-0.47-0.47-0.71-0.71l0,0c-5.61-5.61-11.21-11.21-16.82-16.82c-14.45-14.45-28.9-28.9-43.44-43.44
		c-18.48-18.48-36.96-36.96-55.44-55.44c-17.77-17.77-35.54-35.54-53.39-53.39c-12.64-12.56-25.27-25.27-37.99-37.91
		c-2.92-2.92-5.84-5.92-8.85-8.85c-2.29-2.29-4.98-3.55-8.21-3.63c-12.16-0.16-24.4-0.16-36.64-0.16H320.19
		c-11.61,0-23.14,0.16-34.75,0.16c-33.01,0.08-60.89,26.3-61.68,59.63c-0.08,4.9,0,9.87,0,14.77v560.8c0,5.69-0.32,11.53,0.16,17.22
		c2.69,31.91,29.46,56.39,61.36,56.47c8.21,0,16.35,0.16,24.48,0.16h402.22c8.77,0,17.45-0.16,26.22-0.16
		c28.83,0,55.36-19.98,60.81-48.89C800.75,808.63,800.28,799.23,800.28,790.15z M686.56,736.29c0,2.45-0.95,4.34-2.37,5.61
		c-0.39,0.47-0.87,0.71-1.34,1.11c-0.32,0.16-0.63,0.47-1.03,0.47l0,0c-0.24,0-0.47,0.24-0.71,0.32c-0.08,0-0.16,0.08-0.24,0.08
		c-0.08,0-0.16,0.08-0.32,0.08c0,0,0,0,0,0.08l0,0c-0.16,0-0.39,0.16-0.55,0.16l0,0c-0.24,0-0.39,0-0.63,0c-0.24,0-0.47,0-0.63,0
		l0,0c-0.24,0-0.39,0-0.63,0c-13.5,0.47-27.09,0-40.51,0H345.46c-4.26,0-7.98-3.63-7.98-7.9v-58.05c0-0.24,0-0.39,0-0.63
		c0-0.24,0-0.39,0.08-0.55c0-0.08,0-0.24,0.08-0.32c0-0.16,0.08-0.32,0.16-0.47c0-0.08,0.08-0.24,0.08-0.32
		c0-0.08,0.08-0.24,0.08-0.32c0,0,0-0.08,0.08-0.08c0.08-0.16,0.16-0.32,0.16-0.47c0-0.08,0-0.08,0.08-0.16s0.08-0.24,0.16-0.32
		c0,0,0,0,0-0.08c0,0,0-0.08,0.08-0.08c0.08-0.24,0.24-0.39,0.32-0.55s0.16-0.24,0.24-0.39c0.16-0.16,0.24-0.32,0.39-0.47
		c0.39-0.39,0.79-0.79,1.18-1.11c0.08-0.08,0.16-0.16,0.24-0.24s0.24-0.16,0.32-0.24c0.08-0.08,0.24-0.16,0.32-0.16
		c0.08-0.08,0.24-0.16,0.32-0.16c0.16-0.08,0.32-0.16,0.47-0.24c0.16-0.08,0.39-0.16,0.55-0.24s0.32-0.08,0.47-0.16h0.08
		c0,0,0.08,0,0.16,0c0.16,0,0.24-0.08,0.39-0.08h0.08h0.08c0.08,0,0.24,0,0.32,0s0.16,0,0.24,0h0.08c0.16,0,0.39,0,0.55,0
		s0.39-0.16,0.55-0.16h0.08c13.5-0.47,27.09-0.16,40.51-0.16h291.97c4.26,0,7.98,4.03,7.98,8.29v57.89H686.56z M686.56,574.31
		c0,0.24,0,0.39,0,0.63c0,0.24,0,0.47-0.08,0.71c0,0.24-0.08,0.39-0.16,0.63c0,0.16-0.08,0.24-0.08,0.39
		c-0.08,0.16-0.08,0.32-0.16,0.47c-0.16,0.39-0.32,0.79-0.55,1.18c-0.08,0.08-0.08,0.16-0.16,0.24c-0.08,0.08-0.16,0.24-0.24,0.32
		c-0.16,0.16-0.32,0.39-0.47,0.55c-0.08,0.08-0.16,0.16-0.24,0.24c-0.08,0.08-0.16,0.16-0.24,0.24l0,0
		c-0.08,0.08-0.24,0.24-0.32,0.32c-0.08,0.08-0.24,0.16-0.32,0.24c-0.08,0.08-0.16,0.16-0.24,0.24l0,0
		c-0.08,0.08-0.24,0.16-0.32,0.24c-0.08,0.08-0.16,0.08-0.24,0.16c-0.08,0-0.08,0.08-0.16,0.08s-0.16,0.08-0.16,0.08s0,0-0.08,0
		h-0.08c0,0,0,0-0.08,0s-0.16,0.08-0.32,0.16h-0.08c-0.16,0.08-0.24,0.08-0.39,0.16c-0.24,0.08-0.39,0.16-0.63,0.24h-0.08
		c-0.63,0.16-1.34,0.24-2.13,0.24c-0.16,0-0.32,0-0.39,0.08c-0.08,0-0.08,0-0.16,0l0,0c-13.5,0.79-27.09,0-40.51,0H345.46
		c-4.26,0-7.98-3.71-7.98-7.98v-58.05c0-0.55,0.08-1.03,0.16-1.58c0.08-0.24,0.08-0.47,0.24-0.79c0.08-0.24,0.16-0.47,0.24-0.71
		c0-0.08,0.08-0.16,0.08-0.24c0,0,0-0.08,0.08-0.16c0.08-0.08,0.08-0.24,0.16-0.32c0.16-0.24,0.32-0.47,0.47-0.71
		c0-0.08,0.08-0.08,0.16-0.16c0,0,0-0.08,0.08-0.08c0.08-0.08,0.16-0.24,0.24-0.32c0,0,0,0,0-0.08c0.08-0.08,0.16-0.24,0.24-0.32
		l0.08-0.08c0.24-0.24,0.47-0.47,0.79-0.71c0.08-0.08,0.16-0.16,0.24-0.24c0.24-0.16,0.47-0.32,0.71-0.47
		c0.08-0.08,0.24-0.08,0.32-0.16c0.24-0.16,0.47-0.24,0.71-0.39c0.08-0.08,0.24-0.08,0.32-0.16s0.24-0.08,0.39-0.16
		s0.32-0.08,0.47-0.16c0.24-0.08,0.47-0.08,0.63-0.16c0.24,0,0.39-0.08,0.55-0.08c0.24,0,0.39,0,0.63,0c0.08,0,0.24,0,0.32-0.08
		c0.08,0,0.08,0,0.16-0.08c0.08,0,0.08,0,0.16,0l0,0c13.5-0.47,27.09-0.16,40.59-0.16h291.97c4.26,0,7.98,3.95,7.98,8.21v58.52
		H686.56z M575.99,157.97v211.42c0,6.43,5.83,11.78,12.26,11.78h211.83"/>
</g>
</svg>
