<?xml version="1.0" encoding="utf-8"?>
<!-- Generator: Adobe Adobe Illustrator 24.2.0, SVG Export Plug-In . SVG Version: 6.00 Build 0)  -->
<svg version="1.1" xmlns="http://www.w3.org/2000/svg" xmlns:xlink="http://www.w3.org/1999/xlink" x="0px" y="0px" width="1024px"
	 height="1024px" viewBox="0 0 1024 1024" style="enable-background:new 0 0 1024 1024;" xml:space="preserve">
<style type="text/css">
	.st0{display:none;}
	.st1{display:inline;}
	.st2{fill:none;stroke:#000000;stroke-linecap:round;stroke-linejoin:round;stroke-miterlimit:10;}
	.st3{fill:none;stroke:#000000;stroke-width:16;stroke-linecap:round;stroke-linejoin:round;stroke-miterlimit:10;}
</style>
<g id="Layer_2" class="st0">
	<g class="st1">
		<g>
			<path class="st2" d="M797.06,276.68c-31.26-71.06-88.16-109.88-165.07-112.31l-6.6-0.07c-66.69,0-119.56,29.07-154.47,84.23
				l-56.12-70.79c-4.82-6.12-12.24-9.64-20.35-9.64h-0.03c-8.1,0-15.53,3.52-20.38,9.61L263.95,316.56
				c-6.16,7.76-7.32,18.5-3.04,27.39c4.27,8.96,13.47,14.74,23.39,14.74h5.4l-102.32,100.1c-7.56,7.39-9.85,18.5-5.92,28.28
				c3.97,9.85,13.44,16.24,24.08,16.24h25.79L112.59,610.7c-7.9,7.11-10.67,18.6-6.84,28.66c3.83,9.92,13.58,16.59,24.25,16.59
				h202.25v121.57c-114.02,21.34-184.98,55.5-186.48,56.26c-6.74,3.39-9.47,11.59-6.12,18.33c3.35,6.77,11.59,9.51,18.33,6.12
				c3.21-1.57,324.06-157.48,708.99,0.44c1.68,0.72,3.45,1.03,5.16,1.03c5.37,0,10.5-3.21,12.65-8.52
				c2.87-6.98-0.48-14.98-7.49-17.82c-60.39-24.79-118.97-41.35-175.44-52.8V591.78h63.88c73.94-0.03,129.54-43.57,148.73-116.44
				c12.28-46.68,3.69-97.94-22.95-137.2C868.84,304.73,836.12,283.15,797.06,276.68z M345.96,628.58l-215.04,2.43l145.07-131.29
				c4.17-3.8,5.61-9.78,3.56-15.05c-2.05-5.27-7.11-8.79-12.76-8.79l-60.33,2.39l126.26-123.52c4.04-3.9,5.27-9.81,3.18-14.98
				c-2.09-5.16-7.11-8.52-12.65-8.52l-37.86,2.26l107.89-138.84l63.47,80.02c-5.44,12.21-9.06,24.86-11.76,35.74
				c-43.36,12.65-73.59,45.21-87.72,94.73c-13.1,45.86-3.8,99,23.63,135.36c17.82,23.53,50.99,51.6,108.17,51.6
				c3.45,0,6.94-0.17,7.59-0.27h72.77v36.73h-126.6c-7.56,0-13.68,6.16-13.68,13.68v122.19c-24.38,2.05-47.71,4.75-69.49,8.17
				v-130.4C359.63,634.7,353.48,628.58,345.96,628.58z M456.52,762.57V655.94h112.92v107.04
				C529.77,760.62,492.02,760.59,456.52,762.57z M888.03,468.4c-15.83,60.09-61.56,95.99-122.26,96.03h-63.88V407.87
				c0-7.56-6.16-13.68-13.68-13.68c-7.52,0-13.68,6.16-13.68,13.68l0.03,367.25c-26.47-4.58-52.53-8.28-77.7-10.53V407.87
				c0-7.56-6.16-13.68-13.68-13.68c-7.52,0-13.68,6.16-13.68,13.68v156.59l-73.94,0.07c-1.33,0.1-3.9,0.21-6.43,0.21
				c-45.93,0-72.29-22.13-86.32-40.7c-22.47-29.75-29.99-73.42-19.19-111.35c12.24-42.99,37.75-69.11,75.78-77.66
				c5.03-1.16,9.06-5.03,10.29-10.09l0.99-4.1c2.94-12.07,6.26-25.72,12.14-37.82c29.17-59.78,78.45-91.34,142.4-91.34l6.19,0.03
				c66.28,2.12,115.28,36.25,141.78,98.73c1.74,4.04,2.87,6.09,4.38,7.8c2.36,2.7,5.68,4.34,9.2,4.62c0.96,0.14,2.7,0.41,2.91,0.44
				c31.7,3.83,59.85,21.72,79.24,50.27C891.17,386.32,898.32,429.28,888.03,468.4z"/>
			<path class="st2" d="M635.68,325.31c-7.56,0-13.68,6.16-13.68,13.68V451.5c0,7.56,6.16,13.68,13.68,13.68
				c7.52,0,13.68-6.16,13.68-13.68V338.99C649.39,331.43,643.24,325.31,635.68,325.31z"/>
		</g>
	</g>
</g>
<g id="Layer_3">
	<path class="st3" d="M84.98,885.72c81.54-63.73,239.96-106.96,422.04-106.96s340.51,43.23,422.04,106.96"/>
	<line class="st3" x1="312.89" y1="796.43" x2="312.89" y2="665.13"/>
	<line class="st3" x1="447.1" y1="780.29" x2="447.1" y2="665.13"/>
	<line class="st3" x1="94.47" y1="665.13" x2="312.89" y2="665.13"/>
	<line class="st3" x1="447.1" y1="665.13" x2="569.05" y2="665.13"/>
	<line class="st3" x1="255.97" y1="480.17" x2="94.47" y2="665.13"/>
	<line class="st3" x1="150.05" y1="482.76" x2="255.97" y2="480.17"/>
	<line class="st3" x1="310.93" y1="332.55" x2="150.05" y2="482.76"/>
	<line class="st3" x1="240.74" y1="332.55" x2="310.93" y2="332.55"/>
	<line class="st3" x1="380.07" y1="138.28" x2="240.29" y2="332.55"/>
	<line class="st3" x1="578.32" y1="781.01" x2="578.32" y2="628.59"/>
	<line class="st3" x1="702.4" y1="796.43" x2="702.4" y2="629.83"/>
	<line class="st3" x1="466.47" y1="242.09" x2="380.07" y2="138.28"/>
	<path class="st3" d="M939.02,438.23c0,80.52-70.11,145.8-156.61,145.8c-4.61,0-9.18-0.18-13.68-0.55
		c-12.15,20.23-36.02,36.79-66.33,46.35c-18.11,5.72-38.53,8.93-60.13,8.93c-23.12,0-44.91-3.68-63.95-10.17
		c-28.51-9.72-50.89-25.74-62.52-45.11c-4.5,0.37-9.07,0.55-13.68,0.55c-86.5,0-156.61-65.27-156.61-145.8
		c0-66.09,47.24-121.92,112.02-139.79c-0.45-3.96-0.68-7.97-0.68-12.02c0-15.52,3.38-30.43,9.62-44.33
		c23.93-53.38,89.89-91.74,167.49-91.74c97.82,0,177.12,60.93,177.12,136.08c0,2.82-0.11,5.63-0.33,8.4
		C883.72,307.22,939.02,366.72,939.02,438.23z"/>
</g>
</svg>
