<?xml version="1.0" encoding="utf-8"?>
<!-- Generator: Adobe Adobe Illustrator 24.2.0, SVG Export Plug-In . SVG Version: 6.00 Build 0)  -->
<svg version="1.1" id="Layer_1" xmlns="http://www.w3.org/2000/svg" xmlns:xlink="http://www.w3.org/1999/xlink" x="0px" y="0px"
	 width="3300px" height="2200px" viewBox="0 0 3300 2200" style="enable-background:new 0 0 3300 2200;" xml:space="preserve">
<style type="text/css">
	.st0{fill:#FFFFFF;}
	.st1{fill:none;stroke:#000000;stroke-width:0.5;}
	.st2{font-family:'Helvetica-Bold';}
	.st3{font-size:13px;}
	.st4{font-family:'Helvetica';}
	.st5{fill:none;stroke:#00AEEF;stroke-width:0.5;}
	.st6{fill:#27AAE1;}
	.st7{fill:none;stroke:#27AAE1;stroke-width:0.5;}
	.st8{fill:#212121;}
	.st9{stroke:#000000;stroke-width:0.5;}
</style>
<g id="Notes">
	<rect id="artboard" x="232" y="-87.3" class="st0" width="3300" height="2200"/>
	<line class="st1" x1="495" y1="204.7" x2="3268" y2="204.7"/>
	<text transform="matrix(1 0 0 1 495 234.6631)" class="st2 st3">Weight/Scale Variations</text>
	<text transform="matrix(1 0 0 1 766.0633 234.6631)" class="st4 st3">Ultralight</text>
	<text transform="matrix(1 0 0 1 1075.7775 234.6631)" class="st4 st3">Thin</text>
	<text transform="matrix(1 0 0 1 1371.035 234.6631)" class="st4 st3">Light</text>
	<text transform="matrix(1 0 0 1 1659.0773 234.6631)" class="st4 st3">Regular</text>
	<text transform="matrix(1 0 0 1 1955.4419 234.6631)" class="st4 st3">Medium</text>
	<text transform="matrix(1 0 0 1 2248.1719 234.6631)" class="st4 st3">Semibold</text>
	<text transform="matrix(1 0 0 1 2558.9705 234.6631)" class="st4 st3">Bold</text>
	<text transform="matrix(1 0 0 1 2850.2659 234.6631)" class="st4 st3">Heavy</text>
	<text transform="matrix(1 0 0 1 3149.5054 234.6631)" class="st4 st3">Black</text>
	<line class="st1" x1="495" y1="1815.7" x2="3268" y2="1815.7"/>
	<g transform="matrix(0.2 0 0 0.2 263 1933)">
		<path d="M1206.2-432.5c21.5,0,39.5-17.9,39.5-39.4s-18-39.4-39.5-39.4c-21.5,0-39.4,17.9-39.4,39.4S1184.8-432.5,1206.2-432.5
			L1206.2-432.5z M1206.2-440c-17.7,0-31.9-14.2-31.9-32c0-17.8,14.1-32,31.8-32c17.8,0,32,14.2,32,32
			C1238.2-454.2,1224-440,1206.2-440L1206.2-440z M1188.3-471.9c0,2.1,1.5,3.6,3.8,3.6h10.5v10.6c0,2.2,1.5,3.7,3.6,3.7
			c2.2,0,3.7-1.5,3.7-3.7v-10.6h10.6c2.2,0,3.7-1.5,3.7-3.6c0-2.2-1.5-3.7-3.7-3.7h-10.6v-10.5c0-2.2-1.5-3.8-3.7-3.8
			c-2.1,0-3.6,1.5-3.6,3.8v10.5H1192C1189.8-475.6,1188.3-474.1,1188.3-471.9z"/>
	</g>
	<g transform="matrix(0.2 0 0 0.2 281.506 1933)">
		<path d="M1218.5-422.1c27.2,0,49.8-22.6,49.8-49.8c0-27.2-22.6-49.8-49.9-49.8c-27.2,0-49.8,22.6-49.8,49.8
			C1168.7-444.7,1191.3-422.1,1218.5-422.1z M1218.5-430.4c-23,0-41.5-18.5-41.5-41.5s18.4-41.5,41.4-41.5c23,0,41.6,18.5,41.6,41.5
			C1260-448.9,1241.6-430.4,1218.5-430.4L1218.5-430.4z M1195.9-471.9c0,2.4,1.7,4,4.2,4h14.4v14.4c0,2.4,1.7,4.2,4.1,4.2
			c2.4,0,4.2-1.7,4.2-4.2v-14.4h14.4c2.4,0,4.2-1.6,4.2-4c0-2.4-1.7-4.2-4.2-4.2h-14.4v-14.4c0-2.5-1.7-4.2-4.2-4.2
			c-2.4,0-4.1,1.7-4.1,4.2v14.4H1200C1197.5-476.1,1195.9-474.4,1195.9-471.9z"/>
	</g>
	<g transform="matrix(0.2 0 0 0.2 304.924 1933)">
		<path d="M1234.9-408.4c34.8,0,63.6-28.8,63.6-63.6c0-34.8-28.9-63.6-63.7-63.6c-34.8,0-63.5,28.8-63.5,63.6
			C1171.3-437.2,1200.1-408.4,1234.9-408.4L1234.9-408.4z M1234.9-417.4c-30.2,0-54.4-24.3-54.4-54.5c0-30.2,24.2-54.5,54.4-54.5
			c30.2,0,54.5,24.3,54.5,54.5C1289.3-441.8,1265.1-417.4,1234.9-417.4L1234.9-417.4z M1206-471.9c0,2.6,1.9,4.4,4.6,4.4h19.7v19.8
			c0,2.7,1.9,4.6,4.4,4.6c2.7,0,4.5-1.9,4.5-4.6v-19.8h19.8c2.7,0,4.6-1.8,4.6-4.4c0-2.7-1.9-4.6-4.6-4.6h-19.8v-19.7
			c0-2.7-1.9-4.6-4.5-4.6c-2.6,0-4.4,1.9-4.4,4.6v19.7h-19.7C1207.9-476.5,1206-474.7,1206-471.9z"/>
	</g>
	<text transform="matrix(1 0 0 1 495 1865.6631)" class="st2 st3">Design Variations</text>
	<text transform="matrix(1 0 0 1 495 1883.6631)" class="st4 st3">Symbols are supported in up to nine weights and three scales.</text>
	<text transform="matrix(1 0 0 1 495 1901.6631)" class="st4 st3">For optimal layout with text and other symbols, vertically align</text>
	<text transform="matrix(1 0 0 1 495 1919.6631)" class="st4 st3">symbols with the adjacent text.</text>
	<line class="st5" x1="1008" y1="1831.7" x2="1008" y2="1845.7"/>
	<g transform="matrix(0.2 0 0 0.2 776 1933)">
		<path d="M1176.6-435.9c2.6,0,3.9-1,4.8-3.7l6.3-17.2h28.8l6.3,17.2c0.9,2.7,2.2,3.7,4.7,3.7c2.6,0,4.2-1.6,4.2-4
			c0-0.8-0.1-1.6-0.5-2.6l-22.9-61c-1.1-3-3.1-4.5-6.2-4.5c-3,0-5.1,1.5-6.2,4.4l-22.9,61.1c-0.4,1-0.5,1.8-0.5,2.6
			C1172.5-437.4,1174-435.9,1176.6-435.9z M1190-464.3l11.9-32.9h0.2l11.9,32.9H1190z"/>
	</g>
	<line class="st5" x1="1024.8" y1="1831.7" x2="1024.8" y2="1845.7"/>
	<text transform="matrix(1 0 0 1 1008 1865.6631)" class="st2 st3">Margins</text>
	<text transform="matrix(1 0 0 1 1008 1883.6631)" class="st4 st3">Leading and trailing margins on the left and right side of each symbol</text>
	<text transform="matrix(1 0 0 1 1008 1901.6631)" class="st4 st3">can be adjusted by modifying the x-location of the margin guidelines.</text>
	<text transform="matrix(1 0 0 1 1008 1919.6631)" class="st4 st3">Modifications are automatically applied proportionally to all</text>
	<text transform="matrix(1 0 0 1 1008 1937.6631)" class="st4 st3">scales and weights.</text>
	<g transform="matrix(0.2 0 0 0.2 1289 1933)">
		<path d="M1174.2-427.4l8.5,8.5c4.3,4.3,9.2,4.1,13.9-1.1l53.5-58.9l-4.8-4.9l-53.1,58.4c-1.8,2-3.4,2.5-5.8,0.1l-5.9-5.8
			c-2.3-2.3-1.8-4,0.2-5.8l57.4-54l-4.9-4.8l-58,54.4C1170.3-436.6,1169.9-431.7,1174.2-427.4L1174.2-427.4z M1206.3-518.3
			c-2.1,2.1-2.2,4.9-1.1,6.9c1.2,1.8,3.5,3,6.7,2.1c7.3-1.7,14.9-2,22.1,2.7l-2.9,7.3c-1.7,4.2-0.8,7.1,1.9,9.8l11.5,11.6
			c2.4,2.4,4.5,2.5,7.3,2.1l5.3-1l3.3,3.4l-0.2,2.8c-0.2,2.5,0.4,4.4,2.9,6.8l3.8,3.7c2.4,2.4,5.5,2.5,7.8,0.2l14.6-14.6
			c2.3-2.3,2.2-5.3-0.1-7.7l-3.9-3.8c-2.4-2.4-4.2-3.2-6.6-3l-2.9,0.2l-3.2-3.2l1.2-5.6c0.6-2.8-0.1-5-3.1-8l-11-10.9
			C1242.9-533.2,1220.7-532.8,1206.3-518.3L1206.3-518.3z M1213.8-516.5c12.2-8.9,28.6-7.4,39.7,3.8l12.2,12.1
			c1.2,1.2,1.4,2.1,1,3.8l-1.6,7.4l7.5,7.4l4.9-0.3c1.3,0,1.7,0,2.6,1l2.9,2.9l-12.2,12.2l-2.9-2.9c-1-1-1.1-1.4-1.1-2.7l0.3-4.9
			l-7.5-7.4l-7.6,1.3c-1.6,0.3-2.3,0.2-3.6-1l-10-10c-1.3-1.2-1.4-2-0.6-3.9l4.4-10.4c-7.8-7.3-18-10.4-28.1-7.4
			C1213.4-515.3,1213.1-515.9,1213.8-516.5L1213.8-516.5z"/>
	</g>
	<text transform="matrix(1 0 0 1 1521 1865.6631)" class="st2 st3">Exporting</text>
	<text transform="matrix(1 0 0 1 1521 1883.6631)" class="st4 st3">Symbols should be outlined when exporting to ensure the</text>
	<text transform="matrix(1 0 0 1 1521 1901.6631)" class="st4 st3">design is preserved when submitting to Xcode.</text>
	<text id="template-version" transform="matrix(1 0 0 1 3184.4141 1845.6631)" class="st4 st3">Template v.5.0</text>
	<text transform="matrix(1 0 0 1 3097.4575 1863.6631)" class="st4 st3">Requires Xcode 15 or greater</text>
	<text id="descriptive-name" transform="matrix(1 0 0 1 3020.8667 1881.6631)" class="st4 st3">Generated from square.and.arrow.up.circle</text>
	<text transform="matrix(1 0 0 1 3133.5693 1899.6631)" class="st4 st3">Typeset at 100.0 points</text>
	<text transform="matrix(1 0 0 1 495 638.663)" class="st4 st3">Small</text>
	<text transform="matrix(1 0 0 1 495 1068.6631)" class="st4 st3">Medium</text>
	<text transform="matrix(1 0 0 1 495 1498.6631)" class="st4 st3">Large</text>
</g>
<g id="Guides">
	<g id="H-reference" transform="matrix(1 0 0 1 339 696)">
		<path class="st6" d="M1,0h2.6l25.7-67.1H30v-3.3h-1.9L1,0z M11.7-24.5H47l-0.8-2.2H12.4L11.7-24.5z M55.1,0h2.6L30.6-70.5h-1.2
			v3.3L55.1,0z"/>
	</g>
	<line id="Baseline-S" class="st7" x1="263" y1="696" x2="3036" y2="696"/>
	<line id="Capline-S" class="st7" x1="263" y1="625.5" x2="3036" y2="625.5"/>
	<g id="H-reference_1_" transform="matrix(1 0 0 1 339 1126)">
		<path class="st6" d="M1,0h2.6l25.7-67.1H30v-3.3h-1.9L1,0z M11.7-24.5H47l-0.8-2.2H12.4L11.7-24.5z M55.1,0h2.6L30.6-70.5h-1.2
			v3.3L55.1,0z"/>
	</g>
	<line id="Baseline-M" class="st7" x1="263" y1="1126" x2="3036" y2="1126"/>
	<line id="Capline-M" class="st7" x1="263" y1="1055.5" x2="3036" y2="1055.5"/>
	<g id="H-reference_2_" transform="matrix(1 0 0 1 339 1556)">
		<path class="st6" d="M1,0h2.6l25.7-67.1H30v-3.3h-1.9L1,0z M11.7-24.5H47l-0.8-2.2H12.4L11.7-24.5z M55.1,0h2.6L30.6-70.5h-1.2
			v3.3L55.1,0z"/>
	</g>
	<line id="Baseline-L" class="st7" x1="263" y1="1556" x2="3036" y2="1556"/>
	<line id="Capline-L" class="st7" x1="263" y1="1485.5" x2="3036" y2="1485.5"/>
	<line id="left-margin-Ultralight-S" class="st5" x1="515.6" y1="600.8" x2="515.6" y2="720.1"/>
	<line id="right-margin-Ultralight-S" class="st5" x1="603.8" y1="600.8" x2="603.8" y2="720.1"/>
	<line id="left-margin-Regular-S" class="st5" x1="1403.6" y1="600.8" x2="1403.6" y2="720.1"/>
	<line id="right-margin-Regular-S" class="st5" x1="1496.1" y1="600.8" x2="1496.1" y2="720.1"/>
	<line id="left-margin-Black-S" class="st5" x1="2884.6" y1="600.8" x2="2884.6" y2="720.1"/>
	<line id="right-margin-Black-S" class="st5" x1="2982.2" y1="600.8" x2="2982.2" y2="720.1"/>
</g>
<g id="Symbols">
	<g id="Black-S" transform="matrix(1 0 0 1 2884.57 696)">
		<path class="st8" d="M33.6-34.4l5.1,0c0.9,0,1.7,0.8,1.7,1.7c0,0.9-0.7,1.6-1.5,1.7l-0.2,0l-3.4,0v8.5l3.4,0
			c0.9,0,1.6,0.7,1.7,1.5l0,0.2c0,0.9-0.7,1.6-1.5,1.7l-0.2,0h-5.1c-0.9,0-1.6-0.7-1.7-1.5l0-0.2v-11.8c0-0.9,0.7-1.6,1.5-1.7
			L33.6-34.4z M64-25.9c0.9,0,1.7,0.8,1.7,1.7c0,0.9-0.7,1.6-1.5,1.7l-0.2,0H43.8c-0.9,0-1.7-0.8-1.7-1.7c0-0.9,0.7-1.6,1.5-1.7
			l0.2,0H64z M64-31c0.9,0,1.7,0.8,1.7,1.7c0,0.9-0.7,1.6-1.5,1.7l-0.2,0H43.8c-0.9,0-1.7-0.8-1.7-1.7c0-0.9,0.7-1.6,1.5-1.7l0.2,0
			H64z M38.7-51.3c0.9,0,1.7,0.8,1.7,1.7c0,0.9-0.7,1.6-1.5,1.7l-0.2,0h-3.4v8.4l3.4,0c0.9,0,1.6,0.7,1.7,1.5l0,0.2
			c0,0.9-0.7,1.6-1.5,1.7l-0.2,0h-5.1c-0.9,0-1.6-0.7-1.7-1.5l0-0.2v-11.8c0-0.9,0.7-1.6,1.5-1.7l0.2,0H38.7z M64-42.8
			c0.9,0,1.7,0.8,1.7,1.7c0,0.9-0.7,1.6-1.5,1.7l-0.2,0H43.8c-0.9,0-1.7-0.8-1.7-1.7c0-0.9,0.7-1.6,1.5-1.7l0.2,0H64z M64-47.9
			c0.9,0,1.7,0.8,1.7,1.7c0,0.9-0.7,1.6-1.5,1.7l-0.2,0H43.8c-0.9,0-1.7-0.8-1.7-1.7c0-0.9,0.7-1.6,1.5-1.7l0.2,0H64z"/>
		<path class="st9" d="M48.8,6.8c23.1,0,42-18.8,42-42c0-23.1-18.8-42-42-42c-23.1,0-42,18.8-42,42C6.8-12.1,25.7,6.8,48.8,6.8z
			 M48.8-7.4C33.4-7.4,21-19.8,21-35.2C21-50.6,33.4-63,48.8-63c15.4,0,27.8,12.5,27.8,27.8C76.7-19.8,64.2-7.4,48.8-7.4z"/>
	</g>
	<g id="Regular-S" transform="matrix(1 0 0 1 1403.58 696)">
		<path class="st8" d="M28.1-34.2l6.2,0c1.1,0,2,0.9,2,2.1c0,1.1-0.8,1.9-1.8,2l-0.2,0l-4.1,0v10.3l4.1,0c1.1,0,1.9,0.8,2,1.8l0,0.2
			c0,1.1-0.8,1.9-1.8,2l-0.2,0h-6.2c-1.1,0-1.9-0.8-2-1.8l0-0.2v-14.4c0-1.1,0.8-1.9,1.8-2L28.1-34.2z M65-23.9
			c1.1,0,2.1,0.9,2.1,2.1c0,1.1-0.8,1.9-1.8,2l-0.2,0H40.4c-1.1,0-2.1-0.9-2.1-2.1c0-1.1,0.8-1.9,1.8-2l0.2,0H65z M65-30.1
			c1.1,0,2.1,0.9,2.1,2.1c0,1.1-0.8,1.9-1.8,2L65-26H40.4c-1.1,0-2.1-0.9-2.1-2.1c0-1.1,0.8-1.9,1.8-2l0.2,0H65z M34.3-54.7
			c1.1,0,2.1,0.9,2.1,2.1c0,1.1-0.8,1.9-1.8,2l-0.2,0h-4.1v10.2l4.1,0c1.1,0,1.9,0.8,2,1.8l0,0.2c0,1.1-0.8,1.9-1.8,2l-0.2,0h-6.2
			c-1.1,0-1.9-0.8-2-1.8l0-0.2v-14.3c0-1.1,0.8-1.9,1.8-2l0.2,0H34.3z M65-44.4c1.1,0,2.1,0.9,2.1,2.1c0,1.1-0.8,1.9-1.8,2l-0.2,0
			H40.4c-1.1,0-2.1-0.9-2.1-2.1c0-1.1,0.8-1.9,1.8-2l0.2,0H65z M65-50.6c1.1,0,2.1,0.9,2.1,2.1c0,1.1-0.8,1.9-1.8,2l-0.2,0H40.4
			c-1.1,0-2.1-0.9-2.1-2.1c0-1.1,0.8-1.9,1.8-2l0.2,0H65z"/>
		<path class="st9" d="M46.2,4.2c21.5,0,39.5-17.9,39.5-39.4s-18-39.4-39.5-39.4c-21.5,0-39.4,17.9-39.4,39.4S24.8,4.2,46.2,4.2z
			 M46.2-3.3c-17.7,0-31.9-14.2-31.9-32s14.1-32,31.8-32c17.8,0,32,14.2,32,32S64-3.3,46.2-3.3z"/>
	</g>
	<g id="Ultralight-S" transform="matrix(1 0 0 1 515.649 696)">
		<path class="st8" d="M25.6-34.2l6.2,0c1.1,0,2,0.9,2,2.1c0,1.1-0.8,1.9-1.8,2l-0.2,0l-4.1,0v10.3l4.1,0c1.1,0,1.9,0.8,2,1.8l0,0.2
			c0,1.1-0.8,1.9-1.8,2l-0.2,0h-6.2c-1.1,0-1.9-0.8-2-1.8l0-0.2v-14.4c0-1.1,0.8-1.9,1.8-2L25.6-34.2z M62.5-24
			c1.1,0,2.1,0.9,2.1,2.1c0,1.1-0.8,1.9-1.8,2l-0.2,0H37.9c-1.1,0-2.1-0.9-2.1-2.1c0-1.1,0.8-1.9,1.8-2l0.2,0H62.5z M62.5-30.1
			c1.1,0,2.1,0.9,2.1,2.1c0,1.1-0.8,1.9-1.8,2l-0.2,0H37.9c-1.1,0-2.1-0.9-2.1-2.1c0-1.1,0.8-1.9,1.8-2l0.2,0H62.5z M31.8-54.7
			c1.1,0,2.1,0.9,2.1,2.1c0,1.1-0.8,1.9-1.8,2l-0.2,0h-4.1v10.2l4.1,0c1.1,0,1.9,0.8,2,1.8l0,0.2c0,1.1-0.8,1.9-1.8,2l-0.2,0h-6.2
			c-1.1,0-1.9-0.8-2-1.8l0-0.2v-14.3c0-1.1,0.8-1.9,1.8-2l0.2,0H31.8z M62.5-44.5c1.1,0,2.1,0.9,2.1,2.1c0,1.1-0.8,1.9-1.8,2l-0.2,0
			H37.9c-1.1,0-2.1-0.9-2.1-2.1c0-1.1,0.8-1.9,1.8-2l0.2,0H62.5z M62.5-50.6c1.1,0,2.1,0.9,2.1,2.1c0,1.1-0.8,1.9-1.8,2l-0.2,0H37.9
			c-1.1,0-2.1-0.9-2.1-2.1c0-1.1,0.8-1.9,1.8-2l0.2,0H62.5z"/>
		<path class="st9" d="M44.1,2c20.4,0,37.2-16.8,37.2-37.2S64.5-72.5,44.1-72.5c-20.5,0-37.2,16.8-37.2,37.2S23.6,2,44.1,2z
			 M44.1-0.3c-19.3,0-35-15.7-35-35s15.7-35,35-35c19.3,0,35,15.7,35,35S63.4-0.3,44.1-0.3z"/>
	</g>
</g>
</svg>
