<?xml version="1.0" encoding="utf-8"?>
<!-- Generator: Adobe Adobe Illustrator 24.2.0, SVG Export Plug-In . SVG Version: 6.00 Build 0)  -->
<svg version="1.1" id="Layer_2" xmlns="http://www.w3.org/2000/svg" xmlns:xlink="http://www.w3.org/1999/xlink" x="0px" y="0px"
	 width="1024px" height="1024px" viewBox="0 0 1024 1024" style="enable-background:new 0 0 1024 1024;" xml:space="preserve">
<style type="text/css">
	.st0{fill:none;stroke:#000000;stroke-width:16;stroke-miterlimit:10;}
	.st1{fill:none;stroke:#000000;stroke-width:16;stroke-linecap:round;stroke-miterlimit:10;}
</style>
<g>
	<path class="st0" d="M113.59,808.58V548.53h58.45v260.05c0,9.7-7.87,17.57-17.57,17.57h-23.3
		C121.46,826.15,113.59,818.28,113.59,808.58z"/>
	<path class="st1" d="M81.87,197.85l-13.7,159.74c-2.06,24.11,16.95,44.83,41.14,44.83h18.9h14.61h14.61h19.37
		c24.24,0,43.27-20.78,41.14-44.92l-14.09-159.64"/>
	<line class="st1" x1="142.82" y1="402.41" x2="142.82" y2="197.85"/>
	<rect x="128.2" y="402.41" class="st0" width="29.22" height="146.12"/>
</g>
<g>
	<circle class="st1" cx="525.18" cy="512" r="292.23"/>
	<circle class="st1" cx="525.18" cy="512" r="175.34"/>
	<circle class="st1" cx="525.18" cy="512" r="204.56"/>
</g>
<g>
	<path class="st1" d="M853.71,541.22l-1.02-179.63c0-114.13,68.62-171.05,103.3-171.05l0,0v350.68H853.71z"/>
	<path class="st0" d="M912.15,820.28V541.22h43.83v279.05c0,7.28-5.9,13.18-13.18,13.18h-17.48
		C918.05,833.46,912.15,827.56,912.15,820.28z"/>
</g>
</svg>
