<?xml version="1.0" encoding="utf-8"?>
<!-- Generator: Adobe Adobe Illustrator 24.2.0, SVG Export Plug-In . SVG Version: 6.00 Build 0)  -->
<svg version="1.1" id="Layer_1" xmlns="http://www.w3.org/2000/svg" xmlns:xlink="http://www.w3.org/1999/xlink" x="0px" y="0px"
	 width="1024px" height="1024px" viewBox="0 0 1024 1024" style="enable-background:new 0 0 1024 1024;" xml:space="preserve">
<style type="text/css">
	.st0{fill:none;stroke:#000000;stroke-width:16;}
	.st1{fill:none;stroke:#000000;stroke-width:16;stroke-linecap:round;stroke-miterlimit:10;}
	.st2{fill:none;stroke:#000000;stroke-width:16;stroke-miterlimit:10;}
</style>
<g>
	<path class="st0" d="M897.96,490.95C867.1,524.72,817.03,526,773.94,530.3h-0.01c-31.1,3.02-62.8,5.33-94.89,6.99
		c24.78,91.48,47.77,163.43,39.43,263.36c0.45,44.6-19.22,91.38-56.04,111.77c-44.01,17.28-92.04,15.21-138.3,15.77
		c-49.3-1.78-102.38,5.65-147.83-19.62c-38.42-20.72-49.25-72.63-52.29-116.2c-3.45-99.31,15.3-167.2,40.05-257.63
		c-65.39-4.05-129.96-10.1-192.21-17.76c-32.75-7.51-57.72-32.36-67.9-63.12c-18.86-61.32,5.23-126.88,42.13-177.35
		c81.01-108.62,216.92-177,355.4-180.69l0.01,0.03c79.2-1.07,157.85,18.42,227.26,54.93c77.95,42.44,149.24,103.64,182.6,185.6
		C932.33,385.42,935.08,448.29,897.96,490.95z"/>
</g>
<line class="st1" x1="408.85" y1="447.41" x2="622.7" y2="447.41"/>
<g>
	<line class="st2" x1="363.67" y1="255.79" x2="454.04" y2="346.16"/>
	<line class="st2" x1="454.04" y1="255.79" x2="363.67" y2="346.16"/>
</g>
<g>
	<line class="st2" x1="563.67" y1="255.79" x2="654.04" y2="346.16"/>
	<line class="st2" x1="654.04" y1="255.79" x2="563.67" y2="346.16"/>
</g>
<path class="st1" d="M408.85,447.41c-5.29,9.7-9.69,20.91-9.64,31.13c0.05,10.22,5.8,20.49,16.77,24.07
	c12.06,3.93,27.34-1.28,37.08-9.91c9.74-8.63,14.11-30.98,20.7-40.71C479.5,443.51,477.97,450.18,408.85,447.41z"/>
<line class="st1" x1="437.53" y1="451.99" x2="429.01" y2="471.68"/>
</svg>
