<?xml version="1.0" encoding="utf-8"?>
<!-- Generator: Adobe Adobe Illustrator 24.2.0, SVG Export Plug-In . SVG Version: 6.00 Build 0)  -->
<svg version="1.1" id="Layer_1" xmlns="http://www.w3.org/2000/svg" xmlns:xlink="http://www.w3.org/1999/xlink" x="0px" y="0px"
	 width="1024px" height="1024px" viewBox="0 0 1024 1024" style="enable-background:new 0 0 1024 1024;" xml:space="preserve">
<style type="text/css">
	.st0{fill:none;stroke:#000000;stroke-width:16;stroke-miterlimit:10;}
</style>
<g>
	<line class="st0" x1="833.65" y1="123.93" x2="902.62" y2="192.9"/>
	<line class="st0" x1="864.32" y1="155.26" x2="850.03" y2="185.08"/>
	<line class="st0" x1="894.99" y1="141.46" x2="863.57" y2="155.22"/>
	<line class="st0" x1="844.49" y1="133.46" x2="818.23" y2="165.4"/>
	<line class="st0" x1="873.8" y1="109.08" x2="843.66" y2="133.46"/>
	<path class="st0" d="M967.07,136.32l-59.18-23.67l10.9-32.7h-41.25c-15.32,0-29.72,5.96-40.55,16.79l-7.91,7.92l-31.47-31.47
		l-13.51,13.51l31.47,31.47l-7.92,7.92c-10.83,10.83-16.79,25.22-16.79,40.54v41.25l32.71-10.9l23.67,59.18l24.93-49.85l67.62,22.54
		l-22.54-67.62L967.07,136.32z"/>
	<line class="st0" x1="833.65" y1="123.93" x2="902.62" y2="192.9"/>
	<line class="st0" x1="864.32" y1="155.26" x2="850.03" y2="185.08"/>
	<line class="st0" x1="894.99" y1="141.46" x2="863.57" y2="155.22"/>
	<line class="st0" x1="844.49" y1="133.46" x2="818.23" y2="165.4"/>
	<line class="st0" x1="873.8" y1="109.08" x2="843.66" y2="133.46"/>
</g>
<g>
	<line class="st0" x1="550.29" y1="127" x2="619.26" y2="195.98"/>
	<line class="st0" x1="580.96" y1="158.33" x2="566.67" y2="188.15"/>
	<line class="st0" x1="611.63" y1="144.53" x2="580.21" y2="158.29"/>
	<line class="st0" x1="561.13" y1="136.54" x2="534.87" y2="168.47"/>
	<line class="st0" x1="590.44" y1="112.15" x2="560.31" y2="136.54"/>
	<path class="st0" d="M683.71,139.39l-59.18-23.67l10.9-32.7h-41.25c-15.32,0-29.72,5.96-40.55,16.79l-7.91,7.92l-31.47-31.47
		l-13.51,13.51l31.47,31.47l-7.92,7.92c-10.83,10.83-16.79,25.22-16.79,40.54v41.25l32.71-10.9l23.67,59.18l24.93-49.85l67.62,22.54
		l-22.54-67.62L683.71,139.39z"/>
	<line class="st0" x1="550.29" y1="127" x2="619.26" y2="195.98"/>
	<line class="st0" x1="580.96" y1="158.33" x2="566.67" y2="188.15"/>
	<line class="st0" x1="611.63" y1="144.53" x2="580.21" y2="158.29"/>
	<line class="st0" x1="561.13" y1="136.54" x2="534.87" y2="168.47"/>
	<line class="st0" x1="590.44" y1="112.15" x2="560.31" y2="136.54"/>
</g>
<g>
	<line class="st0" x1="836.72" y1="415.42" x2="905.69" y2="484.39"/>
	<line class="st0" x1="867.39" y1="446.75" x2="853.1" y2="476.56"/>
	<line class="st0" x1="898.06" y1="432.94" x2="866.64" y2="446.7"/>
	<line class="st0" x1="847.56" y1="424.95" x2="821.3" y2="456.89"/>
	<line class="st0" x1="876.87" y1="400.56" x2="846.74" y2="424.95"/>
	<path class="st0" d="M970.14,427.81l-59.18-23.67l10.9-32.7H880.6c-15.32,0-29.72,5.96-40.55,16.79l-7.91,7.92l-31.47-31.47
		l-13.51,13.51l31.47,31.47l-7.92,7.92c-10.83,10.83-16.79,25.22-16.79,40.54v41.25l32.71-10.9l23.67,59.18l24.93-49.85l67.62,22.54
		l-22.54-67.62L970.14,427.81z"/>
	<line class="st0" x1="836.72" y1="415.42" x2="905.69" y2="484.39"/>
	<line class="st0" x1="867.39" y1="446.75" x2="853.1" y2="476.56"/>
	<line class="st0" x1="898.06" y1="432.94" x2="866.64" y2="446.7"/>
	<line class="st0" x1="847.56" y1="424.95" x2="821.3" y2="456.89"/>
	<line class="st0" x1="876.87" y1="400.56" x2="846.74" y2="424.95"/>
</g>
<g>
	<path class="st0" d="M186.58,528.87c7.18-13.03,16.66-24.71,25.08-34.47c-8.6-3.1-32.71-7.45-41.58-7.54h-0.71
		c-42.37,0-68.61,33.59-83.14,61.87c-20.39,39.53-31.82,95.29-32.35,156.98c-0.89,121.26,57.62,220.54,130.39,221.16
		c9.13,0,30.66-7.08,39.16-10c-8.33-9.93-16.13-20.13-23.22-33.51c-1.68-3.19-13.19-3.02-9.91-4.7c3.19-1.68,7.27-0.44,8.95,2.84
		c8.24,15.6,17.46,28.81,27.48,39.18c17.82,18.61,36.96,28.19,57,28.36h0.35c15.69,0,30.76-5.58,45.03-16.66
		c0.09-0.09,0.27-0.09,0.35-0.18c0.35-0.27,0.8-0.44,1.24-0.62c0.35-0.09,0.71-0.27,1.06-0.35c0.44-0.09,0.89-0.09,1.24-0.09
		c0.44,0,0.89-0.09,1.33,0c0.35,0.09,0.71,0.27,1.15,0.35c0.44,0.18,0.8,0.35,1.24,0.62c0.09,0.09,0.27,0.09,0.35,0.09
		c4.79,3.55,8.42,6.56,11.26,9.04c7.27,6.2,10.02,8.6,21.63,8.69c11.88,0.09,14.54-2.13,21.98-8.24c3.01-2.39,6.47-5.23,11.08-8.51
		c0.09-0.09,0.27-0.09,0.35-0.09c0.35-0.27,0.8-0.44,1.24-0.53c0.35-0.18,0.8-0.35,1.15-0.44h1.24c0.44,0,0.89,0,1.33,0.09
		c0.35,0.09,0.71,0.27,1.06,0.44c0.44,0.18,0.89,0.35,1.24,0.62c0.09,0.09,0.18,0.09,0.27,0.18c14.54,11.35,29.69,17.2,45.3,17.37
		c19.77-0.09,39.62-9.22,57.26-27.12c10.9-10.9,21.1-25.09,30.14-42.28c1.77-3.19,5.76-4.43,8.95-2.75
		c3.43,1.45-7.48-0.24-9.16,3.04c-7.89,14.8-20.58,31.57-29.88,42.12c8.69,3.1,33.55,6.7,42.41,6.79
		c34.75,0.18,67.72-21.81,93.07-62.4c25.88-41.48,40.42-97.06,40.95-156.45c0.89-129.59-45.47-220.54-112.75-221.16l0,0
		c-8.42,0-29.41,6.49-37.39,8.97c2.13,2.39,4.67,5.71,6.62,8.28c2.22,2.93,5.21,12.18,9.67,10.31c2.76,1.02-0.57,0.08-1.99,0.08
		c-2.04,0-4.74-6.64-6.07-8.41c-3.99-5.32-8.15-10.19-12.41-14.54c-0.27-0.18-0.53-0.35-0.71-0.62
		c-17.64-17.99-37.58-27.3-57.26-27.21c-15.6,0.18-30.85,6.03-45.3,17.37c-0.09,0.09-0.27,0.18-0.44,0.18
		c-0.44,0.44-0.98,0.71-1.6,0.89c-0.27,0.09-0.53,0.09-0.8,0.18c-0.44,0.09-0.89,0.27-1.24,0.27c-1.33,0-2.66-0.35-3.81-1.15
		l-0.89-0.62c-1.42-0.98-2.75-1.95-4.25-2.75c-3.37-2.22-6.38-3.9-9.57-5.41c-11.7-5.85-23.76-8.86-35.9-8.95
		c-8.95-0.09-17.73,1.33-26.06,4.17c-5.5,1.68-10.73,4.08-16.22,7.18c-2.93,1.6-5.76,3.37-8.6,5.41c-0.09,0-0.18,0-0.35,0.09
		c-0.35,0.27-0.71,0.35-1.15,0.53c-0.44,0.18-0.8,0.35-1.24,0.35c-0.35,0.09-0.8,0.09-1.15,0.09c-0.44,0-0.89,0-1.33-0.09
		c-0.35-0.09-0.71-0.27-1.06-0.44c-0.44-0.18-0.89-0.35-1.33-0.62c-0.09-0.09-0.18-0.09-0.27-0.18
		c-14.45-11.35-29.69-17.2-45.3-17.37h-0.53c-19.68,0-39.27,9.4-56.73,27.21c-0.27,0.27-0.44,0.44-0.71,0.62
		c-9.93,10.11-18.9,22.87-27.14,37.94c-1.24,2.13-6.97,3.7-6.1,3.46 M310.87,377l8.6-22.96c11.52,3.46,22.07,8.24,31.29,14.27
		c38.47,24.91,52.12,68.34,56.46,103.71c-11.35-4.7-23.14-7.27-35.01-7.36c-9.57,0.09-18.97,1.33-28.01,4.17
		c1.33-6.65,2.22-13.12,2.22-19.41c0-2.13-0.09-4.25-0.27-6.38c-0.18-2.84-0.62-5.58-0.98-8.33
		C339.94,403.85,319.82,384.35,310.87,377z M430.51,630.64l38.12-71.98c1.6-3.1,4.96-5.05,9.04-5.14h0.27c3.9,0,7.18,1.77,8.95,4.7
		l41.04,70.29c1.86,3.1,0.89,5.85,0.09,7.18c-1.68,2.93-5.05,4.88-8.95,4.96l-79.16,1.68c-3.81-0.18-7.36-1.68-9.13-4.61
		C429.97,636.49,428.82,633.83,430.51,630.64z M334.42,702.17l29.87-49.82c0.98-1.6,3.37-2.66,6.03-2.75h0.18
		c2.57,0,4.88,0.98,5.94,2.48l32,48.49c0.44,0.8,0.53,1.33,0.09,2.04c-0.71,1.42-2.84,2.84-6.12,2.93l-61.87,1.33
		c-3.01,0-5.41-1.24-6.2-2.66C333.89,703.5,333.98,702.97,334.42,702.17z M211.92,635.25l38.03-71.98c1.6-3.1,5.05-4.96,9.04-5.05
		h0.27c3.9,0,7.27,1.68,8.95,4.7l41.13,70.29c1.77,3.1,0.8,5.76,0.09,7.09c-1.68,3.01-5.14,4.88-9.04,4.96l-79.07,1.68
		c-3.99,0-7.45-1.6-9.22-4.52C211.3,641.1,210.23,638.44,211.92,635.25z M400.37,859.33v-26.15c0-3.63-3.01-6.65-6.65-6.65h-44.67
		c-3.63,0-6.65,3.01-6.65,6.65v26.15c-103.09-11.35-192.97-84.12-203.43-162.83c17.82,13.83,54.78,38.29,109.91,55.22v35.99
		c0,3.63,3.01,6.65,6.65,6.65h44.05c3.72,0,6.65-3.01,6.65-6.65v-23.05c20.92,3.28,42.72,5.05,65.15,5.05s44.14-1.77,65.15-4.96
		v22.96c0,3.63,3.01,6.65,6.65,6.65h44.05c3.72,0,6.65-3.01,6.65-6.65v-35.99c23.22-7.53,55.84-23.14,100.25-48.04
		c3.63-2.57,6.91-5.05,9.75-7.18C593.43,775.12,503.46,847.99,400.37,859.33z"/>
</g>
</svg>
